<svg width="17" height="28" viewBox="0 0 17 28" fill="none" xmlns="http://www.w3.org/2000/svg">
<path d="M16.8378 3.8028C16.8378 1.34143 12.5363 0.468536 8.85566 0.468536C5.17413 0.468536 0.873535 1.34143 0.873535 3.8028C0.873535 6.6285 4.46372 11.9229 6.6659 13.9906C4.46372 16.0583 0.873535 21.3527 0.873535 24.1784C0.873535 26.6406 5.17413 27.5127 8.85566 27.5127C12.5363 27.5127 16.8378 26.639 16.8378 24.1784C16.8378 21.3527 13.2476 16.0583 11.0454 13.9906C13.2476 11.9229 16.8378 6.6285 16.8378 3.8028ZM15.9509 24.1784C15.9509 25.859 12.4033 26.6977 8.85566 26.6977C5.30805 26.6977 1.76044 25.8574 1.76044 24.1784C1.76044 21.206 6.32266 14.9866 8.0131 13.9906C6.32266 12.9955 1.76044 6.77602 1.76044 3.8028C1.76044 2.12304 5.30805 1.28356 8.85566 1.28356C12.4033 1.28356 15.9509 2.12385 15.9509 3.8028C15.9509 6.77602 11.3878 12.9955 9.69822 13.9906C11.3878 14.9858 15.9509 21.2052 15.9509 24.1784Z" fill="#40B5E7"/>
<path d="M3.47925 24.8845C3.47925 25.036 5.32845 25.4753 8.85745 25.4753C12.3864 25.4753 14.2356 25.036 14.2356 24.8845C14.2356 22.6415 8.85745 21.097 8.85745 17.0805C8.85745 21.097 3.47925 22.5575 3.47925 24.8845Z" fill="#40B5E7"/>
<path d="M8.75314 12.9815L8.85691 13.8503L8.96067 12.9815C10.0143 12.4354 13.6391 8.12802 13.6391 6.28119C13.6391 6.0375 11.9948 5.3317 8.85513 5.3317C5.71549 5.3317 4.07117 6.03669 4.07117 6.28119C4.07294 8.12802 7.6995 12.4354 8.75314 12.9815Z" fill="#40B5E7"/>
</svg>
