<svg width="37" height="22" viewBox="0 0 37 22" fill="none" xmlns="http://www.w3.org/2000/svg">
<path d="M0.835227 19.9071C0.399762 20.4428 0.481009 21.2301 1.0167 21.6655C1.55239 22.101 2.33966 22.0197 2.77512 21.4841L0.835227 19.9071ZM9.96645 10.656L10.9364 9.86749C10.699 9.5755 10.3427 9.40597 9.96645 9.40597C9.59014 9.40597 9.23386 9.5755 8.9965 9.86749L9.96645 10.656ZM18.1277 20.6956L17.1578 21.4841C17.3951 21.7761 17.7514 21.9456 18.1277 21.9456C18.504 21.9456 18.8603 21.7761 19.0977 21.4841L18.1277 20.6956ZM35.1496 1.15736C35.0787 0.470647 34.4646 -0.0285897 33.7779 0.0422788L22.5873 1.19715C21.9006 1.26802 21.4013 1.88215 21.4722 2.56886C21.5431 3.25557 22.1572 3.75481 22.8439 3.68394L32.7911 2.65739L33.8176 12.6046C33.8885 13.2913 34.5027 13.7905 35.1894 13.7196C35.8761 13.6488 36.3753 13.0346 36.3044 12.3479L35.1496 1.15736ZM2.77512 21.4841L10.9364 11.4445L8.9965 9.86749L0.835227 19.9071L2.77512 21.4841ZM8.9965 11.4445L17.1578 21.4841L19.0977 19.9071L10.9364 9.86749L8.9965 11.4445ZM19.0977 21.4841L34.8761 2.07415L32.9362 0.497196L17.1578 19.9071L19.0977 21.4841Z" fill="#40B5E7"/>
</svg>
