<svg width="28" height="9" viewBox="0 0 28 9" fill="none" xmlns="http://www.w3.org/2000/svg">
<path d="M22.8613 5.17505C23.1375 5.17505 23.3613 4.95119 23.3613 4.67505C23.3613 4.39891 23.1375 4.17505 22.8613 4.17505L22.8613 5.17505ZM0.507774 4.3215C0.312513 4.51676 0.312513 4.83334 0.507774 5.0286L3.68975 8.21058C3.88502 8.40585 4.2016 8.40585 4.39686 8.21058C4.59213 8.01532 4.59213 7.69874 4.39686 7.50348L1.56844 4.67505L4.39686 1.84662C4.59212 1.65136 4.59212 1.33478 4.39686 1.13952C4.2016 0.944254 3.88502 0.944254 3.68975 1.13952L0.507774 4.3215ZM22.8613 4.17505L0.861328 4.17505L0.861328 5.17505L22.8613 5.17505L22.8613 4.17505Z" fill="#241A59"/>
<circle cx="26.8613" cy="4.67505" r="1" transform="rotate(-90 26.8613 4.67505)" fill="#40B5E7"/>
</svg>
