<svg width="9" height="28" viewBox="0 0 9 28" fill="none" xmlns="http://www.w3.org/2000/svg">
<path d="M5 5.00024C5 4.7241 4.77614 4.50024 4.5 4.50024C4.22386 4.50024 4 4.7241 4 5.00024L5 5.00024ZM4.14645 27.3538C4.34171 27.5491 4.65829 27.5491 4.85356 27.3538L8.03554 24.1718C8.2308 23.9766 8.2308 23.66 8.03554 23.4647C7.84027 23.2694 7.52369 23.2694 7.32843 23.4647L4.5 26.2931L1.67158 23.4647C1.47631 23.2694 1.15973 23.2694 0.964469 23.4647C0.769206 23.66 0.769206 23.9766 0.964469 24.1718L4.14645 27.3538ZM4 5.00024L4 27.0002L5 27.0002L5 5.00024L4 5.00024Z" fill="#241A59"/>
<circle cx="4.5" cy="1.00024" r="1" transform="rotate(180 4.5 1.00024)" fill="#40B5E7"/>
</svg>
