<svg width="163" height="163" viewBox="0 0 163 163" fill="none" xmlns="http://www.w3.org/2000/svg">
<path fill-rule="evenodd" clip-rule="evenodd" d="M81.0999 0.462776L81.2064 0.462708L81.3128 0.462776C82.5147 0.464319 83.4877 1.43989 83.4862 2.64178C83.4847 3.84367 82.5091 4.81674 81.3072 4.8152L81.2064 4.81513L81.1055 4.8152C79.9036 4.81674 78.9281 3.84367 78.9265 2.64178C78.925 1.43989 79.898 0.464319 81.0999 0.462776ZM52.9867 7.79783C53.4471 8.90804 52.9203 10.1813 51.8101 10.6417C42.457 14.5202 34.0344 20.1952 26.9737 27.2376C26.9499 27.2613 26.9257 27.2844 26.9012 27.3068C26.8788 27.3313 26.8557 27.3555 26.832 27.3793C19.7896 34.44 14.1147 42.8625 10.2361 52.2156C9.7757 53.3258 8.50247 53.8526 7.39225 53.3922C6.28204 52.9319 5.75525 51.6586 6.21563 50.5484C10.3155 40.6618 16.3122 31.7632 23.7504 24.3057C23.7754 24.2805 23.801 24.2562 23.8269 24.2325C23.8506 24.2065 23.875 24.181 23.9001 24.156C31.3576 16.7178 40.2562 10.721 50.1428 6.62121C51.2531 6.16082 52.5263 6.68761 52.9867 7.79783ZM109.426 7.79783C109.886 6.68761 111.16 6.16082 112.27 6.62121C122.157 10.721 131.055 16.7178 138.513 24.156C138.538 24.181 138.562 24.2066 138.586 24.2325C138.612 24.2562 138.637 24.2806 138.662 24.3057C146.101 31.7632 152.097 40.6618 156.197 50.5484C156.657 51.6586 156.131 52.9319 155.02 53.3923C153.91 53.8526 152.637 53.3258 152.177 52.2156C148.298 42.8625 142.623 34.44 135.581 27.3793C135.557 27.3555 135.534 27.3313 135.512 27.3067C135.487 27.2843 135.463 27.2613 135.439 27.2376C128.378 20.1952 119.956 14.5202 110.603 10.6417C109.492 10.1813 108.966 8.90805 109.426 7.79783ZM2.2362 79.3321C3.43809 79.3336 4.41116 80.3092 4.40962 81.5111L4.40956 81.6119L4.40962 81.7128C4.41116 82.9147 3.43809 83.8902 2.2362 83.8918C1.03432 83.8933 0.0587407 82.9202 0.0571973 81.7184L0.0571289 81.6119L0.0571973 81.5055C0.0587407 80.3036 1.03432 79.3306 2.2362 79.3321ZM160.177 79.3321C161.378 79.3306 162.354 80.3036 162.356 81.5055L162.356 81.6119L162.356 81.7184C162.354 82.9202 161.378 83.8933 160.177 83.8918C158.975 83.8902 158.002 82.9147 158.003 81.7128L158.003 81.6119L158.003 81.5111C158.002 80.3092 158.975 79.3336 160.177 79.3321ZM7.39225 109.832C8.50247 109.371 9.77569 109.898 10.2361 111.008C14.1147 120.361 19.7896 128.784 26.832 135.845C26.8557 135.868 26.8788 135.893 26.9012 135.917C26.9258 135.94 26.95 135.963 26.9737 135.986C34.0344 143.029 42.457 148.704 51.81 152.582C52.9203 153.043 53.4471 154.316 52.9867 155.426C52.5263 156.536 51.253 157.063 50.1428 156.603C40.2562 152.503 31.3576 146.506 23.9001 139.068C23.875 139.043 23.8506 139.017 23.8269 138.991C23.801 138.968 23.7754 138.943 23.7504 138.918C16.3122 131.461 10.3155 122.562 6.21563 112.675C5.75524 111.565 6.28203 110.292 7.39225 109.832ZM155.02 109.832C156.131 110.292 156.657 111.565 156.197 112.675C152.097 122.562 146.101 131.461 138.662 138.918C138.637 138.943 138.612 138.968 138.586 138.991C138.562 139.017 138.538 139.043 138.513 139.068C131.055 146.506 122.157 152.503 112.27 156.603C111.16 157.063 109.886 156.536 109.426 155.426C108.966 154.316 109.492 153.043 110.603 152.582C119.956 148.704 128.378 143.029 135.439 135.986C135.463 135.963 135.487 135.939 135.512 135.917C135.534 135.893 135.557 135.868 135.581 135.845C142.623 128.784 148.298 120.361 152.177 111.008C152.637 109.898 153.91 109.371 155.02 109.832ZM78.9265 160.582C78.9281 159.38 79.9036 158.407 81.1055 158.409L81.2064 158.409L81.3072 158.409C82.5091 158.407 83.4846 159.38 83.4862 160.582C83.4877 161.784 82.5147 162.76 81.3128 162.761L81.2064 162.761L81.0999 162.761C79.898 162.76 78.925 161.784 78.9265 160.582Z" fill="white"/>
</svg>
