<svg width="28" height="9" viewBox="0 0 28 9" fill="none" xmlns="http://www.w3.org/2000/svg">
<path d="M5.49707 4.17505C5.22093 4.17505 4.99707 4.39891 4.99707 4.67505C4.99707 4.95119 5.22093 5.17505 5.49707 5.17505L5.49707 4.17505ZM27.8506 5.0286C28.0459 4.83334 28.0459 4.51676 27.8506 4.3215L24.6686 1.13951C24.4734 0.944253 24.1568 0.944253 23.9615 1.13951C23.7663 1.33478 23.7663 1.65136 23.9615 1.84662L26.79 4.67505L23.9615 7.50348C23.7663 7.69874 23.7663 8.01532 23.9615 8.21058C24.1568 8.40584 24.4734 8.40584 24.6686 8.21058L27.8506 5.0286ZM5.49707 5.17505L27.4971 5.17505L27.4971 4.17505L5.49707 4.17505L5.49707 5.17505Z" fill="#241A59"/>
<circle cx="1.49707" cy="4.67505" r="1" transform="rotate(90 1.49707 4.67505)" fill="#40B5E7"/>
</svg>
