<svg width="22" height="23" viewBox="0 0 22 23" fill="none" xmlns="http://www.w3.org/2000/svg">
<path d="M1.09371 21C0.955429 21 0.839143 20.9529 0.744857 20.8586C0.656857 20.7643 0.612857 20.6511 0.612857 20.5191C0.612857 20.3809 0.656857 20.2677 0.744857 20.1797L3.42257 17.0494C3.61114 16.8294 3.75571 16.622 3.85629 16.4271C3.96314 16.2323 4.01657 16.0469 4.01657 15.8709C4.01657 15.4623 3.90971 15.1354 3.696 14.8903C3.48857 14.6451 3.20257 14.5226 2.838 14.5226C2.59914 14.5226 2.38229 14.5854 2.18743 14.7111C1.99886 14.8306 1.848 14.994 1.73486 15.2014C1.628 15.4026 1.57457 15.6257 1.57457 15.8709C1.57457 15.9966 1.52743 16.1066 1.43314 16.2009C1.34514 16.2951 1.232 16.3423 1.09371 16.3423C0.961714 16.3423 0.848572 16.2951 0.754286 16.2009C0.66 16.1066 0.612857 15.9966 0.612857 15.8709C0.612857 15.4434 0.710286 15.0631 0.905143 14.73C1.1 14.3906 1.364 14.1234 1.69714 13.9286C2.03657 13.7337 2.41686 13.6363 2.838 13.6363C3.26543 13.6363 3.63629 13.7274 3.95057 13.9097C4.26486 14.092 4.50686 14.3497 4.67657 14.6829C4.85257 15.016 4.94057 15.412 4.94057 15.8709C4.94057 16.072 4.89657 16.2763 4.80857 16.4837C4.72686 16.6911 4.62 16.8891 4.488 17.0777C4.36229 17.2663 4.23343 17.436 4.10143 17.5869L1.94229 20.0383H4.58229C4.72057 20.0383 4.83686 20.0886 4.93114 20.1891C5.02543 20.2834 5.07257 20.3934 5.07257 20.5191C5.07257 20.6511 5.02543 20.7643 4.93114 20.8586C4.83686 20.9529 4.72057 21 4.58229 21H1.09371ZM9.80468 21C9.67897 21 9.57211 20.9529 9.48411 20.8586C9.39611 20.7643 9.35211 20.6511 9.35211 20.5191V19.3311H6.2124C6.06783 19.3311 5.95468 19.2871 5.87297 19.1991C5.79125 19.1111 5.74411 19.0106 5.73154 18.8974C5.72525 18.778 5.75668 18.6711 5.82583 18.5769L9.43697 13.8437C9.48725 13.7809 9.54383 13.7306 9.60668 13.6929C9.67583 13.6551 9.75125 13.6363 9.83297 13.6363C9.96497 13.6363 10.0718 13.6834 10.1535 13.7777C10.2353 13.872 10.2761 13.9883 10.2761 14.1266V18.4637H10.8418C10.9738 18.4637 11.087 18.4951 11.1813 18.558C11.2755 18.6209 11.3227 18.734 11.3227 18.8974C11.3227 19.0169 11.2755 19.1206 11.1813 19.2086C11.087 19.2903 10.9738 19.3311 10.8418 19.3311H10.2761V20.5191C10.2761 20.6511 10.2321 20.7643 10.1441 20.8586C10.0561 20.9529 9.94297 21 9.80468 21ZM9.35211 18.4637V15.3429L6.97611 18.4637H9.35211ZM12.5326 21.6977C12.3566 21.6977 12.2214 21.6254 12.1271 21.4809C12.0391 21.3426 12.0297 21.1886 12.0988 21.0189L14.9368 13.9191C14.9746 13.8311 15.0343 13.762 15.116 13.7117C15.1977 13.6614 15.2857 13.6363 15.38 13.6363C15.5434 13.6363 15.6723 13.7054 15.7666 13.8437C15.8671 13.9757 15.8828 14.1329 15.8137 14.3151L12.9757 21.4149C12.938 21.5154 12.8751 21.5877 12.7871 21.6317C12.7054 21.6757 12.6206 21.6977 12.5326 21.6977ZM17.4708 21C17.3451 21 17.2351 20.9529 17.1408 20.8586C17.0465 20.7643 16.9993 20.6511 16.9993 20.5191C16.9993 20.4311 17.0276 20.3306 17.0842 20.2174L19.7902 14.598H16.9239C16.7856 14.598 16.6693 14.554 16.5751 14.466C16.4871 14.3717 16.4431 14.2554 16.4431 14.1171C16.4431 13.9789 16.4871 13.8657 16.5751 13.7777C16.6693 13.6834 16.7856 13.6363 16.9239 13.6363H20.5162C20.6482 13.6363 20.7613 13.6834 20.8556 13.7777C20.9499 13.872 20.9971 13.9851 20.9971 14.1171C20.9971 14.1611 20.9908 14.2051 20.9782 14.2491C20.9656 14.2869 20.9499 14.3277 20.9311 14.3717L17.9139 20.736C17.8133 20.912 17.6656 21 17.4708 21Z" fill="#40B5E7"/>
<g clip-path="url(#clip0)">
<circle cx="9.45628" cy="6.45641" r="5.24583" stroke="#40B5E7" stroke-width="0.903898"/>
<path d="M9.45654 3.63174V6.45642H11.0706" stroke="#40B5E7" stroke-width="0.903898" stroke-linecap="round" stroke-linejoin="round"/>
</g>
<defs>
<clipPath id="clip0">
<rect width="12.9128" height="12.9128" fill="white" transform="translate(3)"/>
</clipPath>
</defs>
</svg>
