<svg width="20" height="20" viewBox="0 0 20 20" fill="none" xmlns="http://www.w3.org/2000/svg">
<path d="M13.0519 12.4759L12.5597 13.2141C12.4615 13.3615 12.3316 13.4872 12.1603 13.5325C11.5995 13.6807 10.1104 13.7476 7.84343 11.4806C5.57643 9.21361 5.64334 7.72457 5.79155 7.1637C5.83679 6.99248 5.96253 6.86255 6.10989 6.76431L6.84816 6.27212C7.39782 5.90568 7.54635 5.16303 7.17991 4.61337L5.78556 2.52184C5.46571 2.04207 4.84911 1.85878 4.31912 2.08591L3.69013 2.35549C3.2123 2.56027 2.82253 2.92779 2.59004 3.39276C2.39581 3.78123 2.24526 4.19031 2.22487 4.62415C2.16058 5.99137 2.46038 9.35976 6.21233 13.1117C9.96428 16.8637 13.3327 17.1634 14.6999 17.0992C15.1337 17.0788 15.5428 16.9282 15.9313 16.734C16.3962 16.5015 16.7638 16.1117 16.9685 15.6339L17.2381 15.0049C17.4653 14.4749 17.282 13.8583 16.8022 13.5385L14.7107 12.1441C14.161 11.7777 13.4183 11.9262 13.0519 12.4759Z" fill="#40B5E7"/>
</svg>
