<svg width="41" height="28" viewBox="0 0 41 28" fill="none" xmlns="http://www.w3.org/2000/svg">
<path fill-rule="evenodd" clip-rule="evenodd" d="M29.6372 1.10264C29.7291 0.558053 30.245 0.191042 30.7896 0.282902L39.6643 1.77985C40.2088 1.87171 40.5759 2.38766 40.484 2.93225C40.3921 3.47684 39.8762 3.84385 39.3316 3.75199L32.7525 2.64225L33.1431 3.1588L34.6189 5.50558L35.9515 8.02084C35.9995 8.07999 36.0415 8.1456 36.076 8.2172L36.0804 8.22618C36.3203 8.72364 36.1115 9.32139 35.614 9.56128C35.1638 9.77839 34.6315 9.62801 34.3566 9.22875L34.3528 9.2314L34.324 9.17834C34.3082 9.15201 34.2933 9.12472 34.2797 9.0965L32.9577 6.65881L31.4752 4.27076C31.4612 4.25248 31.4477 4.2336 31.4349 4.21412L31.4296 4.20621C31.4058 4.17012 31.3844 4.1327 31.3656 4.09424L31.3205 4.02169L31.227 3.70237L30.1124 10.3099C30.0206 10.8545 29.5046 11.2215 28.96 11.1297C28.4154 11.0378 28.0484 10.5219 28.1403 9.97728L29.6372 1.10264ZM35.9593 10.3774C36.4863 10.2119 37.0475 10.5049 37.213 11.0318L37.2161 11.0417C37.3813 11.5687 37.0879 12.1298 36.5609 12.2949C36.0338 12.4601 35.4727 12.1667 35.3076 11.6397L35.3049 11.631C35.1394 11.1041 35.4324 10.5428 35.9593 10.3774ZM16.1487 12.6612C16.1683 13.2131 15.7366 13.6763 15.1847 13.6958L15.175 13.6962C14.6231 13.7163 14.1594 13.2852 14.1392 12.7333C14.1191 12.1814 14.5502 11.7176 15.1022 11.6975L15.1141 11.6971C15.666 11.6776 16.1292 12.1092 16.1487 12.6612ZM17.2834 12.7876C17.3796 12.2438 17.8985 11.881 18.4424 11.9772L18.4481 11.9782L18.4547 11.9794C18.9983 12.0769 19.36 12.5966 19.2625 13.1402C19.1651 13.6838 18.6454 14.0455 18.1017 13.948L18.0991 13.9476L18.0938 13.9466C17.55 13.8504 17.1871 13.3315 17.2834 12.7876ZM13.0028 12.955C13.3185 13.4081 13.2071 14.0314 12.754 14.3471L12.7479 14.3514C12.2957 14.6684 11.6721 14.5588 11.3551 14.1066C11.038 13.6543 11.1476 13.0307 11.5999 12.7137L11.6107 12.7062C12.0638 12.3904 12.6871 12.5018 13.0028 12.955ZM36.7499 13.1676C37.3019 13.1505 37.7633 13.5841 37.7804 14.1361L37.7808 14.1467C37.7972 14.6988 37.3631 15.1597 36.8111 15.1761C36.259 15.1926 35.7981 14.7585 35.7817 14.2064L35.7814 14.1982C35.7643 13.6461 36.1979 13.1847 36.7499 13.1676ZM19.974 13.7445C20.3436 13.3342 20.9759 13.3011 21.3862 13.6707L21.3939 13.6776C21.804 14.0475 21.8366 14.6798 21.4667 15.0899C21.0968 15.5 20.4645 15.5327 20.0544 15.1628L20.0478 15.1568C19.6374 14.7872 19.6043 14.1549 19.974 13.7445ZM10.8205 15.1642C11.3633 15.2662 11.7206 15.789 11.6185 16.3317L11.6169 16.3406C11.5157 16.8835 10.9935 17.2416 10.4506 17.1405C9.90767 17.0393 9.54955 16.5171 9.65073 15.9742L9.65298 15.9622C9.75503 15.4194 10.2778 15.0621 10.8205 15.1642ZM22.0604 15.7361C22.4661 15.3613 23.0987 15.3864 23.4735 15.792L23.4801 15.7991C23.8548 16.2048 23.8298 16.8374 23.4241 17.2122C23.0184 17.587 22.3858 17.5619 22.011 17.1562L22.0045 17.1492C21.6297 16.7436 21.6548 16.1109 22.0604 15.7361ZM36.6654 16.0735C37.1718 16.2941 37.4034 16.8834 37.1828 17.3897L37.1783 17.3999C36.9569 17.9059 36.3673 18.1366 35.8613 17.9152C35.3553 17.6938 35.1246 17.1042 35.346 16.5982L35.3492 16.5908C35.5698 16.0845 36.1591 15.8529 36.6654 16.0735ZM24.0119 17.8615C24.4034 17.4719 25.0365 17.4735 25.4261 17.865L25.4327 17.8716C25.8223 18.2629 25.821 18.8961 25.4296 19.2858C25.0382 19.6755 24.4051 19.6741 24.0154 19.2827L24.0084 19.2757C23.6188 18.8842 23.6204 18.251 24.0119 17.8615ZM35.3094 18.6307C35.691 19.0299 35.6767 19.6629 35.2775 20.0445L35.2698 20.0519C34.8702 20.4331 34.2372 20.4182 33.856 20.0186C33.4748 19.619 33.4897 18.986 33.8893 18.6048L33.8955 18.5988C34.2947 18.2172 34.9277 18.2314 35.3094 18.6307ZM26.0713 19.8853C26.3915 19.4353 27.0158 19.33 27.4658 19.6502L27.4729 19.6552C27.9232 19.9749 28.029 20.5992 27.7093 21.0495C27.3895 21.4998 26.7653 21.6056 26.315 21.2859L26.3065 21.2798C25.8564 20.9597 25.7512 20.3353 26.0713 19.8853ZM33.1242 20.533C33.4085 21.0065 33.2551 21.6208 32.7816 21.9051L32.7721 21.9108C32.2983 22.1945 31.6841 22.0404 31.4004 21.5666C31.1167 21.0928 31.2708 20.4787 31.7446 20.1949L31.7521 20.1905C32.2255 19.9061 32.8399 20.0595 33.1242 20.533ZM28.5064 21.4819C28.591 20.9361 29.102 20.5622 29.6478 20.6468L29.655 20.6479C30.201 20.7312 30.576 21.2413 30.4927 21.7873C30.4094 22.3333 29.8992 22.7083 29.3533 22.625L29.3415 22.6232C28.7958 22.5386 28.4219 22.0276 28.5064 21.4819ZM1.10443 23.5356C1.36154 23.0468 1.96621 22.859 2.455 23.1161L2.45986 23.1187C2.94868 23.3757 3.13655 23.9804 2.87949 24.4692C2.62243 24.958 2.01778 25.1459 1.52897 24.8888L1.52392 24.8862C1.03514 24.629 0.847323 24.0244 1.10443 23.5356ZM3.90217 24.9732C4.11923 24.4654 4.70688 24.2296 5.21472 24.4467L5.22347 24.4504C5.73139 24.6673 5.96733 25.2549 5.75046 25.7628C5.53359 26.2707 4.94603 26.5066 4.43811 26.2898L4.42868 26.2858C3.92084 26.0687 3.68511 25.481 3.90217 24.9732ZM11.0139 24.5798C11.5032 24.8358 11.6923 25.4401 11.4363 25.9294L11.4291 25.9431C11.1706 26.4311 10.5654 26.6172 10.0774 26.3587C9.58932 26.1002 9.40322 25.495 9.66172 25.007L9.66422 25.0022C9.92026 24.5129 10.5245 24.3237 11.0139 24.5798ZM6.80845 26.1588C6.90622 25.6153 7.42612 25.2539 7.96968 25.3516L7.97862 25.3533C8.52233 25.4502 8.88449 25.9696 8.78753 26.5133C8.69058 27.057 8.17122 27.4191 7.62751 27.3222L7.61564 27.3201C7.07208 27.2223 6.71069 26.7024 6.80845 26.1588ZM11.8503 22.3103C11.8084 21.7596 11.3281 21.3471 10.7774 21.389C10.2267 21.4309 9.81419 21.9112 9.85607 22.4619L9.85681 22.4718C9.89845 23.0225 10.3786 23.4352 10.9294 23.3936C11.4801 23.3519 11.8928 22.8717 11.8511 22.321L11.8503 22.3103ZM10.4812 18.2693C11.0319 18.2277 11.5121 18.6404 11.5538 19.1911L11.5546 19.2011C11.5964 19.7518 11.1839 20.2322 10.6332 20.274C10.0825 20.3159 9.60217 19.9034 9.56032 19.3527L9.5595 19.3419C9.51784 18.7912 9.93052 18.311 10.4812 18.2693Z" fill="white"/>
</svg>
