<svg width="20" height="20" viewBox="0 0 20 20" fill="none" xmlns="http://www.w3.org/2000/svg">
<rect x="0.416504" y="0.535034" width="19.0954" height="19.0954" rx="5.8755" fill="#E6F4FC"/>
<path d="M5.18092 12.2401C4.79902 12.2401 4.45383 12.152 4.14537 11.9757C3.8418 11.7946 3.59943 11.5498 3.41827 11.2413C3.24201 10.9328 3.15388 10.5852 3.15388 10.1984C3.15388 9.81159 3.23466 9.4664 3.39624 9.16284C3.56271 8.85437 3.78794 8.61201 4.07192 8.43574C4.35591 8.25458 4.67661 8.164 5.03404 8.164C5.32292 8.164 5.58976 8.2252 5.83457 8.34761C6.07939 8.46512 6.28503 8.6267 6.4515 8.83234V6.84936C6.4515 6.73674 6.48578 6.64616 6.55432 6.57762C6.62777 6.50907 6.71835 6.47479 6.82607 6.47479C6.93868 6.47479 7.02926 6.50907 7.09781 6.57762C7.16635 6.64616 7.20063 6.73674 7.20063 6.84936V10.1984C7.20063 10.5852 7.11005 10.9328 6.92889 11.2413C6.75262 11.5498 6.5127 11.7946 6.20914 11.9757C5.90557 12.152 5.56283 12.2401 5.18092 12.2401ZM5.18092 11.5791C5.43063 11.5791 5.65341 11.5204 5.84926 11.4029C6.04511 11.2805 6.19934 11.114 6.31196 10.9035C6.42457 10.6929 6.48088 10.4579 6.48088 10.1984C6.48088 9.934 6.42457 9.69898 6.31196 9.49333C6.19934 9.28769 6.04511 9.12611 5.84926 9.0086C5.65341 8.8862 5.43063 8.825 5.18092 8.825C4.93611 8.825 4.71333 8.8862 4.51259 9.0086C4.31674 9.12611 4.16006 9.28769 4.04255 9.49333C3.92993 9.69898 3.87362 9.934 3.87362 10.1984C3.87362 10.4579 3.92993 10.6929 4.04255 10.9035C4.16006 11.114 4.31674 11.2805 4.51259 11.4029C4.71333 11.5204 4.93611 11.5791 5.18092 11.5791ZM10.3449 12.2401C9.94834 12.2401 9.59826 12.1544 9.29469 11.9831C8.99113 11.8068 8.75121 11.5669 8.57495 11.2633C8.40358 10.9549 8.31789 10.6023 8.31789 10.2057C8.31789 9.80425 8.40358 9.45172 8.57495 9.14815C8.75121 8.83968 8.99113 8.59977 9.29469 8.4284C9.59826 8.25213 9.94834 8.164 10.3449 8.164C10.7366 8.164 11.0843 8.25213 11.3878 8.4284C11.6914 8.59977 11.9289 8.83968 12.1002 9.14815C12.2765 9.45172 12.3646 9.80425 12.3646 10.2057C12.3646 10.6023 12.279 10.9549 12.1076 11.2633C11.9362 11.5669 11.6988 11.8068 11.3952 11.9831C11.0916 12.1544 10.7415 12.2401 10.3449 12.2401ZM10.3449 11.5791C10.5995 11.5791 10.8248 11.5204 11.0206 11.4029C11.2165 11.2854 11.3683 11.1238 11.476 10.9181C11.5886 10.7125 11.6449 10.475 11.6449 10.2057C11.6449 9.93644 11.5886 9.69898 11.476 9.49333C11.3683 9.2828 11.2165 9.11877 11.0206 9.00126C10.8248 8.88375 10.5995 8.825 10.3449 8.825C10.0903 8.825 9.86511 8.88375 9.66926 9.00126C9.47341 9.11877 9.31918 9.2828 9.20656 9.49333C9.09395 9.69898 9.03764 9.93644 9.03764 10.2057C9.03764 10.475 9.09395 10.7125 9.20656 10.9181C9.31918 11.1238 9.47341 11.2854 9.66926 11.4029C9.86511 11.5204 10.0903 11.5791 10.3449 11.5791ZM15.301 12.2401C14.9093 12.2401 14.5592 12.152 14.2507 11.9757C13.9471 11.7946 13.7072 11.5522 13.531 11.2486C13.3596 10.9402 13.2739 10.5925 13.2739 10.2057C13.2739 9.80914 13.3596 9.45661 13.531 9.14815C13.7023 8.83968 13.9374 8.59977 14.236 8.4284C14.5347 8.25213 14.8774 8.164 15.2642 8.164C15.842 8.164 16.3218 8.38433 16.7037 8.825C16.7723 8.90334 16.7968 8.98412 16.7772 9.06736C16.7576 9.1506 16.7037 9.22404 16.6156 9.28769C16.5471 9.33665 16.4712 9.35379 16.3879 9.3391C16.3047 9.31952 16.2288 9.27545 16.1603 9.2069C15.9203 8.9523 15.6217 8.825 15.2642 8.825C14.8872 8.825 14.5812 8.9523 14.3462 9.2069C14.1112 9.45661 13.9937 9.78956 13.9937 10.2057C13.9937 10.4701 14.0475 10.7052 14.1552 10.9108C14.2679 11.1164 14.4221 11.2805 14.6179 11.4029C14.8138 11.5204 15.0415 11.5791 15.301 11.5791C15.6339 11.5791 15.9032 11.4935 16.1088 11.3221C16.1872 11.2584 16.268 11.2242 16.3512 11.2193C16.4344 11.2095 16.5079 11.2315 16.5715 11.2854C16.6548 11.3539 16.7013 11.4323 16.7111 11.5204C16.7209 11.6036 16.6915 11.6795 16.623 11.7481C16.2704 12.0761 15.8298 12.2401 15.301 12.2401Z" fill="#57B6ED"/>
</svg>
