<svg width="375" height="118" viewBox="0 0 375 118" fill="none" xmlns="http://www.w3.org/2000/svg">
<path d="M189.655 50.6823C189.446 50.7345 189.261 50.7126 189.101 50.6164C188.956 50.529 188.857 50.3805 188.804 50.1709L186.749 41.9273C186.534 41.0162 186.547 40.1474 186.786 39.321C187.034 38.4801 187.466 37.76 188.084 37.1609C188.713 36.5588 189.481 36.1446 190.39 35.9181C191.321 35.6859 192.207 35.6937 193.048 35.9417C193.886 36.178 194.606 36.6106 195.208 37.2397C195.822 37.8658 196.245 38.6446 196.477 39.5761C196.707 40.4959 196.703 41.3749 196.467 42.2129C196.242 43.0481 195.829 43.7696 195.226 44.3775C194.62 44.9737 193.869 45.3836 192.972 45.6072C192.192 45.8017 191.441 45.8157 190.72 45.6494C190.007 45.4685 189.39 45.1523 188.869 44.7008L190.149 49.8356C190.202 50.0452 190.178 50.2242 190.079 50.3726C189.995 50.5297 189.853 50.6329 189.655 50.6823ZM192.51 44.4238C193.186 44.2554 193.752 43.9473 194.209 43.4993C194.666 43.0514 194.978 42.5161 195.144 41.8934C195.319 41.2561 195.321 40.594 195.15 39.907C194.976 39.2084 194.663 38.6247 194.212 38.1558C193.773 37.684 193.247 37.3577 192.633 37.1769C192.016 36.9844 191.37 36.9723 190.694 37.1407C190.031 37.3062 189.472 37.6187 189.017 38.0782C188.56 38.5262 188.248 39.0615 188.082 39.6842C187.916 40.3069 187.92 40.9676 188.094 41.6662C188.265 42.3532 188.572 42.9384 189.014 43.4218C189.453 43.8936 189.98 44.2199 190.594 44.4007C191.208 44.5816 191.847 44.5892 192.51 44.4238ZM204.657 42.6939C203.714 42.929 202.825 42.9343 201.99 42.7096C201.163 42.4705 200.449 42.0364 199.847 41.4073C199.257 40.7754 198.844 39.9878 198.609 39.0447C198.371 38.0899 198.354 37.2037 198.558 36.386C198.771 35.5538 199.169 34.8424 199.751 34.252C200.334 33.6615 201.073 33.2545 201.97 33.031C202.855 32.8104 203.674 32.8225 204.428 33.0675C205.19 33.2979 205.84 33.7233 206.378 34.3435C206.916 34.9638 207.298 35.728 207.525 36.6362C207.571 36.8225 207.551 36.9884 207.463 37.1339C207.373 37.2677 207.235 37.3578 207.048 37.4043L199.992 39.1635C200.219 39.7748 200.551 40.2858 200.987 40.6964C201.42 41.0955 201.928 41.3708 202.51 41.5225C203.089 41.6626 203.705 41.6514 204.357 41.4888C204.776 41.3843 205.178 41.2099 205.562 40.9657C205.955 40.7069 206.252 40.435 206.453 40.1499C206.555 40.0132 206.687 39.9245 206.85 39.8838C207.011 39.8315 207.16 39.8375 207.3 39.9016C207.486 40.0036 207.6 40.1361 207.64 40.2991C207.693 40.4592 207.663 40.6149 207.553 40.7661C207.25 41.188 206.829 41.5835 206.29 41.9528C205.749 42.3104 205.204 42.5575 204.657 42.6939ZM202.27 34.2361C201.374 34.4596 200.704 34.9234 200.261 35.6275C199.815 36.3199 199.645 37.123 199.749 38.037L206.141 36.4433C205.827 35.5816 205.323 34.9468 204.627 34.5389C203.941 34.1164 203.155 34.0155 202.27 34.2361ZM214.922 40.1347C214.025 40.3582 213.17 40.3489 212.355 40.1068C211.537 39.8531 210.827 39.4117 210.225 38.7827C209.635 38.1507 209.225 37.3748 208.996 36.455C208.764 35.5235 208.766 34.6388 209.002 33.8007C209.25 32.9597 209.688 32.2382 210.317 31.6362C210.943 31.0225 211.716 30.601 212.636 30.3716C213.556 30.1423 214.431 30.1531 215.26 30.4039C216.098 30.6402 216.818 31.0728 217.42 31.7019C218.034 32.328 218.463 33.1054 218.706 34.0339L219.73 38.1383C219.779 38.3362 219.756 38.5152 219.66 38.6752C219.561 38.8236 219.412 38.9225 219.214 38.9718C219.016 39.0212 218.839 39.0036 218.682 38.9191C218.522 38.8229 218.417 38.6759 218.367 38.4779L218.102 37.4126C217.845 38.0702 217.443 38.6403 216.896 39.1231C216.348 39.6059 215.69 39.9431 214.922 40.1347ZM214.757 38.8773C215.432 38.7089 215.993 38.4022 216.438 37.9572C216.895 37.5093 217.207 36.974 217.373 36.3512C217.549 35.714 217.55 35.0518 217.379 34.3649C217.205 33.6663 216.892 33.0825 216.442 32.6137C216.002 32.1419 215.476 31.8156 214.862 31.6347C214.257 31.4393 213.616 31.4258 212.941 31.5942C212.277 31.7597 211.718 32.0722 211.264 32.5317C210.807 32.9797 210.489 33.5164 210.311 34.1421C210.133 34.7677 210.131 35.4298 210.306 36.1284C210.477 36.8154 210.789 37.3991 211.243 37.8796C211.694 38.3485 212.226 38.6734 212.84 38.8542C213.454 39.0351 214.093 39.0427 214.757 38.8773ZM223.692 27.708C223.995 27.6325 224.254 27.7287 224.469 27.9966L230.314 35.2954C230.436 35.4381 230.481 35.5938 230.449 35.7626C230.426 35.9168 230.343 36.055 230.2 36.1772C229.848 36.4505 229.532 36.4241 229.253 36.098L224.245 29.7035L222.734 37.7047C222.696 37.8997 222.597 38.0481 222.437 38.1498C222.285 38.237 222.112 38.2617 221.917 38.2237C221.734 38.1828 221.59 38.1013 221.485 37.979C221.389 37.8421 221.356 37.6835 221.385 37.503L223.176 28.3189C223.241 27.9813 223.412 27.7777 223.692 27.708ZM236.961 34.6584C236.135 34.8645 235.353 34.88 234.617 34.7049C233.878 34.5182 233.234 34.1408 232.684 33.573C232.146 33.0022 231.758 32.2394 231.52 31.2846L230.387 26.7436C230.341 26.5573 230.366 26.3842 230.462 26.2241C230.558 26.0641 230.699 25.9609 230.886 25.9145C231.084 25.8651 231.263 25.8885 231.423 25.9847C231.583 26.0808 231.686 26.222 231.732 26.4083L232.864 30.9493C233.132 32.0205 233.627 32.7441 234.352 33.12C235.076 33.4959 235.887 33.5721 236.783 33.3486C237.354 33.2063 237.839 32.968 238.238 32.6335C238.648 32.2962 238.939 31.902 239.111 31.451C239.283 31 239.308 30.53 239.187 30.041L237.898 24.8712C237.848 24.6733 237.867 24.5016 237.955 24.3561C238.051 24.1961 238.198 24.0914 238.396 24.0421C238.594 23.9927 238.773 24.0161 238.933 24.1122C239.09 24.1968 239.193 24.338 239.242 24.5359L241.289 32.7446C241.341 32.9542 241.319 33.139 241.223 33.299C241.124 33.4474 240.976 33.5463 240.778 33.5956C240.58 33.645 240.402 33.6274 240.245 33.5429C240.097 33.4438 239.996 33.2895 239.944 33.0799L239.796 32.4861C239.519 33.0127 239.138 33.4665 238.651 33.8474C238.165 34.2284 237.602 34.4987 236.961 34.6584ZM247.659 32.0469C246.902 32.2356 246.15 32.2686 245.402 32.1459C244.651 32.0115 244.052 31.7652 243.604 31.4069C243.45 31.2846 243.362 31.1332 243.342 30.9527C243.334 30.7694 243.403 30.6035 243.552 30.4552C243.66 30.3417 243.807 30.2865 243.993 30.2896C244.188 30.2781 244.36 30.3218 244.508 30.4209C244.875 30.651 245.304 30.8099 245.796 30.8975C246.287 30.9852 246.801 30.9622 247.337 30.8287C248.035 30.6545 248.564 30.3682 248.922 29.9697C249.292 29.5683 249.41 29.0998 249.277 28.5642C249.16 28.0984 248.889 27.7519 248.461 27.5246C248.045 27.2944 247.578 27.2316 247.06 27.336L246.169 27.5581C245.948 27.6132 245.754 27.6058 245.588 27.5359C245.42 27.4543 245.315 27.332 245.274 27.169C245.234 27.0059 245.27 26.8546 245.384 26.715C245.497 26.5754 245.665 26.478 245.886 26.4228L246.777 26.2007C247.205 26.0817 247.518 25.8491 247.716 25.5028C247.914 25.1566 247.962 24.7798 247.86 24.3722C247.756 23.9531 247.484 23.656 247.045 23.4811C246.617 23.3033 246.095 23.2913 245.477 23.4452C244.907 23.5874 244.453 23.7996 244.115 24.0817C243.777 24.3638 243.528 24.6794 243.368 25.0286C243.275 25.2002 243.145 25.3253 242.979 25.4038C242.822 25.4677 242.656 25.472 242.481 25.4165C242.31 25.3728 242.19 25.2665 242.124 25.0976C242.068 24.9259 242.08 24.7498 242.159 24.5694C242.424 24.0457 242.806 23.5672 243.304 23.1338C243.813 22.6976 244.429 22.3895 245.151 22.2095C245.803 22.0469 246.408 22.0197 246.967 22.1277C247.534 22.2212 248.013 22.4296 248.403 22.7529C248.79 23.0646 249.043 23.4591 249.162 23.9365C249.284 24.4255 249.234 24.8955 249.012 25.3465C248.8 25.7829 248.469 26.1436 248.021 26.4286C248.644 26.3969 249.195 26.5501 249.675 26.888C250.155 27.2259 250.468 27.686 250.613 28.2682C250.749 28.8154 250.708 29.3451 250.489 29.8572C250.282 30.3664 249.931 30.8187 249.436 31.2142C248.95 31.5952 248.358 31.8727 247.659 32.0469ZM257.801 29.4442C256.904 29.6677 256.049 29.6584 255.234 29.4164C254.416 29.1626 253.706 28.7212 253.104 28.0922C252.514 27.4603 252.104 26.6844 251.875 25.7645C251.642 24.833 251.644 23.9483 251.881 23.1102C252.129 22.2693 252.567 21.5478 253.196 20.9457C253.822 20.332 254.595 19.9105 255.515 19.6812C256.435 19.4518 257.309 19.4626 258.139 19.7134C258.977 19.9497 259.697 20.3823 260.299 21.0114C260.913 21.6375 261.341 22.4149 261.585 23.3435L262.609 27.4478C262.658 27.6458 262.635 27.8247 262.538 27.9847C262.439 28.1331 262.291 28.232 262.093 28.2813C261.895 28.3307 261.717 28.3131 261.56 28.2286C261.4 28.1324 261.296 27.9854 261.246 27.7875L260.981 26.7221C260.724 27.3797 260.322 27.9499 259.775 28.4326C259.227 28.9154 258.569 29.2526 257.801 29.4442ZM257.636 28.1868C258.311 28.0184 258.871 27.7117 259.317 27.2667C259.774 26.8188 260.086 26.2835 260.252 25.6608C260.427 25.0235 260.429 24.3614 260.258 23.6744C260.084 22.9758 259.771 22.392 259.32 21.9232C258.881 21.4514 258.355 21.1251 257.741 20.9442C257.135 20.7489 256.495 20.7354 255.82 20.9037C255.156 21.0692 254.597 21.3817 254.143 21.8413C253.686 22.2892 253.368 22.8259 253.19 23.4516C253.012 24.0772 253.01 24.7393 253.184 25.4379C253.356 26.1249 253.668 26.7087 254.122 27.1892C254.573 27.658 255.105 27.9829 255.719 28.1637C256.333 28.3446 256.972 28.3523 257.636 28.1868ZM269.573 26.5278C268.723 26.7397 267.925 26.7407 267.18 26.5307C266.432 26.309 265.788 25.9069 265.247 25.3245C264.718 24.7392 264.346 24.0157 264.131 23.1541L262.999 18.6131C262.949 18.4151 262.968 18.2434 263.056 18.098C263.152 17.9379 263.299 17.8333 263.497 17.7839C263.695 17.7346 263.874 17.758 264.034 17.8541C264.191 17.9386 264.294 18.0798 264.343 18.2778L265.476 22.8188C265.629 23.4359 265.9 23.9497 266.287 24.3604C266.673 24.771 267.135 25.0579 267.67 25.2213C268.202 25.373 268.777 25.3719 269.394 25.218C269.988 25.07 270.486 24.8345 270.888 24.5117C271.287 24.1773 271.566 23.786 271.727 23.3379C271.899 22.8869 271.922 22.4111 271.798 21.9104L270.509 16.7407C270.459 16.5427 270.478 16.371 270.566 16.2255C270.662 16.0655 270.809 15.9608 271.007 15.9115C271.205 15.8621 271.384 15.8855 271.544 15.9817C271.701 16.0662 271.804 16.2074 271.854 16.4054L273.778 24.1251L274.791 23.8725C275.001 23.8202 275.18 23.8436 275.328 23.9427C275.485 24.0272 275.59 24.1742 275.642 24.3838L276.339 27.1783C276.452 27.6324 276.299 27.9117 275.88 28.0162C275.682 28.0655 275.503 28.0421 275.343 27.946C275.198 27.8586 275.099 27.7101 275.046 27.5005L274.472 25.1951L274.035 25.3039C273.569 25.4201 273.205 25.3995 272.944 25.2421C272.693 25.0819 272.512 24.7747 272.399 24.3206L272.381 24.2508C272.136 24.8065 271.774 25.2865 271.293 25.6907C270.81 26.0833 270.236 26.3624 269.573 26.5278ZM281.887 23.4576C281.06 23.6637 280.279 23.6792 279.543 23.5041C278.803 23.3174 278.159 22.9401 277.609 22.3722C277.071 21.8014 276.683 21.0386 276.445 20.0838L275.313 15.5428C275.267 15.3565 275.291 15.1834 275.388 15.0234C275.484 14.8634 275.625 14.7601 275.811 14.7137C276.009 14.6643 276.188 14.6877 276.348 14.7839C276.508 14.88 276.611 15.0213 276.658 15.2076L277.79 19.7485C278.057 20.8198 278.553 21.5433 279.277 21.9192C280.002 22.2951 280.812 22.3713 281.709 22.1478C282.279 22.0056 282.764 21.7672 283.163 21.4328C283.574 21.0954 283.865 20.7012 284.037 20.2502C284.209 19.7992 284.234 19.3292 284.112 18.8402L282.823 13.6704C282.774 13.4725 282.793 13.3008 282.88 13.1553C282.976 12.9953 283.123 12.8906 283.321 12.8413C283.519 12.7919 283.698 12.8153 283.858 12.9115C284.015 12.996 284.119 13.1372 284.168 13.3351L286.215 21.5439C286.267 21.7534 286.245 21.9382 286.149 22.0983C286.05 22.2466 285.901 22.3455 285.703 22.3948C285.505 22.4442 285.328 22.4266 285.171 22.3421C285.022 22.2431 284.922 22.0887 284.87 21.8792L284.722 21.2853C284.445 21.8119 284.063 22.2657 283.577 22.6467C283.091 23.0276 282.527 23.2979 281.887 23.4576ZM289.253 21.3242C289.082 21.231 288.977 21.1087 288.939 20.9573C288.913 20.803 288.935 20.643 289.005 20.4771L290.417 17.361C289.765 17.3256 289.198 17.1084 288.715 16.7094C288.229 16.2987 287.901 15.7499 287.729 15.0629C287.578 14.4574 287.585 13.887 287.748 13.3516C287.92 12.8016 288.229 12.3289 288.674 11.9334C289.12 11.5378 289.675 11.2573 290.338 11.0919L293.447 10.3168C293.657 10.2645 293.836 10.2879 293.984 10.387C294.141 10.4715 294.246 10.6185 294.298 10.8281L296.345 19.0368C296.382 19.2377 296.353 19.4181 296.257 19.5781C296.17 19.7236 296.027 19.821 295.829 19.8703C295.643 19.9168 295.471 19.8977 295.314 19.8132C295.165 19.7142 295.065 19.5599 295.013 19.3503L294.36 16.7305L291.949 17.3314L290.231 21.0062C290.135 21.2156 289.981 21.3407 289.768 21.3813C289.571 21.4307 289.399 21.4116 289.253 21.3242ZM291.61 16.1917L294.072 15.5778L293.11 11.7179L290.647 12.3319C290.054 12.4799 289.602 12.778 289.293 13.226C288.982 13.6623 288.897 14.1658 289.039 14.7363C289.193 15.3534 289.512 15.7873 289.995 16.0379C290.477 16.2885 291.016 16.3398 291.61 16.1917Z" fill="#40B5E7"/>
<path d="M172.531 65.3653C172.435 65.6245 172.568 65.9118 172.828 66.007L177.052 67.5582C177.311 67.6534 177.598 67.5205 177.694 67.2612C177.789 67.002 177.656 66.7147 177.397 66.6195L173.642 65.2406L175.021 61.4858C175.116 61.2266 174.983 60.9393 174.724 60.8441C174.464 60.7489 174.177 60.8819 174.082 61.1411L172.531 65.3653ZM433.933 32.1789L434.07 31.6981L433.933 32.1789ZM1197.43 65.7855C1197.57 65.5457 1197.49 65.2403 1197.25 65.1034L1193.34 62.8724C1193.1 62.7355 1192.79 62.8189 1192.66 63.0587C1192.52 63.2986 1192.6 63.604 1192.84 63.7409L1196.32 65.724L1194.33 69.1978C1194.2 69.4376 1194.28 69.743 1194.52 69.8799C1194.76 70.0168 1195.07 69.9334 1195.2 69.6935L1197.43 65.7855ZM173.21 65.9914C197.2 54.8885 239.039 39.8901 286.545 31.0024C334.057 22.1137 387.19 19.3461 433.795 32.6596L434.07 31.6981C387.255 18.3245 333.948 21.1168 286.361 30.0194C238.77 38.923 196.852 53.9476 172.79 65.0839L173.21 65.9914ZM433.795 32.6596C492.172 49.3358 530.352 66.9855 566.248 79.5151C602.135 92.0417 635.628 99.4018 684.437 95.4117L684.355 94.415C635.717 98.3912 602.366 91.0634 566.577 78.5709C530.797 66.0814 492.469 48.3807 434.07 31.6981L433.795 32.6596ZM684.437 95.4117C733.245 91.4216 775.287 74.9628 811.982 59.901C830.338 52.3664 847.341 45.1879 863.204 40.0765C879.067 34.9654 893.747 31.9361 907.45 32.6781L907.504 31.6796C893.624 30.928 878.809 33.9978 862.898 39.1247C846.988 44.2512 829.939 51.4493 811.602 58.9759C774.91 74.0367 732.994 90.4388 684.355 94.415L684.437 95.4117ZM907.45 32.6781C921.166 33.4208 937.438 38.2214 956.353 44.4476C975.247 50.667 996.75 58.2988 1020.85 64.6519C1069.08 77.3625 1127.76 84.9702 1197.13 66.02L1196.87 65.0553C1127.72 83.9449 1069.22 76.3669 1021.11 63.685C997.043 57.3419 975.585 49.7257 956.666 43.4978C937.767 37.2767 921.372 32.4306 907.504 31.6796L907.45 32.6781Z" fill="#40B5E7"/>
<path d="M98.8228 108.463C97.9813 108.597 97.2015 108.544 96.4833 108.305C95.7632 108.055 95.1541 107.623 94.6559 107.01C94.1695 106.394 93.8493 105.601 93.6952 104.629L92.9625 100.006C92.9325 99.8167 92.9723 99.6464 93.082 99.4954C93.1917 99.3443 93.3414 99.2538 93.531 99.2237C93.7325 99.1918 93.9087 99.2306 94.0598 99.3404C94.2108 99.4501 94.3014 99.5997 94.3314 99.7894L95.0641 104.412C95.237 105.502 95.6679 106.266 96.3569 106.704C97.0459 107.141 97.8467 107.287 98.7593 107.143C99.3401 107.051 99.8437 106.855 100.27 106.557C100.709 106.257 101.033 105.889 101.244 105.455C101.454 105.021 101.52 104.555 101.441 104.057L100.607 98.7946C100.575 98.5931 100.609 98.4237 100.709 98.2864C100.818 98.1353 100.974 98.0438 101.176 98.0119C101.377 97.98 101.553 98.0188 101.704 98.1285C101.853 98.2264 101.944 98.3761 101.976 98.5776L103.301 106.933C103.334 107.147 103.296 107.329 103.187 107.48C103.075 107.619 102.919 107.705 102.717 107.736C102.516 107.768 102.34 107.735 102.191 107.638C102.052 107.526 101.965 107.364 101.932 107.15L101.836 106.546C101.514 107.046 101.095 107.465 100.577 107.802C100.059 108.14 99.4747 108.36 98.8228 108.463ZM110.905 106.53C109.968 106.678 109.106 106.602 108.317 106.302C107.527 105.99 106.865 105.493 106.332 104.813C105.81 104.13 105.473 103.308 105.321 102.348C105.167 101.376 105.244 100.483 105.553 99.669C105.861 98.8547 106.356 98.181 107.036 97.6478C107.715 97.1028 108.529 96.7551 109.477 96.6048C110.437 96.4526 111.319 96.5316 112.121 96.8418C112.933 97.1383 113.606 97.627 114.139 98.3079C114.684 98.9869 115.04 99.8114 115.206 100.781L115.781 104.408C115.933 105.368 115.856 106.261 115.549 107.087C115.245 107.925 114.76 108.622 114.095 109.177C113.431 109.744 112.625 110.102 111.677 110.253C110.741 110.401 109.889 110.354 109.121 110.111C108.356 109.88 107.694 109.499 107.136 108.968C106.983 108.846 106.899 108.702 106.885 108.534C106.882 108.364 106.95 108.214 107.087 108.083C107.224 107.952 107.39 107.889 107.585 107.894C107.781 107.9 107.943 107.965 108.072 108.09C108.484 108.463 108.977 108.737 109.551 108.913C110.138 109.087 110.787 109.118 111.498 109.005C112.161 108.9 112.735 108.645 113.217 108.241C113.7 107.836 114.049 107.319 114.265 106.69C114.493 106.058 114.545 105.351 114.421 104.569L114.292 103.751C114.043 104.483 113.624 105.096 113.034 105.591C112.456 106.083 111.746 106.396 110.905 106.53ZM110.85 105.263C111.549 105.152 112.141 104.9 112.625 104.507C113.12 104.101 113.477 103.595 113.697 102.989C113.917 102.383 113.969 101.719 113.855 100.996C113.74 100.273 113.485 99.657 113.088 99.1488C112.69 98.6288 112.194 98.2579 111.6 98.0362C111.015 97.8007 110.374 97.7384 109.675 97.8493C108.975 97.9601 108.378 98.2187 107.884 98.6252C107.388 99.0197 107.03 99.5259 106.812 100.144C106.593 100.75 106.54 101.414 106.655 102.137C106.769 102.86 107.025 103.476 107.421 103.984C107.818 104.492 108.314 104.863 108.91 105.096C109.504 105.318 110.15 105.374 110.85 105.263ZM123.061 104.603C122.101 104.755 121.214 104.683 120.402 104.386C119.599 104.076 118.926 103.582 118.381 102.902C117.848 102.222 117.505 101.401 117.353 100.441C117.199 99.4692 117.259 98.5849 117.534 97.7881C117.818 96.9775 118.276 96.3035 118.908 95.766C119.54 95.2284 120.312 94.8873 121.224 94.7427C122.125 94.5999 122.94 94.6833 123.67 94.9929C124.409 95.2888 125.02 95.7691 125.502 96.4338C125.984 97.0986 126.298 97.8931 126.445 98.8176C126.475 99.0072 126.44 99.1707 126.34 99.308C126.238 99.4335 126.093 99.5112 125.903 99.5413L118.721 100.68C118.893 101.309 119.179 101.846 119.578 102.294C119.975 102.729 120.457 103.047 121.024 103.249C121.588 103.439 122.202 103.481 122.866 103.376C123.293 103.308 123.708 103.17 124.112 102.96C124.526 102.736 124.846 102.491 125.071 102.225C125.185 102.097 125.324 102.021 125.49 101.994C125.654 101.956 125.803 101.975 125.937 102.051C126.113 102.169 126.215 102.311 126.241 102.477C126.279 102.641 126.236 102.793 126.113 102.934C125.775 103.328 125.321 103.686 124.752 104.007C124.181 104.316 123.618 104.514 123.061 104.603ZM121.419 95.9694C120.506 96.114 119.799 96.5178 119.296 97.1806C118.792 97.8316 118.552 98.6169 118.576 99.5364L125.083 98.505C124.845 97.6192 124.398 96.9429 123.741 96.4761C123.093 95.9955 122.319 95.8266 121.419 95.9694ZM133.806 102.918C132.964 103.051 132.185 102.998 131.466 102.76C130.746 102.51 130.137 102.078 129.639 101.464C129.153 100.849 128.832 100.055 128.678 99.0832L127.946 94.4609C127.916 94.2712 127.955 94.1009 128.065 93.9499C128.175 93.7988 128.324 93.7083 128.514 93.6782C128.716 93.6463 128.892 93.6852 129.043 93.7949C129.194 93.9046 129.284 94.0542 129.315 94.2439L130.047 98.8662C130.22 99.9565 130.651 100.72 131.34 101.158C132.029 101.596 132.83 101.742 133.742 101.597C134.323 101.505 134.827 101.31 135.253 101.012C135.692 100.711 136.016 100.344 136.227 99.9095C136.437 99.4752 136.503 99.0091 136.424 98.5114L135.59 93.2491C135.558 93.0476 135.592 92.8782 135.692 92.7409C135.802 92.5898 135.957 92.4983 136.159 92.4664C136.36 92.4345 136.536 92.4734 136.687 92.5831C136.837 92.6809 136.927 92.8306 136.959 93.0321L138.284 101.388C138.317 101.601 138.28 101.783 138.17 101.934C138.058 102.073 137.902 102.159 137.7 102.191C137.499 102.223 137.323 102.19 137.174 102.092C137.035 101.981 136.949 101.818 136.915 101.605L136.819 101C136.497 101.501 136.078 101.92 135.56 102.257C135.043 102.594 134.458 102.814 133.806 102.918Z" fill="#241A59"/>
<path d="M-876.62 76.7501L-872.788 78.1574L-871.38 74.3252L-875.212 72.9179L-876.62 76.7501ZM-613.067 42.1789L-612.93 41.6981L-613.067 42.1789ZM-139.523 42.1789L-139.496 41.6796L-139.523 42.1789ZM150.434 75.7855C150.571 75.5457 150.488 75.2403 150.248 75.1034L146.34 72.8724C146.1 72.7355 145.795 72.8189 145.658 73.0587C145.521 73.2986 145.604 73.604 145.844 73.7409L149.318 75.724L147.335 79.1978C147.198 79.4376 147.281 79.743 147.521 79.8799C147.761 80.0168 148.066 79.9334 148.203 79.6935L150.434 75.7855ZM-869.106 73.8753C-868.853 73.7638 -868.739 73.4686 -868.85 73.216C-868.962 72.9634 -869.257 72.849 -869.51 72.9605L-869.106 73.8753ZM-860.04 68.9491C-860.296 69.0533 -860.419 69.3451 -860.314 69.6008C-860.21 69.8565 -859.918 69.9794 -859.663 69.8753L-860.04 68.9491ZM-850.098 66.1161C-849.839 66.0182 -849.71 65.7295 -849.808 65.4713C-849.905 65.2131 -850.194 65.0832 -850.452 65.1812L-850.098 66.1161ZM-840.746 61.6191C-841.007 61.7114 -841.143 61.9973 -841.05 62.2575C-840.958 62.5177 -840.672 62.6538 -840.412 62.5614L-840.746 61.6191ZM-830.699 59.2238C-830.437 59.1367 -830.296 58.8536 -830.383 58.5916C-830.47 58.3295 -830.753 58.1878 -831.015 58.2749L-830.699 59.2238ZM-821.199 55.1153C-821.462 55.1974 -821.61 55.4777 -821.528 55.7414C-821.445 56.005 -821.165 56.1522 -820.902 56.0701L-821.199 55.1153ZM-811.025 53.0976C-810.76 53.0206 -810.608 52.7431 -810.685 52.4779C-810.762 52.2128 -811.039 52.0603 -811.305 52.1374L-811.025 53.0976ZM-801.393 49.3564C-801.66 49.4285 -801.817 49.703 -801.745 49.9696C-801.673 50.2361 -801.399 50.3938 -801.132 50.3217L-801.393 49.3564ZM-791.178 47.7295C-790.911 47.6625 -790.748 47.391 -790.815 47.1231C-790.882 46.8552 -791.153 46.6924 -791.421 46.7595L-791.178 47.7295ZM-781.394 44.351C-781.663 44.4129 -781.831 44.6813 -781.77 44.9504C-781.708 45.2195 -781.439 45.3875 -781.17 45.3256L-781.394 44.351ZM-771.114 43.1159C-770.844 43.0593 -770.671 42.7944 -770.727 42.5241C-770.784 42.2538 -771.049 42.0806 -771.319 42.1372L-771.114 43.1159ZM-761.2 40.1249C-761.472 40.176 -761.65 40.4374 -761.599 40.7088C-761.548 40.9802 -761.287 41.1587 -761.015 41.1076L-761.2 40.1249ZM-750.884 39.3098C-750.612 39.2644 -750.428 39.0068 -750.473 38.7344C-750.519 38.462 -750.776 38.278 -751.049 38.3234L-750.884 39.3098ZM-740.863 36.7409C-741.136 36.7803 -741.326 37.0338 -741.287 37.3071C-741.247 37.5804 -740.994 37.7701 -740.72 37.7307L-740.863 36.7409ZM-730.522 36.3802C-730.248 36.3471 -730.052 36.0981 -730.085 35.8239C-730.119 35.5498 -730.368 35.3543 -730.642 35.3874L-730.522 36.3802ZM-720.39 34.2753C-720.664 34.3018 -720.866 34.546 -720.839 34.8209C-720.813 35.0958 -720.569 35.2972 -720.294 35.2708L-720.39 34.2753ZM-710.041 34.4162C-709.766 34.3968 -709.558 34.1578 -709.578 33.8823C-709.597 33.6068 -709.836 33.3993 -710.112 33.4186L-710.041 34.4162ZM-699.814 32.8328C-700.09 32.8447 -700.304 33.078 -700.292 33.3539C-700.28 33.6298 -700.047 33.8438 -699.771 33.8319L-699.814 32.8328ZM-689.489 33.535C-689.213 33.531 -688.992 33.304 -688.996 33.0279C-689 32.7518 -689.227 32.5311 -689.503 32.5351L-689.489 33.535ZM-679.188 32.5444C-679.464 32.5399 -679.692 32.76 -679.696 33.0361C-679.701 33.3122 -679.48 33.5397 -679.204 33.5443L-679.188 32.5444ZM-668.927 33.8804C-668.651 33.894 -668.417 33.6815 -668.403 33.4057C-668.39 33.1299 -668.602 32.8953 -668.878 32.8817L-668.927 33.8804ZM-658.585 33.5694C-658.86 33.5461 -659.102 33.7503 -659.126 34.0254C-659.149 34.3006 -658.945 34.5425 -658.67 34.5659L-658.585 33.5694ZM-648.443 35.6252C-648.169 35.6589 -647.919 35.464 -647.886 35.1899C-647.852 34.9159 -648.047 34.6663 -648.321 34.6326L-648.443 35.6252ZM-638.104 36.0976C-638.376 36.0528 -638.634 36.2374 -638.678 36.5099C-638.723 36.7823 -638.539 37.0395 -638.266 37.0844L-638.104 36.0976ZM-628.162 38.9705C-627.892 39.0271 -627.627 38.854 -627.57 38.5837C-627.514 38.3134 -627.687 38.0484 -627.957 37.9917L-628.162 38.9705ZM-617.905 40.3433C-618.173 40.2741 -618.446 40.4346 -618.515 40.7019C-618.584 40.9693 -618.424 41.2421 -618.156 41.3114L-617.905 40.3433ZM-608.341 44.0648C-608.076 44.1422 -607.798 43.9901 -607.72 43.725C-607.643 43.46 -607.795 43.1823 -608.06 43.1049L-608.341 44.0648ZM-598.456 45.9724C-598.72 45.8918 -598.999 46.0406 -599.08 46.3048C-599.16 46.5689 -599.012 46.8483 -598.747 46.9289L-598.456 45.9724ZM-589.189 49.9064C-588.926 49.99 -588.644 49.8445 -588.561 49.5814C-588.477 49.3182 -588.622 49.037 -588.886 48.9534L-589.189 49.9064ZM-579.349 52.0471C-579.611 51.9604 -579.894 52.1026 -579.981 52.3648C-580.068 52.6269 -579.925 52.9098 -579.663 52.9965L-579.349 52.0471ZM-570.171 56.1964C-569.91 56.2861 -569.625 56.1471 -569.536 55.8859C-569.446 55.6247 -569.585 55.3403 -569.846 55.2506L-570.171 56.1964ZM-560.378 58.5581C-560.638 58.4657 -560.924 58.6018 -561.016 58.862C-561.108 59.1222 -560.972 59.4081 -560.712 59.5005L-560.378 58.5581ZM-551.287 62.8998C-551.028 62.9947 -550.741 62.8614 -550.646 62.6021C-550.551 62.3427 -550.684 62.0556 -550.944 61.9607L-551.287 62.8998ZM-541.544 65.4453C-541.803 65.3483 -542.091 65.4793 -542.188 65.7378C-542.285 65.9963 -542.154 66.2846 -541.895 66.3816L-541.544 65.4453ZM-532.535 69.9288C-532.277 70.0274 -531.988 69.8983 -531.889 69.6403C-531.79 69.3824 -531.92 69.0934 -532.178 68.9948L-532.535 69.9288ZM-522.839 72.5869C-523.097 72.4873 -523.386 72.6154 -523.486 72.873C-523.586 73.1306 -523.457 73.4201 -523.2 73.5196L-522.839 72.5869ZM-513.838 77.1442C-513.581 77.2439 -513.291 77.1159 -513.191 76.8584C-513.092 76.6009 -513.22 76.3113 -513.477 76.2116L-513.838 77.1442ZM-504.123 79.8187C-504.381 79.7199 -504.67 79.8488 -504.769 80.1066C-504.868 80.3645 -504.739 80.6536 -504.481 80.7525L-504.123 79.8187ZM-495.117 84.3032C-494.859 84.4 -494.571 84.2688 -494.474 84.0102C-494.377 83.7516 -494.508 83.4634 -494.767 83.3667L-495.117 84.3032ZM-485.361 86.8213C-485.621 86.7279 -485.907 86.8629 -486 87.1227C-486.094 87.3826 -485.959 87.669 -485.699 87.7624L-485.361 86.8213ZM-476.228 91.0702C-475.967 91.1587 -475.683 91.0184 -475.594 90.7568C-475.506 90.4952 -475.646 90.2114 -475.908 90.1229L-476.228 91.0702ZM-466.394 93.2162C-466.657 93.1342 -466.938 93.2814 -467.02 93.5451C-467.102 93.8088 -466.954 94.089 -466.691 94.1711L-466.394 93.2162ZM-457.063 97.012C-456.797 97.0861 -456.521 96.9304 -456.447 96.6644C-456.373 96.3983 -456.529 96.1227 -456.795 96.0486L-457.063 97.012ZM-447.112 98.5658C-447.38 98.5011 -447.65 98.6663 -447.715 98.9347C-447.78 99.2032 -447.615 99.4733 -447.346 99.538L-447.112 98.5658ZM-437.548 101.703C-437.278 101.757 -437.014 101.581 -436.96 101.311C-436.906 101.04 -437.081 100.776 -437.352 100.722L-437.548 101.703ZM-427.504 102.489C-427.777 102.446 -428.033 102.632 -428.076 102.905C-428.119 103.178 -427.933 103.434 -427.661 103.477L-427.504 102.489ZM-417.716 104.84C-417.441 104.871 -417.193 104.675 -417.162 104.4C-417.13 104.126 -417.326 103.878 -417.601 103.846L-417.716 104.84ZM-407.653 104.792C-407.928 104.771 -408.168 104.978 -408.189 105.253C-408.209 105.528 -408.003 105.768 -407.727 105.789L-407.653 104.792ZM-397.689 106.336C-397.413 106.346 -397.181 106.13 -397.171 105.854C-397.162 105.578 -397.378 105.346 -397.654 105.337L-397.689 106.336ZM-387.649 105.499C-387.925 105.5 -388.149 105.724 -388.148 106C-388.148 106.277 -387.923 106.5 -387.647 106.499L-387.649 105.499ZM-377.629 106.307C-377.353 106.297 -377.137 106.065 -377.147 105.789C-377.157 105.513 -377.389 105.297 -377.665 105.307L-377.629 106.307ZM-367.68 104.79C-367.956 104.809 -368.164 105.047 -368.146 105.323C-368.127 105.598 -367.889 105.806 -367.613 105.788L-367.68 104.79ZM-357.702 104.971C-357.428 104.944 -357.227 104.699 -357.254 104.424C-357.282 104.15 -357.527 103.949 -357.801 103.976L-357.702 104.971ZM-348.174 102.853C-348.448 102.889 -348.64 103.141 -348.603 103.414C-348.567 103.688 -348.315 103.88 -348.041 103.844L-348.174 102.853ZM-338.424 102.393C-338.152 102.347 -337.968 102.09 -338.014 101.817C-338.06 101.545 -338.317 101.361 -338.59 101.407L-338.424 102.393ZM-329.057 99.6536C-329.328 99.7078 -329.504 99.9713 -329.45 100.242C-329.395 100.513 -329.132 100.688 -328.861 100.634L-329.057 99.6536ZM-319.358 98.5838C-319.089 98.5216 -318.922 98.2531 -318.984 97.984C-319.046 97.715 -319.315 97.5473 -319.584 97.6095L-319.358 98.5838ZM-310.168 95.2914C-310.435 95.3611 -310.595 95.6343 -310.525 95.9015C-310.456 96.1687 -310.182 96.3288 -309.915 96.259L-310.168 95.2914ZM-300.534 93.6794C-300.268 93.6027 -300.115 93.3256 -300.192 93.0603C-300.269 92.795 -300.546 92.642 -300.811 92.7186L-300.534 93.6794ZM-291.522 89.9145C-291.786 89.9974 -291.932 90.2781 -291.849 90.5415C-291.766 90.8049 -291.485 90.9513 -291.222 90.8684L-291.522 89.9145ZM-281.98 87.8497C-281.718 87.7612 -281.578 87.4775 -281.666 87.2159C-281.755 86.9543 -282.038 86.814 -282.3 86.9024L-281.98 87.8497ZM-273.142 83.7071C-273.402 83.8005 -273.537 84.0868 -273.444 84.3467C-273.35 84.6066 -273.064 84.7416 -272.804 84.6483L-273.142 83.7071ZM-263.692 81.2907C-263.433 81.1933 -263.303 80.9048 -263.4 80.6464C-263.498 80.3881 -263.786 80.2576 -264.045 80.3551L-263.692 81.2907ZM-254.979 76.8657C-255.236 76.9664 -255.363 77.2565 -255.262 77.5136C-255.161 77.7707 -254.871 77.8975 -254.614 77.7967L-254.979 76.8657ZM-245.581 74.2031C-245.325 74.0998 -245.201 73.8085 -245.304 73.5524C-245.408 73.2963 -245.699 73.1723 -245.955 73.2756L-245.581 74.2031ZM-236.966 69.6189C-237.221 69.7236 -237.343 70.0156 -237.239 70.2711C-237.134 70.5266 -236.842 70.6489 -236.586 70.5442L-236.966 69.6189ZM-227.609 66.8532C-227.353 66.7481 -227.232 66.4559 -227.337 66.2005C-227.442 65.9451 -227.734 65.8234 -227.989 65.9285L-227.609 66.8532ZM-218.992 62.2372C-219.248 62.3415 -219.37 62.6333 -219.266 62.889C-219.162 63.1447 -218.87 63.2674 -218.614 63.1631L-218.992 62.2372ZM-209.618 59.5346C-209.361 59.4326 -209.236 59.1419 -209.338 58.8853C-209.44 58.6287 -209.731 58.5034 -209.987 58.6054L-209.618 59.5346ZM-200.927 55.0778C-201.185 55.1758 -201.315 55.4645 -201.217 55.7227C-201.119 55.9809 -200.83 56.1107 -200.572 56.0126L-200.927 55.0778ZM-191.465 52.6699C-191.204 52.578 -191.068 52.2925 -191.16 52.0321C-191.252 51.7716 -191.537 51.635 -191.798 51.7269L-191.465 52.6699ZM-182.573 48.6374C-182.837 48.7204 -182.983 49.0012 -182.9 49.2646C-182.817 49.5279 -182.536 49.6741 -182.273 49.5911L-182.573 48.6374ZM-172.976 46.885C-172.709 46.8143 -172.55 46.5406 -172.621 46.2737C-172.691 46.0067 -172.965 45.8476 -173.232 45.9183L-172.976 46.885ZM-163.736 43.705C-164.007 43.7588 -164.183 44.022 -164.129 44.2929C-164.075 44.5637 -163.812 44.7397 -163.541 44.6858L-163.736 43.705ZM-153.998 43.1769C-153.723 43.1455 -153.526 42.8977 -153.558 42.6233C-153.589 42.349 -153.837 42.152 -154.111 42.1833L-153.998 43.1769ZM-144.378 41.5696C-144.655 41.5719 -144.877 41.7975 -144.874 42.0737C-144.872 42.3498 -144.647 42.5718 -144.37 42.5696L-144.378 41.5696ZM-134.668 43.097C-134.394 43.1286 -134.146 42.9319 -134.114 42.6575C-134.082 42.3832 -134.279 42.1352 -134.553 42.1036L-134.668 43.097ZM-124.787 43.6945C-125.058 43.6392 -125.322 43.8137 -125.377 44.0843C-125.433 44.3548 -125.258 44.619 -124.988 44.6743L-124.787 43.6945ZM-115.397 46.9332C-115.13 47.0033 -114.857 46.8436 -114.787 46.5765C-114.717 46.3094 -114.876 46.036 -115.143 45.9659L-115.397 46.9332ZM-105.619 48.6555C-105.884 48.5763 -106.162 48.7266 -106.242 48.9911C-106.321 49.2557 -106.17 49.5343 -105.906 49.6135L-105.619 48.6555ZM-96.4779 52.5494C-96.215 52.6338 -95.9334 52.4892 -95.8489 52.2263C-95.7645 51.9634 -95.9091 51.6818 -96.1721 51.5973L-96.4779 52.5494ZM-86.7942 54.6688C-87.0563 54.5818 -87.3393 54.7236 -87.4263 54.9857C-87.5134 55.2478 -87.3715 55.5308 -87.1094 55.6178L-86.7942 54.6688ZM-77.7324 58.7509C-77.4705 58.8386 -77.1872 58.6974 -77.0995 58.4355C-77.0118 58.1737 -77.153 57.8903 -77.4149 57.8026L-77.7324 58.7509ZM-68.0255 60.933C-68.2876 60.8462 -68.5704 60.9884 -68.6572 61.2505C-68.744 61.5127 -68.6018 61.7955 -68.3397 61.8823L-68.0255 60.933ZM-58.9622 64.9479C-58.6994 65.0325 -58.4177 64.8881 -58.333 64.6252C-58.2484 64.3624 -58.3928 64.0807 -58.6557 63.996L-58.9622 64.9479ZM-49.2498 66.9668C-49.5136 66.8853 -49.7936 67.0331 -49.8751 67.2969C-49.9567 67.5607 -49.8089 67.8407 -49.545 67.9222L-49.2498 66.9668ZM-40.082 70.771C-39.817 70.8485 -39.5392 70.6965 -39.4617 70.4315C-39.3842 70.1665 -39.5362 69.8887 -39.8012 69.8112L-40.082 70.771ZM-30.306 72.4997C-30.5724 72.4269 -30.8473 72.5839 -30.9201 72.8502C-30.9929 73.1166 -30.836 73.3916 -30.5696 73.4644L-30.306 72.4997ZM-21.0057 75.9766C-20.738 76.044 -20.4662 75.8816 -20.3988 75.6138C-20.3314 75.346 -20.4938 75.0742 -20.7617 75.0068L-21.0057 75.9766ZM-11.1672 77.31C-11.4364 77.2486 -11.7045 77.4171 -11.7659 77.6863C-11.8273 77.9555 -11.6588 78.2236 -11.3896 78.285L-11.1672 77.31ZM-1.72211 80.3694C-1.45148 80.4243 -1.18756 80.2494 -1.13263 79.9788C-1.07776 79.7081 -1.25262 79.4443 -1.52325 79.3894L-1.72211 80.3694ZM8.16815 81.2271C7.89618 81.1792 7.6369 81.3608 7.58899 81.6328C7.54108 81.9047 7.72266 82.164 7.99463 82.212L8.16815 81.2271ZM17.7568 83.7969C18.03 83.8374 18.2842 83.6488 18.3248 83.3756C18.3653 83.1025 18.1767 82.8482 17.9036 82.8077L17.7568 83.7969ZM27.6783 84.1173C27.4041 84.0845 27.1553 84.2803 27.1225 84.5544C27.0897 84.8286 27.2855 85.0775 27.5596 85.1102L27.6783 84.1173ZM37.3971 86.1402C37.6721 86.1649 37.9151 85.9619 37.9398 85.6869C37.9645 85.4119 37.7615 85.1689 37.4865 85.1442L37.3971 86.1402ZM47.3217 85.8785C47.0461 85.8621 46.8093 86.0723 46.793 86.3479C46.7766 86.6236 46.9868 86.8603 47.2624 86.8767L47.3217 85.8785ZM57.1483 87.3117C57.4244 87.3195 57.6545 87.1022 57.6624 86.8261C57.6702 86.5501 57.4529 86.32 57.1768 86.3121L57.1483 87.3117ZM67.0445 86.4389C66.7683 86.4397 66.5451 86.6642 66.5459 86.9403C66.5467 87.2165 66.7712 87.4397 67.0473 87.4389L67.0445 86.4389ZM76.952 87.2538C77.228 87.2443 77.444 87.0129 77.4344 86.7369C77.4249 86.4609 77.1935 86.2449 76.9175 86.2544L76.952 87.2538ZM86.7563 85.7581C86.4808 85.7764 86.2723 86.0146 86.2905 86.2901C86.3088 86.5656 86.547 86.7742 86.8226 86.7559L86.7563 85.7581ZM96.6671 85.9454C96.9419 85.9183 97.1428 85.6737 97.1157 85.3988C97.0887 85.124 96.8441 84.9231 96.5692 84.9502L96.6671 85.9454ZM106.358 83.8313C106.084 83.867 105.891 84.1179 105.927 84.3917C105.963 84.6655 106.214 84.8586 106.487 84.8229L106.358 83.8313ZM116.278 83.3906C116.551 83.3464 116.736 83.0895 116.692 82.817C116.648 82.5444 116.391 82.3593 116.118 82.4035L116.278 83.3906ZM125.846 80.6695C125.575 80.7221 125.398 80.9846 125.45 81.2556C125.503 81.5267 125.765 81.7038 126.036 81.6511L125.846 80.6695ZM135.717 79.6175C135.986 79.5566 136.155 79.2889 136.094 79.0196C136.033 78.7502 135.766 78.5812 135.496 78.642L135.717 79.6175ZM145.057 76.3315C144.79 76.4003 144.629 76.6729 144.698 76.9403C144.767 77.2078 145.039 77.3688 145.307 77.2999L145.057 76.3315ZM-873.79 75.9914C-872.297 75.3004 -870.735 74.5942 -869.106 73.8753L-869.51 72.9605C-871.144 73.6817 -872.711 74.3903 -874.21 75.0839L-873.79 75.9914ZM-859.663 69.8753C-856.632 68.6409 -853.44 67.3844 -850.098 66.1161L-850.452 65.1812C-853.802 66.4522 -857.002 67.7117 -860.04 68.9491L-859.663 69.8753ZM-840.412 62.5614C-837.275 61.4481 -834.035 60.3333 -830.699 59.2238L-831.015 58.2749C-834.357 59.3865 -837.604 60.5035 -840.746 61.6191L-840.412 62.5614ZM-820.902 56.0701C-817.681 55.0675 -814.387 54.0749 -811.025 53.0976L-811.305 52.1374C-814.672 53.1164 -817.972 54.1108 -821.199 55.1153L-820.902 56.0701ZM-801.132 50.3217C-797.866 49.4382 -794.546 48.5727 -791.178 47.7295L-791.421 46.7595C-794.795 47.6041 -798.121 48.4712 -801.393 49.3564L-801.132 50.3217ZM-781.17 45.3256C-777.856 44.5632 -774.502 43.8254 -771.114 43.1159L-771.319 42.1372C-774.714 42.848 -778.074 43.5873 -781.394 44.351L-781.17 45.3256ZM-761.015 41.1076C-757.665 40.4769 -754.287 39.8765 -750.884 39.3098L-751.049 38.3234C-754.458 38.8912 -757.844 39.4929 -761.2 40.1249L-761.015 41.1076ZM-740.72 37.7307C-737.339 37.2436 -733.938 36.7923 -730.522 36.3802L-730.642 35.3874C-734.065 35.8004 -737.474 36.2527 -740.863 36.7409L-740.72 37.7307ZM-720.294 35.2708C-716.886 34.9432 -713.467 34.6572 -710.041 34.4162L-710.112 33.4186C-713.546 33.6603 -716.973 33.947 -720.39 34.2753L-720.294 35.2708ZM-699.771 33.8319C-696.345 33.684 -692.917 33.584 -689.489 33.535L-689.503 32.5351C-692.941 32.5842 -696.379 32.6846 -699.814 32.8328L-699.771 33.8319ZM-679.204 33.5443C-675.772 33.6007 -672.345 33.7117 -668.927 33.8804L-668.878 32.8817C-672.307 32.7124 -675.745 32.6011 -679.188 32.5444L-679.204 33.5443ZM-658.67 34.5659C-655.246 34.8559 -651.836 35.208 -648.443 35.6252L-648.321 34.6326C-651.727 34.2138 -655.15 33.8605 -658.585 33.5694L-658.67 34.5659ZM-638.266 37.0844C-634.875 37.6419 -631.506 38.2695 -628.162 38.9705L-627.957 37.9917C-631.315 37.2877 -634.699 36.6575 -638.104 36.0976L-638.266 37.0844ZM-618.156 41.3114C-616.498 41.7411 -614.847 42.1904 -613.205 42.6596L-612.93 41.6981C-614.581 41.2266 -616.239 40.7751 -617.905 40.3433L-618.156 41.3114ZM-613.205 42.6596C-611.568 43.1273 -609.946 43.5957 -608.341 44.0648L-608.06 43.1049C-609.668 42.6353 -611.291 42.1663 -612.93 41.6981L-613.205 42.6596ZM-598.747 46.9289C-595.498 47.9201 -592.312 48.9131 -589.189 49.9064L-588.886 48.9534C-592.013 47.9589 -595.202 46.9648 -598.456 45.9724L-598.747 46.9289ZM-579.663 52.9965C-576.434 54.0647 -573.272 55.1319 -570.171 56.1964L-569.846 55.2506C-572.95 54.1849 -576.116 53.1166 -579.349 52.0471L-579.663 52.9965ZM-560.712 59.5005C-557.506 60.6392 -554.366 61.7729 -551.287 62.8998L-550.944 61.9607C-554.025 60.8328 -557.168 59.698 -560.378 58.5581L-560.712 59.5005ZM-541.895 66.3816C-538.714 67.5751 -535.596 68.7584 -532.535 69.9288L-532.178 68.9948C-535.241 67.8237 -538.361 66.6397 -541.544 65.4453L-541.895 66.3816ZM-523.2 73.5196C-520.026 74.7466 -516.908 75.9556 -513.838 77.1442L-513.477 76.2116C-516.546 75.0234 -519.665 73.8139 -522.839 72.5869L-523.2 73.5196ZM-504.481 80.7525C-501.32 81.9641 -498.202 83.1489 -495.117 84.3032L-494.767 83.3667C-497.848 82.2135 -500.964 81.0297 -504.123 79.8187L-504.481 80.7525ZM-485.699 87.7624C-482.522 88.904 -479.369 90.0081 -476.228 91.0702L-475.908 90.1229C-479.041 89.0631 -482.188 87.9611 -485.361 86.8213L-485.699 87.7624ZM-466.691 94.1711C-463.486 95.168 -460.281 96.1165 -457.063 97.012L-456.795 96.0486C-460.002 95.1561 -463.197 94.2104 -466.394 93.2162L-466.691 94.1711ZM-447.346 99.538C-444.11 100.318 -440.848 101.041 -437.548 101.703L-437.352 100.722C-440.638 100.063 -443.887 99.3429 -447.112 98.5658L-447.346 99.538ZM-427.661 103.477C-424.396 103.994 -421.085 104.449 -417.716 104.84L-417.601 103.846C-420.956 103.457 -424.253 103.004 -427.504 102.489L-427.661 103.477ZM-407.727 105.789C-404.445 106.033 -401.102 106.217 -397.689 106.336L-397.654 105.337C-401.054 105.218 -404.384 105.035 -407.653 104.792L-407.727 105.789ZM-387.647 106.499C-384.377 106.493 -381.04 106.43 -377.629 106.307L-377.665 105.307C-381.065 105.43 -384.391 105.493 -387.649 105.499L-387.647 106.499ZM-367.613 105.788C-365.948 105.676 -364.265 105.551 -362.563 105.412L-362.645 104.415C-364.342 104.554 -366.02 104.679 -367.68 104.79L-367.613 105.788ZM-362.563 105.412C-360.935 105.279 -359.315 105.132 -357.702 104.971L-357.801 103.976C-359.408 104.136 -361.023 104.282 -362.645 104.415L-362.563 105.412ZM-348.041 103.844C-344.805 103.41 -341.6 102.925 -338.424 102.393L-338.59 101.407C-341.754 101.937 -344.949 102.42 -348.174 102.853L-348.041 103.844ZM-328.861 100.634C-325.662 99.9942 -322.495 99.3091 -319.358 98.5838L-319.584 97.6095C-322.711 98.3326 -325.868 99.0156 -329.057 99.6536L-328.861 100.634ZM-309.915 96.259C-306.756 95.4348 -303.629 94.5732 -300.534 93.6794L-300.811 92.7186C-303.898 93.6102 -307.017 94.4695 -310.168 95.2914L-309.915 96.259ZM-291.222 90.8684C-288.108 89.8888 -285.028 88.8807 -281.98 87.8497L-282.3 86.9024C-285.342 87.9313 -288.416 88.9371 -291.522 89.9145L-291.222 90.8684ZM-272.804 84.6483C-269.733 83.5452 -266.696 82.424 -263.692 81.2907L-264.045 80.3551C-267.044 81.4867 -270.077 82.6061 -273.142 83.7071L-272.804 84.6483ZM-254.614 77.7967C-251.569 76.6028 -248.558 75.4027 -245.581 74.2031L-245.955 73.2756C-248.929 74.4743 -251.937 75.6732 -254.979 76.8657L-254.614 77.7967ZM-236.586 70.5442C-233.558 69.3033 -230.565 68.0703 -227.609 66.8532L-227.989 65.9285C-230.947 67.1458 -233.938 68.3784 -236.966 69.6189L-236.586 70.5442ZM-218.614 63.1631C-215.577 61.9245 -212.579 60.712 -209.618 59.5346L-209.987 58.6054C-212.952 59.7842 -215.953 60.9978 -218.992 62.2372L-218.614 63.1631ZM-200.572 56.0126C-197.495 54.8443 -194.46 53.7265 -191.465 52.6699L-191.798 51.7269C-194.801 52.7866 -197.844 53.9072 -200.927 55.0778L-200.572 56.0126ZM-182.273 49.5911C-179.128 48.6 -176.03 47.6935 -172.976 46.885L-173.232 45.9183C-176.303 46.7313 -179.416 47.6423 -182.573 48.6374L-182.273 49.5911ZM-163.541 44.6858C-160.309 44.0434 -157.128 43.5347 -153.998 43.1769L-154.111 42.1833C-157.272 42.5446 -160.48 43.0579 -163.736 43.705L-163.541 44.6858ZM-144.37 42.5696C-142.75 42.5565 -141.143 42.5918 -139.55 42.6781L-139.496 41.6796C-141.111 41.5921 -142.738 41.5564 -144.378 41.5696L-144.37 42.5696ZM-139.55 42.6781C-137.958 42.7643 -136.331 42.9053 -134.668 43.097L-134.553 42.1036C-136.234 41.9098 -137.882 41.767 -139.496 41.6796L-139.55 42.6781ZM-124.988 44.6743C-121.895 45.3065 -118.699 46.0665 -115.397 46.9332L-115.143 45.9659C-118.459 45.0955 -121.674 44.3311 -124.787 43.6945L-124.988 44.6743ZM-105.906 49.6135C-102.843 50.5305 -99.7007 51.5139 -96.4779 52.5494L-96.1721 51.5973C-99.3993 50.5604 -102.548 49.5749 -105.619 48.6555L-105.906 49.6135ZM-87.1094 55.6178C-84.0494 56.6344 -80.9241 57.6822 -77.7324 58.7509L-77.4149 57.8026C-80.606 56.7342 -83.7327 55.6859 -86.7942 54.6688L-87.1094 55.6178ZM-68.3397 61.8823C-65.2703 62.8982 -62.1445 63.923 -58.9622 64.9479L-58.6557 63.996C-61.8347 62.9721 -64.9579 61.9483 -68.0255 60.933L-68.3397 61.8823ZM-49.545 67.9222C-46.441 68.8814 -43.2867 69.8334 -40.082 70.771L-39.8012 69.8112C-43.0005 68.8752 -46.15 67.9247 -49.2498 66.9668L-49.545 67.9222ZM-30.5696 73.4644C-27.4274 74.3232 -24.2394 75.1627 -21.0057 75.9766L-20.7617 75.0068C-23.9883 74.1947 -27.1697 73.3569 -30.306 72.4997L-30.5696 73.4644ZM-11.3896 78.285C-8.20905 79.0105 -4.98657 79.7071 -1.72211 80.3694L-1.52325 79.3894C-4.77948 78.7288 -7.99414 78.0339 -11.1672 77.31L-11.3896 78.285ZM7.99463 82.212C11.2099 82.7785 14.4639 83.3084 17.7568 83.7969L17.9036 82.8077C14.6199 82.3206 11.3748 81.7921 8.16815 81.2271L7.99463 82.212ZM27.5596 85.1102C30.8027 85.4977 34.0818 85.8425 37.3971 86.1402L37.4865 85.1442C34.1813 84.8474 30.9119 84.5037 27.6783 84.1173L27.5596 85.1102ZM47.2624 86.8767C50.5242 87.0705 53.8195 87.2168 57.1483 87.3117L57.1768 86.3121C53.8585 86.2175 50.5734 86.0717 47.3217 85.8785L47.2624 86.8767ZM67.0473 87.4389C70.3177 87.4295 73.6193 87.369 76.952 87.2538L76.9175 86.2544C73.5955 86.3692 70.3044 86.4296 67.0445 86.4389L67.0473 87.4389ZM86.8226 86.7559C90.0754 86.54 93.3569 86.2708 96.6671 85.9454L96.5692 84.9502C93.2697 85.2745 89.9987 85.5429 86.7563 85.7581L86.8226 86.7559ZM106.487 84.8229C109.724 84.4011 112.988 83.9246 116.278 83.3906L116.118 82.4035C112.838 82.9358 109.585 83.4108 106.358 83.8313L106.487 84.8229ZM126.036 81.6511C129.239 81.0291 132.465 80.352 135.717 79.6175L135.496 78.642C132.255 79.3744 129.038 80.0494 125.846 80.6695L126.036 81.6511ZM145.307 77.2999C146.909 76.8875 148.518 76.4609 150.132 76.02L149.868 75.0553C148.259 75.495 146.655 75.9203 145.057 76.3315L145.307 77.2999Z" fill="#241A59"/>
</svg>
