<svg viewBox="0 0 1440 118" fill="none" xmlns="http://www.w3.org/2000/svg">
<path d="M663.655 50.6825C663.446 50.7348 663.261 50.7128 663.101 50.6167C662.956 50.5293 662.857 50.3808 662.804 50.1712L660.749 41.9275C660.534 41.0164 660.547 40.1477 660.786 39.3213C661.034 38.4803 661.466 37.7603 662.084 37.1611C662.713 36.5591 663.481 36.1448 664.39 35.9184C665.321 35.6861 666.207 35.694 667.048 35.9419C667.886 36.1782 668.606 36.6109 669.208 37.2399C669.822 37.866 670.245 38.6448 670.477 39.5763C670.707 40.4962 670.703 41.3751 670.467 42.2132C670.242 43.0483 669.829 43.7698 669.226 44.3777C668.62 44.974 667.869 45.3839 666.972 45.6074C666.192 45.8019 665.441 45.816 664.72 45.6496C664.007 45.4687 663.39 45.1525 662.869 44.7011L664.149 49.8359C664.202 50.0455 664.178 50.2245 664.079 50.3728C663.995 50.5299 663.853 50.6332 663.655 50.6825ZM666.51 44.424C667.186 44.2556 667.752 43.9475 668.209 43.4996C668.666 43.0517 668.978 42.5164 669.144 41.8936C669.319 41.2564 669.321 40.5942 669.15 39.9073C668.976 39.2087 668.663 38.6249 668.212 38.156C667.773 37.6843 667.247 37.358 666.633 37.1771C666.016 36.9846 665.37 36.9726 664.694 37.141C664.031 37.3064 663.472 37.6189 663.017 38.0785C662.56 38.5264 662.248 39.0617 662.082 39.6844C661.916 40.3072 661.92 40.9678 662.094 41.6665C662.265 42.3534 662.572 42.9386 663.014 43.422C663.453 43.8938 663.98 44.2201 664.594 44.401C665.208 44.5818 665.847 44.5895 666.51 44.424ZM678.657 42.6941C677.714 42.9293 676.825 42.9345 675.99 42.7099C675.163 42.4707 674.449 42.0366 673.847 41.4076C673.257 40.7756 672.844 39.9881 672.609 39.045C672.371 38.0902 672.354 37.2039 672.558 36.3862C672.771 35.554 673.169 34.8427 673.751 34.2522C674.334 33.6618 675.073 33.2548 675.97 33.0313C676.855 32.8106 677.674 32.8228 678.428 33.0678C679.19 33.2982 679.84 33.7235 680.378 34.3438C680.916 34.964 681.298 35.7283 681.525 36.6365C681.571 36.8228 681.551 36.9886 681.463 37.1341C681.373 37.2679 681.235 37.3581 681.048 37.4045L673.992 39.1637C674.219 39.775 674.551 40.286 674.987 40.6967C675.42 41.0957 675.928 41.3711 676.51 41.5228C677.089 41.6628 677.705 41.6516 678.357 41.489C678.776 41.3845 679.178 41.2102 679.562 40.9659C679.955 40.7072 680.252 40.4352 680.453 40.1501C680.555 40.0134 680.687 39.9247 680.85 39.8841C681.011 39.8318 681.16 39.8377 681.3 39.9018C681.486 40.0038 681.6 40.1363 681.64 40.2993C681.693 40.4594 681.663 40.6151 681.553 40.7664C681.25 41.1882 680.829 41.5838 680.29 41.953C679.749 42.3107 679.204 42.5577 678.657 42.6941ZM676.27 34.2364C675.374 34.4599 674.704 34.9237 674.261 35.6277C673.815 36.3201 673.645 37.1233 673.749 38.0372L680.141 36.4435C679.827 35.5818 679.323 34.947 678.627 34.5391C677.941 34.1167 677.155 34.0157 676.27 34.2364ZM688.922 40.1349C688.025 40.3585 687.17 40.3492 686.355 40.1071C685.537 39.8534 684.827 39.412 684.225 38.7829C683.635 38.151 683.225 37.3751 682.996 36.4553C682.764 35.5238 682.766 34.639 683.002 33.8009C683.25 32.96 683.688 32.2385 684.317 31.6364C684.943 31.0227 685.716 30.6012 686.636 30.3719C687.556 30.1425 688.431 30.1533 689.26 30.4041C690.098 30.6404 690.818 31.0731 691.42 31.7021C692.034 32.3282 692.463 33.1056 692.706 34.0342L693.73 38.1385C693.779 38.3365 693.756 38.5155 693.66 38.6755C693.561 38.8238 693.412 38.9227 693.214 38.9721C693.016 39.0214 692.839 39.0038 692.682 38.9193C692.522 38.8232 692.417 38.6761 692.367 38.4782L692.102 37.4128C691.845 38.0704 691.443 38.6406 690.896 39.1234C690.348 39.6061 689.69 39.9433 688.922 40.1349ZM688.757 38.8775C689.432 38.7091 689.993 38.4024 690.438 37.9574C690.895 37.5095 691.207 36.9742 691.373 36.3515C691.549 35.7142 691.55 35.0521 691.379 34.3651C691.205 33.6665 690.892 33.0828 690.442 32.6139C690.002 32.1421 689.476 31.8158 688.862 31.635C688.257 31.4396 687.616 31.4261 686.941 31.5945C686.277 31.7599 685.718 32.0724 685.264 32.532C684.807 32.9799 684.489 33.5167 684.311 34.1423C684.133 34.7679 684.131 35.4301 684.306 36.1287C684.477 36.8156 684.789 37.3994 685.243 37.8799C685.694 38.3488 686.226 38.6736 686.84 38.8545C687.454 39.0353 688.093 39.043 688.757 38.8775ZM697.692 27.7083C697.995 27.6328 698.254 27.729 698.469 27.9969L704.314 35.2956C704.436 35.4383 704.481 35.5941 704.449 35.7628C704.426 35.9171 704.343 36.0553 704.2 36.1774C703.848 36.4508 703.532 36.4244 703.253 36.0982L698.245 29.7037L696.734 37.705C696.696 37.8999 696.597 38.0483 696.437 38.1501C696.285 38.2373 696.112 38.2619 695.917 38.224C695.734 38.1831 695.59 38.1015 695.485 37.9792C695.389 37.8423 695.356 37.6837 695.385 37.5033L697.176 28.3191C697.241 27.9815 697.412 27.7779 697.692 27.7083ZM710.961 34.6586C710.135 34.8647 709.353 34.8802 708.617 34.7051C707.878 34.5184 707.234 34.1411 706.684 33.5732C706.146 33.0024 705.758 32.2396 705.52 31.2849L704.387 26.7439C704.341 26.5576 704.366 26.3844 704.462 26.2244C704.558 26.0644 704.699 25.9612 704.886 25.9147C705.084 25.8654 705.263 25.8888 705.423 25.9849C705.583 26.081 705.686 26.2223 705.732 26.4086L706.864 30.9496C707.132 32.0208 707.627 32.7443 708.352 33.1202C709.076 33.4961 709.887 33.5723 710.783 33.3488C711.354 33.2066 711.839 32.9682 712.238 32.6338C712.648 32.2964 712.939 31.9023 713.111 31.4513C713.283 31.0002 713.308 30.5302 713.187 30.0412L711.898 24.8714C711.848 24.6735 711.867 24.5018 711.955 24.3563C712.051 24.1963 712.198 24.0916 712.396 24.0423C712.594 23.9929 712.773 24.0163 712.933 24.1125C713.09 24.197 713.193 24.3382 713.242 24.5362L715.289 32.7449C715.341 32.9545 715.319 33.1393 715.223 33.2993C715.124 33.4476 714.976 33.5465 714.778 33.5958C714.58 33.6452 714.402 33.6276 714.245 33.5431C714.097 33.4441 713.996 33.2898 713.944 33.0802L713.796 32.4863C713.519 33.013 713.138 33.4667 712.651 33.8477C712.165 34.2286 711.602 34.499 710.961 34.6586ZM721.659 32.0472C720.902 32.2358 720.15 32.2688 719.402 32.1461C718.651 32.0118 718.052 31.7654 717.604 31.4072C717.45 31.2848 717.362 31.1334 717.342 30.953C717.334 30.7696 717.403 30.6038 717.552 30.4554C717.66 30.342 717.807 30.2868 717.993 30.2898C718.188 30.2783 718.36 30.3221 718.508 30.4211C718.875 30.6513 719.304 30.8102 719.796 30.8978C720.287 30.9854 720.801 30.9625 721.337 30.8289C722.035 30.6548 722.564 30.3684 722.922 29.9699C723.292 29.5685 723.41 29.1 723.277 28.5644C723.16 28.0987 722.889 27.7521 722.461 27.5249C722.045 27.2947 721.578 27.2318 721.06 27.3362L720.169 27.5583C719.948 27.6135 719.754 27.6061 719.588 27.5361C719.42 27.4545 719.315 27.3322 719.274 27.1692C719.234 27.0062 719.27 26.8549 719.384 26.7152C719.497 26.5756 719.665 26.4782 719.886 26.4231L720.777 26.201C721.205 26.0819 721.518 25.8493 721.716 25.5031C721.914 25.1569 721.962 24.78 721.86 24.3725C721.756 23.9533 721.484 23.6563 721.045 23.4814C720.617 23.3036 720.095 23.2916 719.477 23.4454C718.907 23.5877 718.453 23.7999 718.115 24.0819C717.777 24.364 717.528 24.6797 717.368 25.0288C717.275 25.2005 717.145 25.3255 716.979 25.404C716.822 25.4679 716.656 25.4722 716.481 25.4168C716.31 25.373 716.19 25.2667 716.124 25.0979C716.068 24.9261 716.08 24.75 716.159 24.5696C716.424 24.0459 716.806 23.5674 717.304 23.1341C717.813 22.6978 718.429 22.3897 719.151 22.2098C719.803 22.0472 720.408 22.0199 720.967 22.128C721.534 22.2215 722.013 22.4299 722.403 22.7532C722.79 23.0648 723.043 23.4594 723.162 23.9368C723.284 24.4258 723.234 24.8958 723.012 25.3468C722.8 25.7832 722.469 26.1439 722.021 26.4288C722.644 26.3972 723.195 26.5503 723.675 26.8883C724.155 27.2262 724.468 27.6862 724.613 28.2684C724.749 28.8156 724.708 29.3453 724.489 29.8574C724.282 30.3666 723.931 30.819 723.436 31.2145C722.95 31.5954 722.358 31.873 721.659 32.0472ZM731.801 29.4444C730.904 29.668 730.049 29.6587 729.234 29.4166C728.416 29.1629 727.706 28.7215 727.104 28.0924C726.514 27.4605 726.104 26.6846 725.875 25.7648C725.642 24.8333 725.644 23.9485 725.881 23.1105C726.129 22.2695 726.567 21.548 727.196 20.9459C727.822 20.3322 728.595 19.9107 729.515 19.6814C730.435 19.4521 731.309 19.4628 732.139 19.7136C732.977 19.9499 733.697 20.3826 734.299 21.0116C734.913 21.6378 735.341 22.4151 735.585 23.3437L736.609 27.4481C736.658 27.646 736.635 27.825 736.538 27.985C736.439 28.1334 736.291 28.2322 736.093 28.2816C735.895 28.3309 735.717 28.3133 735.56 28.2288C735.4 28.1327 735.296 27.9856 735.246 27.7877L734.981 26.7223C734.724 27.3799 734.322 27.9501 733.775 28.4329C733.227 28.9157 732.569 29.2528 731.801 29.4444ZM731.636 28.187C732.311 28.0187 732.871 27.712 733.317 27.267C733.774 26.819 734.086 26.2837 734.252 25.661C734.427 25.0237 734.429 24.3616 734.258 23.6746C734.084 22.976 733.771 22.3923 733.32 21.9234C732.881 21.4516 732.355 21.1253 731.741 20.9445C731.135 20.7491 730.495 20.7356 729.82 20.904C729.156 21.0694 728.597 21.382 728.143 21.8415C727.686 22.2894 727.368 22.8262 727.19 23.4518C727.012 24.0774 727.01 24.7396 727.184 25.4382C727.356 26.1252 727.668 26.7089 728.122 27.1894C728.573 27.6583 729.105 27.9831 729.719 28.164C730.333 28.3448 730.972 28.3525 731.636 28.187ZM743.573 26.5281C742.723 26.74 741.925 26.7409 741.18 26.5309C740.432 26.3092 739.788 25.9072 739.247 25.3247C738.718 24.7394 738.346 24.0159 738.131 23.1543L736.999 18.6133C736.949 18.4154 736.968 18.2437 737.056 18.0982C737.152 17.9382 737.299 17.8335 737.497 17.7842C737.695 17.7348 737.874 17.7582 738.034 17.8543C738.191 17.9389 738.294 18.0801 738.343 18.278L739.476 22.819C739.629 23.4361 739.9 23.95 740.287 24.3606C740.673 24.7712 741.135 25.0582 741.67 25.2215C742.202 25.3732 742.777 25.3721 743.394 25.2183C743.988 25.0702 744.486 24.8348 744.888 24.512C745.287 24.1775 745.566 23.7863 745.727 23.3382C745.899 22.8872 745.922 22.4113 745.798 21.9106L744.509 16.7409C744.459 16.543 744.478 16.3713 744.566 16.2258C744.662 16.0658 744.809 15.9611 745.007 15.9117C745.205 15.8624 745.384 15.8858 745.544 15.9819C745.701 16.0664 745.804 16.2077 745.854 16.4056L747.778 24.1253L748.791 23.8727C749.001 23.8205 749.18 23.8439 749.328 23.9429C749.485 24.0274 749.59 24.1745 749.642 24.3841L750.339 27.1785C750.452 27.6326 750.299 27.9119 749.88 28.0164C749.682 28.0658 749.503 28.0424 749.343 27.9462C749.198 27.8588 749.099 27.7103 749.046 27.5008L748.472 25.1953L748.035 25.3042C747.569 25.4203 747.205 25.3997 746.944 25.2424C746.693 25.0821 746.512 24.775 746.399 24.3209L746.381 24.251C746.136 24.8067 745.774 25.2867 745.293 25.691C744.81 26.0836 744.236 26.3626 743.573 26.5281ZM755.887 23.4578C755.06 23.664 754.279 23.6795 753.543 23.5044C752.803 23.3176 752.159 22.9403 751.609 22.3724C751.071 21.8016 750.683 21.0389 750.445 20.0841L749.313 15.5431C749.267 15.3568 749.291 15.1836 749.388 15.0236C749.484 14.8636 749.625 14.7604 749.811 14.7139C750.009 14.6646 750.188 14.688 750.348 14.7841C750.508 14.8803 750.611 15.0215 750.658 15.2078L751.79 19.7488C752.057 20.82 752.553 21.5436 753.277 21.9195C754.002 22.2954 754.812 22.3716 755.709 22.148C756.279 22.0058 756.764 21.7675 757.163 21.433C757.574 21.0957 757.865 20.7015 758.037 20.2505C758.209 19.7995 758.234 19.3295 758.112 18.8404L756.823 13.6707C756.774 13.4727 756.793 13.301 756.88 13.1556C756.976 12.9956 757.123 12.8909 757.321 12.8415C757.519 12.7922 757.698 12.8156 757.858 12.9117C758.015 12.9962 758.119 13.1374 758.168 13.3354L760.215 21.5441C760.267 21.7537 760.245 21.9385 760.149 22.0985C760.05 22.2469 759.901 22.3457 759.703 22.3951C759.505 22.4444 759.328 22.4269 759.171 22.3423C759.022 22.2433 758.922 22.089 758.87 21.8794L758.722 21.2856C758.445 21.8122 758.063 22.266 757.577 22.6469C757.091 23.0279 756.527 23.2982 755.887 23.4578ZM763.253 21.3245C763.082 21.2312 762.977 21.1089 762.939 20.9575C762.913 20.8033 762.935 20.6432 763.005 20.4774L764.417 17.3612C763.765 17.3259 763.198 17.1087 762.715 16.7096C762.229 16.299 761.901 15.7501 761.729 15.0632C761.578 14.4577 761.585 13.8873 761.748 13.3518C761.92 12.8019 762.229 12.3291 762.674 11.9336C763.12 11.5381 763.675 11.2576 764.338 11.0921L767.447 10.317C767.657 10.2648 767.836 10.2882 767.984 10.3872C768.141 10.4717 768.246 10.6187 768.298 10.8283L770.345 19.0371C770.382 19.2379 770.353 19.4183 770.257 19.5783C770.17 19.7238 770.027 19.8212 769.829 19.8706C769.643 19.917 769.471 19.898 769.314 19.8135C769.165 19.7144 769.065 19.5601 769.013 19.3505L768.36 16.7307L765.949 17.3316L764.231 21.0064C764.135 21.2159 763.981 21.3409 763.768 21.3815C763.571 21.4309 763.399 21.4119 763.253 21.3245ZM765.61 16.192L768.072 15.578L767.11 11.7182L764.647 12.3321C764.054 12.4802 763.602 12.7782 763.293 13.2262C762.982 13.6626 762.897 14.166 763.039 14.7366C763.193 15.3537 763.512 15.7875 763.995 16.0381C764.477 16.2888 765.016 16.34 765.61 16.192Z" fill="#40B5E7"/>
<path d="M646.531 65.3655C646.435 65.6247 646.568 65.912 646.828 66.0072L651.052 67.5585C651.311 67.6537 651.598 67.5207 651.694 67.2615C651.789 67.0023 651.656 66.715 651.397 66.6198L647.642 65.2409L649.021 61.4861C649.116 61.2269 648.983 60.9395 648.724 60.8444C648.464 60.7492 648.177 60.8821 648.082 61.1413L646.531 65.3655ZM907.933 32.1791L908.07 31.6983L907.933 32.1791ZM1671.43 65.7858C1671.57 65.546 1671.49 65.2406 1671.25 65.1037L1667.34 62.8727C1667.1 62.7357 1666.79 62.8192 1666.66 63.059C1666.52 63.2988 1666.6 63.6042 1666.84 63.7411L1670.32 65.7242L1668.33 69.198C1668.2 69.4378 1668.28 69.7432 1668.52 69.8801C1668.76 70.017 1669.07 69.9336 1669.2 69.6938L1671.43 65.7858ZM647.21 65.9916C671.2 54.8888 713.039 39.8904 760.545 31.0026C808.057 22.1139 861.19 19.3464 907.795 32.6599L908.07 31.6983C861.255 18.3248 807.948 21.1171 760.361 30.0197C712.77 38.9233 670.852 53.9478 646.79 65.0841L647.21 65.9916ZM907.795 32.6599C966.172 49.3361 1004.35 66.9857 1040.25 79.5153C1076.13 92.0419 1109.63 99.4021 1158.44 95.4119L1158.36 94.4153C1109.72 98.3914 1076.37 91.0637 1040.58 78.5712C1004.8 66.0817 966.469 48.3809 908.07 31.6983L907.795 32.6599ZM1158.44 95.4119C1207.24 91.4219 1249.29 74.9631 1285.98 59.9013C1304.34 52.3667 1321.34 45.1882 1337.2 40.0767C1353.07 34.9657 1367.75 31.9363 1381.45 32.6784L1381.5 31.6798C1367.62 30.9282 1352.81 33.998 1336.9 39.1249C1320.99 44.2514 1303.94 51.4495 1285.6 58.9762C1248.91 74.0369 1206.99 90.439 1158.36 94.4153L1158.44 95.4119ZM1381.45 32.6784C1395.17 33.4211 1411.44 38.2216 1430.35 44.4479C1449.25 50.6672 1470.75 58.299 1494.85 64.6522C1543.08 77.3628 1601.76 84.9705 1671.13 66.0202L1670.87 65.0556C1601.72 83.9452 1543.22 76.3672 1495.11 63.6852C1471.04 57.3421 1449.59 49.726 1430.67 43.498C1411.77 37.2769 1395.37 32.4308 1381.5 31.6798L1381.45 32.6784Z" fill="#40B5E7"/>
<path d="M572.823 108.463C571.981 108.597 571.201 108.544 570.483 108.306C569.763 108.055 569.154 107.623 568.656 107.01C568.17 106.394 567.849 105.601 567.695 104.629L566.963 100.007C566.932 99.817 566.972 99.6466 567.082 99.4956C567.192 99.3446 567.341 99.254 567.531 99.2239C567.732 99.192 567.909 99.2309 568.06 99.3406C568.211 99.4503 568.301 99.6 568.331 99.7896L569.064 104.412C569.237 105.502 569.668 106.266 570.357 106.704C571.046 107.141 571.847 107.288 572.759 107.143C573.34 107.051 573.844 106.856 574.27 106.557C574.709 106.257 575.033 105.89 575.244 105.455C575.454 105.021 575.52 104.555 575.441 104.057L574.607 98.7948C574.575 98.5933 574.609 98.4239 574.709 98.2866C574.818 98.1356 574.974 98.0441 575.176 98.0121C575.377 97.9802 575.553 98.0191 575.704 98.1288C575.853 98.2266 575.944 98.3763 575.976 98.5778L577.301 106.933C577.334 107.147 577.296 107.329 577.187 107.48C577.075 107.619 576.919 107.705 576.717 107.737C576.516 107.769 576.34 107.736 576.191 107.638C576.052 107.526 575.965 107.364 575.932 107.15L575.836 106.546C575.514 107.047 575.095 107.465 574.577 107.803C574.059 108.14 573.475 108.36 572.823 108.463ZM584.905 106.53C583.968 106.678 583.106 106.602 582.317 106.302C581.527 105.99 580.865 105.494 580.332 104.813C579.81 104.13 579.473 103.309 579.321 102.349C579.167 101.377 579.244 100.484 579.553 99.6693C579.861 98.855 580.356 98.1812 581.036 97.648C581.715 97.103 582.529 96.7553 583.477 96.605C584.437 96.4529 585.319 96.5319 586.121 96.8421C586.933 97.1385 587.606 97.6272 588.139 98.3081C588.684 98.9872 589.04 99.8117 589.206 100.782L589.781 104.408C589.933 105.368 589.856 106.261 589.549 107.088C589.245 107.926 588.76 108.622 588.095 109.177C587.431 109.744 586.625 110.103 585.677 110.253C584.741 110.401 583.889 110.354 583.121 110.111C582.356 109.88 581.694 109.499 581.136 108.968C580.983 108.847 580.899 108.702 580.885 108.534C580.882 108.364 580.95 108.214 581.087 108.083C581.224 107.952 581.39 107.889 581.585 107.894C581.781 107.9 581.943 107.965 582.072 108.091C582.484 108.463 582.977 108.737 583.551 108.913C584.138 109.088 584.787 109.118 585.498 109.006C586.161 108.9 586.735 108.646 587.217 108.241C587.7 107.836 588.049 107.319 588.265 106.69C588.493 106.058 588.545 105.351 588.421 104.569L588.292 103.751C588.043 104.483 587.624 105.097 587.034 105.591C586.456 106.084 585.746 106.397 584.905 106.53ZM584.85 105.263C585.549 105.152 586.141 104.9 586.625 104.508C587.12 104.101 587.477 103.595 587.697 102.989C587.917 102.383 587.969 101.719 587.855 100.996C587.74 100.273 587.485 99.6573 587.088 99.1491C586.69 98.629 586.194 98.2581 585.6 98.0364C585.015 97.801 584.374 97.7387 583.675 97.8495C582.975 97.9603 582.378 98.219 581.884 98.6254C581.388 99.02 581.03 99.5261 580.812 100.144C580.593 100.75 580.54 101.414 580.655 102.137C580.769 102.86 581.025 103.476 581.421 103.984C581.818 104.492 582.314 104.863 582.91 105.097C583.504 105.318 584.15 105.374 584.85 105.263ZM597.061 104.603C596.101 104.755 595.214 104.683 594.402 104.387C593.599 104.076 592.926 103.582 592.381 102.903C591.848 102.222 591.505 101.401 591.353 100.441C591.199 99.4695 591.259 98.5851 591.534 97.7883C591.818 96.9778 592.276 96.3037 592.908 95.7662C593.54 95.2287 594.312 94.8876 595.224 94.7429C596.125 94.6001 596.94 94.6835 597.67 94.9932C598.409 95.289 599.02 95.7693 599.502 96.4341C599.984 97.0988 600.298 97.8934 600.445 98.8179C600.475 99.0075 600.44 99.171 600.34 99.3083C600.238 99.4337 600.093 99.5115 599.903 99.5415L592.721 100.68C592.893 101.309 593.179 101.847 593.578 102.294C593.975 102.729 594.457 103.047 595.024 103.249C595.588 103.439 596.202 103.482 596.866 103.376C597.293 103.309 597.708 103.17 598.112 102.96C598.526 102.736 598.846 102.491 599.071 102.225C599.185 102.098 599.324 102.021 599.49 101.994C599.654 101.956 599.803 101.975 599.937 102.051C600.113 102.169 600.215 102.311 600.241 102.477C600.279 102.641 600.236 102.793 600.113 102.935C599.775 103.328 599.321 103.686 598.752 104.007C598.181 104.316 597.618 104.515 597.061 104.603ZM595.419 95.9696C594.506 96.1143 593.799 96.518 593.296 97.1809C592.792 97.8318 592.552 98.6171 592.576 99.5366L599.083 98.5052C598.845 97.6195 598.398 96.9432 597.741 96.4763C597.093 95.9957 596.319 95.8268 595.419 95.9696ZM607.806 102.918C606.964 103.051 606.185 102.999 605.466 102.76C604.746 102.51 604.137 102.078 603.639 101.464C603.153 100.849 602.832 100.055 602.678 99.0834L601.946 94.4611C601.916 94.2715 601.955 94.1011 602.065 93.9501C602.175 93.7991 602.324 93.7085 602.514 93.6785C602.716 93.6465 602.892 93.6854 603.043 93.7951C603.194 93.9048 603.284 94.0545 603.315 94.2441L604.047 98.8664C604.22 99.9568 604.651 100.721 605.34 101.158C606.029 101.596 606.83 101.742 607.742 101.598C608.323 101.505 608.827 101.31 609.253 101.012C609.692 100.711 610.016 100.344 610.227 99.9098C610.437 99.4754 610.503 99.0094 610.424 98.5116L609.59 93.2493C609.558 93.0478 609.592 92.8784 609.692 92.7411C609.802 92.5901 609.957 92.4986 610.159 92.4667C610.36 92.4347 610.536 92.4736 610.687 92.5833C610.837 92.6812 610.927 92.8308 610.959 93.0323L612.284 101.388C612.317 101.601 612.28 101.784 612.17 101.935C612.058 102.074 611.902 102.159 611.7 102.191C611.499 102.223 611.323 102.19 611.174 102.092C611.035 101.981 610.949 101.818 610.915 101.605L610.819 101.001C610.497 101.501 610.078 101.92 609.56 102.257C609.043 102.594 608.458 102.815 607.806 102.918Z" fill="#241A59"/>
<path d="M-402.62 76.7503L-398.788 78.1577L-397.38 74.3254L-401.212 72.9181L-402.62 76.7503ZM-139.067 42.1791L-138.93 41.6983L-139.067 42.1791ZM334.477 42.1791L334.504 41.6798L334.477 42.1791ZM624.434 75.7858C624.571 75.546 624.488 75.2406 624.248 75.1037L620.34 72.8727C620.1 72.7357 619.795 72.8192 619.658 73.059C619.521 73.2988 619.604 73.6042 619.844 73.7411L623.318 75.7242L621.335 79.198C621.198 79.4378 621.281 79.7432 621.521 79.8801C621.761 80.017 622.066 79.9336 622.203 79.6938L624.434 75.7858ZM-395.106 73.8756C-394.853 73.764 -394.739 73.4689 -394.85 73.2162C-394.962 72.9636 -395.257 72.8492 -395.51 72.9607L-395.106 73.8756ZM-386.04 68.9494C-386.296 69.0535 -386.419 69.3453 -386.314 69.6011C-386.21 69.8568 -385.918 69.9797 -385.663 69.8755L-386.04 68.9494ZM-376.098 66.1164C-375.839 66.0184 -375.71 65.7297 -375.808 65.4715C-375.905 65.2133 -376.194 65.0835 -376.452 65.1814L-376.098 66.1164ZM-366.746 61.6193C-367.007 61.7117 -367.143 61.9975 -367.05 62.2578C-366.958 62.518 -366.672 62.6541 -366.412 62.5617L-366.746 61.6193ZM-356.699 59.2241C-356.437 59.1369 -356.296 58.8538 -356.383 58.5918C-356.47 58.3298 -356.753 58.188 -357.015 58.2752L-356.699 59.2241ZM-347.199 55.1156C-347.462 55.1977 -347.61 55.4779 -347.528 55.7416C-347.445 56.0053 -347.165 56.1525 -346.902 56.0704L-347.199 55.1156ZM-337.025 53.0979C-336.76 53.0208 -336.608 52.7434 -336.685 52.4782C-336.762 52.213 -337.039 52.0606 -337.305 52.1376L-337.025 53.0979ZM-327.393 49.3566C-327.66 49.4287 -327.817 49.7032 -327.745 49.9698C-327.673 50.2364 -327.399 50.394 -327.132 50.3219L-327.393 49.3566ZM-317.178 47.7298C-316.911 47.6627 -316.748 47.3912 -316.815 47.1233C-316.882 46.8555 -317.153 46.6927 -317.421 46.7597L-317.178 47.7298ZM-307.394 44.3513C-307.663 44.4132 -307.831 44.6815 -307.77 44.9506C-307.708 45.2198 -307.439 45.3877 -307.17 45.3258L-307.394 44.3513ZM-297.114 43.1162C-296.844 43.0596 -296.671 42.7946 -296.727 42.5243C-296.784 42.254 -297.049 42.0808 -297.319 42.1374L-297.114 43.1162ZM-287.2 40.1251C-287.472 40.1762 -287.65 40.4376 -287.599 40.709C-287.548 40.9804 -287.287 41.159 -287.015 41.1079L-287.2 40.1251ZM-276.884 39.31C-276.612 39.2647 -276.428 39.0071 -276.473 38.7347C-276.519 38.4623 -276.776 38.2783 -277.049 38.3236L-276.884 39.31ZM-266.863 36.7412C-267.136 36.7805 -267.326 37.034 -267.287 37.3073C-267.247 37.5807 -266.994 37.7703 -266.72 37.7309L-266.863 36.7412ZM-256.522 36.3805C-256.248 36.3474 -256.052 36.0983 -256.085 35.8242C-256.119 35.55 -256.368 35.3546 -256.642 35.3877L-256.522 36.3805ZM-246.39 34.2756C-246.664 34.302 -246.866 34.5463 -246.839 34.8211C-246.813 35.096 -246.569 35.2974 -246.294 35.271L-246.39 34.2756ZM-236.041 34.4164C-235.766 34.397 -235.558 34.158 -235.578 33.8826C-235.597 33.6071 -235.836 33.3995 -236.112 33.4189L-236.041 34.4164ZM-225.814 32.8331C-226.09 32.845 -226.304 33.0783 -226.292 33.3542C-226.28 33.63 -226.047 33.844 -225.771 33.8321L-225.814 32.8331ZM-215.489 33.5352C-215.213 33.5313 -214.992 33.3042 -214.996 33.0281C-215 32.752 -215.227 32.5314 -215.503 32.5353L-215.489 33.5352ZM-205.188 32.5447C-205.464 32.5401 -205.692 32.7603 -205.696 33.0364C-205.701 33.3125 -205.48 33.54 -205.204 33.5445L-205.188 32.5447ZM-194.927 33.8807C-194.651 33.8943 -194.417 33.6817 -194.403 33.4059C-194.39 33.1301 -194.602 32.8955 -194.878 32.8819L-194.927 33.8807ZM-184.585 33.5697C-184.86 33.5464 -185.102 33.7505 -185.126 34.0257C-185.149 34.3008 -184.945 34.5428 -184.67 34.5661L-184.585 33.5697ZM-174.443 35.6254C-174.169 35.6591 -173.919 35.4643 -173.886 35.1902C-173.852 34.9161 -174.047 34.6666 -174.321 34.6329L-174.443 35.6254ZM-164.104 36.0978C-164.376 36.053 -164.634 36.2376 -164.678 36.5101C-164.723 36.7826 -164.539 37.0398 -164.266 37.0846L-164.104 36.0978ZM-154.162 38.9707C-153.892 39.0274 -153.627 38.8542 -153.57 38.5839C-153.514 38.3137 -153.687 38.0486 -153.957 37.992L-154.162 38.9707ZM-143.905 40.3436C-144.173 40.2743 -144.446 40.4349 -144.515 40.7022C-144.584 40.9695 -144.424 41.2424 -144.156 41.3116L-143.905 40.3436ZM-134.341 44.065C-134.076 44.1425 -133.798 43.9903 -133.72 43.7253C-133.643 43.4602 -133.795 43.1826 -134.06 43.1051L-134.341 44.065ZM-124.456 45.9726C-124.72 45.8921 -124.999 46.0409 -125.08 46.305C-125.16 46.5691 -125.012 46.8486 -124.747 46.9291L-124.456 45.9726ZM-115.189 49.9066C-114.926 49.9903 -114.644 49.8448 -114.561 49.5816C-114.477 49.3185 -114.622 49.0373 -114.886 48.9536L-115.189 49.9066ZM-105.349 52.0474C-105.611 51.9606 -105.894 52.1028 -105.981 52.365C-106.068 52.6272 -105.925 52.91 -105.663 52.9967L-105.349 52.0474ZM-96.171 56.1967C-95.9099 56.2863 -95.6254 56.1473 -95.5358 55.8861C-95.4461 55.6249 -95.5851 55.3405 -95.8463 55.2509L-96.171 56.1967ZM-86.3776 58.5584C-86.6378 58.466 -86.9236 58.602 -87.0161 58.8622C-87.1085 59.1224 -86.9725 59.4083 -86.7122 59.5007L-86.3776 58.5584ZM-77.2872 62.9C-77.0279 62.9949 -76.7408 62.8616 -76.6458 62.6023C-76.551 62.343 -76.6842 62.0558 -76.9436 61.9609L-77.2872 62.9ZM-67.5442 65.4456C-67.8027 65.3485 -68.0909 65.4795 -68.1879 65.738C-68.2849 65.9966 -68.154 66.2848 -67.8954 66.3818L-67.5442 65.4456ZM-58.5346 69.9291C-58.2767 70.0277 -57.9877 69.8985 -57.8891 69.6406C-57.7905 69.3826 -57.9196 69.0936 -58.1776 68.995L-58.5346 69.9291ZM-48.8394 72.5871C-49.097 72.4876 -49.3865 72.6157 -49.486 72.8732C-49.5856 73.1308 -49.4575 73.4203 -49.1999 73.5199L-48.8394 72.5871ZM-39.8381 77.1444C-39.5806 77.2441 -39.291 77.1162 -39.1913 76.8587C-39.0916 76.6012 -39.2196 76.3116 -39.4771 76.2119L-39.8381 77.1444ZM-30.123 79.8189C-30.3808 79.7201 -30.67 79.849 -30.7688 80.1069C-30.8676 80.3647 -30.7387 80.6539 -30.4809 80.7527L-30.123 79.8189ZM-21.1174 84.3035C-20.8588 84.4003 -20.5707 84.2691 -20.4739 84.0104C-20.3771 83.7518 -20.5083 83.4637 -20.7669 83.3669L-21.1174 84.3035ZM-11.3607 86.8215C-11.6206 86.7281 -11.907 86.8631 -12.0004 87.123C-12.0937 87.3829 -11.9588 87.6692 -11.6989 87.7626L-11.3607 86.8215ZM-2.22827 91.0705C-1.96671 91.159 -1.68292 91.0186 -1.59445 90.757C-1.50595 90.4954 -1.6463 90.2117 -1.9079 90.1232L-2.22827 91.0705ZM7.60626 93.2164C7.34259 93.1344 7.06235 93.2817 6.98032 93.5453C6.89832 93.809 7.04556 94.0893 7.30923 94.1713L7.60626 93.2164ZM16.9369 97.0123C17.2029 97.0863 17.4786 96.9307 17.5526 96.6646C17.6266 96.3986 17.471 96.1229 17.205 96.0489L16.9369 97.0123ZM26.8882 98.566C26.6198 98.5013 26.3497 98.6665 26.285 98.935C26.2203 99.2034 26.3855 99.4735 26.654 99.5382L26.8882 98.566ZM36.4517 101.703C36.7224 101.757 36.9859 101.582 37.0402 101.311C37.0945 101.04 36.919 100.777 36.6483 100.722L36.4517 101.703ZM46.4957 102.489C46.223 102.446 45.9669 102.632 45.9237 102.905C45.8805 103.178 46.0667 103.434 46.3394 103.477L46.4957 102.489ZM56.2842 104.84C56.5585 104.872 56.8066 104.675 56.8384 104.401C56.8702 104.126 56.6736 103.878 56.3993 103.846L56.2842 104.84ZM66.347 104.792C66.0716 104.771 65.8318 104.978 65.8112 105.253C65.7907 105.529 65.9973 105.769 66.2727 105.789L66.347 104.792ZM76.3115 106.336C76.5874 106.346 76.819 106.13 76.8286 105.854C76.8383 105.578 76.6224 105.347 76.3464 105.337L76.3115 106.336ZM86.3508 105.5C86.0746 105.5 85.8512 105.725 85.8518 106.001C85.8523 106.277 86.0766 106.5 86.3528 106.5L86.3508 105.5ZM96.3712 106.307C96.6471 106.297 96.8628 106.065 96.8528 105.789C96.8429 105.513 96.6111 105.298 96.3352 105.308L96.3712 106.307ZM106.32 104.79C106.044 104.809 105.836 105.047 105.854 105.323C105.873 105.598 106.111 105.807 106.387 105.788L106.32 104.79ZM116.298 104.972C116.572 104.944 116.773 104.699 116.746 104.425C116.718 104.15 116.473 103.949 116.199 103.977L116.298 104.972ZM125.826 102.853C125.552 102.889 125.36 103.141 125.397 103.415C125.433 103.688 125.685 103.881 125.959 103.844L125.826 102.853ZM135.576 102.393C135.848 102.348 136.032 102.09 135.986 101.818C135.94 101.545 135.683 101.361 135.41 101.407L135.576 102.393ZM144.943 99.6539C144.672 99.7081 144.496 99.9715 144.55 100.242C144.605 100.513 144.868 100.689 145.139 100.634L144.943 99.6539ZM154.642 98.5841C154.911 98.5218 155.078 98.2533 155.016 97.9843C154.954 97.7152 154.685 97.5475 154.416 97.6098L154.642 98.5841ZM163.832 95.2917C163.565 95.3614 163.405 95.6345 163.475 95.9017C163.544 96.1689 163.818 96.329 164.085 96.2593L163.832 95.2917ZM173.466 93.6796C173.732 93.603 173.885 93.3258 173.808 93.0605C173.731 92.7952 173.454 92.6422 173.189 92.7189L173.466 93.6796ZM182.478 89.9148C182.214 89.9976 182.068 90.2784 182.151 90.5418C182.234 90.8052 182.515 90.9515 182.778 90.8687L182.478 89.9148ZM192.02 87.85C192.282 87.7615 192.422 87.4777 192.334 87.2161C192.245 86.9545 191.962 86.8142 191.7 86.9027L192.02 87.85ZM200.858 83.7074C200.598 83.8007 200.463 84.0871 200.556 84.347C200.65 84.6069 200.936 84.7419 201.196 84.6485L200.858 83.7074ZM210.308 81.291C210.567 81.1935 210.697 80.905 210.6 80.6467C210.502 80.3883 210.214 80.2579 209.955 80.3553L210.308 81.291ZM219.021 76.8659C218.764 76.9667 218.637 77.2568 218.738 77.5139C218.839 77.771 219.129 77.8977 219.386 77.7969L219.021 76.8659ZM228.419 74.2033C228.675 74.1001 228.799 73.8088 228.696 73.5527C228.592 73.2965 228.301 73.1726 228.045 73.2758L228.419 74.2033ZM237.034 69.6191C236.779 69.7238 236.657 70.0158 236.761 70.2714C236.866 70.5269 237.158 70.6492 237.414 70.5445L237.034 69.6191ZM246.391 66.8534C246.647 66.7483 246.768 66.4561 246.663 66.2007C246.558 65.9454 246.266 65.8236 246.011 65.9287L246.391 66.8534ZM255.008 62.2374C254.752 62.3417 254.63 62.6336 254.734 62.8893C254.838 63.1449 255.13 63.2677 255.386 63.1634L255.008 62.2374ZM264.382 59.5349C264.639 59.4329 264.764 59.1421 264.662 58.8855C264.56 58.6289 264.269 58.5036 264.013 58.6056L264.382 59.5349ZM273.073 55.078C272.815 55.176 272.685 55.4648 272.783 55.7229C272.881 55.9811 273.17 56.1109 273.428 56.0129L273.073 55.078ZM282.535 52.6702C282.796 52.5783 282.932 52.2927 282.84 52.0323C282.748 51.7719 282.463 51.6353 282.202 51.7271L282.535 52.6702ZM291.427 48.6376C291.163 48.7206 291.017 49.0014 291.1 49.2648C291.183 49.5282 291.464 49.6744 291.727 49.5914L291.427 48.6376ZM301.024 46.8852C301.291 46.8145 301.45 46.5408 301.379 46.2739C301.309 46.007 301.035 45.8478 300.768 45.9185L301.024 46.8852ZM310.264 43.7052C309.993 43.7591 309.817 44.0223 309.871 44.2931C309.925 44.564 310.188 44.7399 310.459 44.6861L310.264 43.7052ZM320.002 43.1771C320.277 43.1457 320.474 42.8979 320.442 42.6236C320.411 42.3492 320.163 42.1522 319.889 42.1836L320.002 43.1771ZM329.622 41.5699C329.345 41.5721 329.123 41.7978 329.126 42.0739C329.128 42.35 329.353 42.5721 329.63 42.5699L329.622 41.5699ZM339.332 43.0972C339.606 43.1288 339.854 42.9321 339.886 42.6578C339.918 42.3834 339.721 42.1354 339.447 42.1038L339.332 43.0972ZM349.213 43.6948C348.942 43.6395 348.678 43.814 348.623 44.0845C348.567 44.355 348.742 44.6192 349.012 44.6745L349.213 43.6948ZM358.603 46.9334C358.87 47.0035 359.143 46.8438 359.213 46.5767C359.283 46.3097 359.124 46.0363 358.857 45.9662L358.603 46.9334ZM368.381 48.6558C368.116 48.5766 367.838 48.7268 367.758 48.9914C367.679 49.2559 367.83 49.5346 368.094 49.6138L368.381 48.6558ZM377.522 52.5496C377.785 52.6341 378.067 52.4894 378.151 52.2265C378.236 51.9636 378.091 51.682 377.828 51.5975L377.522 52.5496ZM387.206 54.6691C386.944 54.582 386.661 54.7239 386.574 54.9859C386.487 55.248 386.628 55.531 386.891 55.6181L387.206 54.6691ZM396.268 58.7511C396.529 58.8388 396.813 58.6976 396.901 58.4358C396.988 58.1739 396.847 57.8906 396.585 57.8029L396.268 58.7511ZM405.975 60.9332C405.712 60.8464 405.43 60.9886 405.343 61.2508C405.256 61.5129 405.398 61.7958 405.66 61.8826L405.975 60.9332ZM415.038 64.9481C415.301 65.0328 415.582 64.8883 415.667 64.6255C415.752 64.3626 415.607 64.0809 415.344 63.9963L415.038 64.9481ZM424.75 66.967C424.486 66.8855 424.206 67.0333 424.125 67.2971C424.043 67.561 424.191 67.8409 424.455 67.9225L424.75 66.967ZM433.918 70.7712C434.183 70.8488 434.461 70.6968 434.538 70.4317C434.616 70.1667 434.464 69.889 434.199 69.8115L433.918 70.7712ZM443.694 72.5C443.428 72.4272 443.153 72.5841 443.08 72.8505C443.007 73.1168 443.164 73.3918 443.43 73.4646L443.694 72.5ZM452.994 75.9768C453.262 76.0442 453.534 75.8818 453.601 75.614C453.669 75.3462 453.506 75.0745 453.238 75.0071L452.994 75.9768ZM462.833 77.3103C462.564 77.2489 462.296 77.4173 462.234 77.6865C462.173 77.9558 462.341 78.2238 462.61 78.2852L462.833 77.3103ZM472.278 80.3696C472.549 80.4245 472.812 80.2497 472.867 79.979C472.922 79.7084 472.747 79.4445 472.477 79.3896L472.278 80.3696ZM482.168 81.2274C481.896 81.1795 481.637 81.3611 481.589 81.633C481.541 81.905 481.723 82.1643 481.995 82.2122L482.168 81.2274ZM491.757 83.7971C492.03 83.8376 492.284 83.649 492.325 83.3759C492.365 83.1027 492.177 82.8484 491.904 82.8079L491.757 83.7971ZM501.678 84.1175C501.404 84.0848 501.155 84.2805 501.122 84.5547C501.09 84.8289 501.285 85.0777 501.56 85.1105L501.678 84.1175ZM511.397 86.1404C511.672 86.1651 511.915 85.9622 511.94 85.6871C511.964 85.4121 511.762 85.1691 511.487 85.1444L511.397 86.1404ZM521.322 85.8787C521.046 85.8623 520.809 86.0725 520.793 86.3482C520.777 86.6238 520.987 86.8606 521.262 86.8769L521.322 85.8787ZM531.148 87.3119C531.424 87.3198 531.654 87.1024 531.662 86.8264C531.67 86.5503 531.453 86.3202 531.177 86.3123L531.148 87.3119ZM541.044 86.4391C540.768 86.4399 540.545 86.6644 540.546 86.9406C540.547 87.2167 540.771 87.4399 541.047 87.4391L541.044 86.4391ZM550.952 87.2541C551.228 87.2446 551.444 87.0131 551.434 86.7371C551.425 86.4611 551.193 86.2451 550.917 86.2547L550.952 87.2541ZM560.756 85.7583C560.481 85.7766 560.272 86.0148 560.291 86.2903C560.309 86.5659 560.547 86.7744 560.823 86.7561L560.756 85.7583ZM570.667 85.9456C570.942 85.9186 571.143 85.6739 571.116 85.3991C571.089 85.1243 570.844 84.9234 570.569 84.9504L570.667 85.9456ZM580.358 83.8315C580.084 83.8672 579.891 84.1181 579.927 84.392C579.963 84.6658 580.214 84.8588 580.487 84.8232L580.358 83.8315ZM590.278 83.3908C590.551 83.3466 590.736 83.0898 590.692 82.8172C590.648 82.5446 590.391 82.3595 590.118 82.4038L590.278 83.3908ZM599.846 80.6697C599.575 80.7224 599.398 80.9848 599.45 81.2559C599.503 81.527 599.765 81.704 600.036 81.6514L599.846 80.6697ZM609.717 79.6177C609.986 79.5568 610.155 79.2891 610.094 79.0198C610.033 78.7504 609.766 78.5814 609.496 78.6423L609.717 79.6177ZM619.057 76.3318C618.79 76.4006 618.629 76.6732 618.698 76.9406C618.767 77.208 619.039 77.369 619.307 77.3002L619.057 76.3318ZM-399.79 75.9916C-398.297 75.3006 -396.735 74.5945 -395.106 73.8756L-395.51 72.9607C-397.144 73.6819 -398.711 74.3905 -400.21 75.0841L-399.79 75.9916ZM-385.663 69.8755C-382.632 68.6412 -379.44 67.3846 -376.098 66.1164L-376.452 65.1814C-379.802 66.4525 -383.002 67.7119 -386.04 68.9494L-385.663 69.8755ZM-366.412 62.5617C-363.275 61.4483 -360.035 60.3335 -356.699 59.2241L-357.015 58.2752C-360.357 59.3867 -363.604 60.5037 -366.746 61.6193L-366.412 62.5617ZM-346.902 56.0704C-343.681 55.0677 -340.387 54.0751 -337.025 53.0979L-337.305 52.1376C-340.672 53.1166 -343.972 54.1111 -347.199 55.1156L-346.902 56.0704ZM-327.132 50.3219C-323.866 49.4384 -320.546 48.5729 -317.178 47.7298L-317.421 46.7597C-320.795 47.6044 -324.121 48.4715 -327.393 49.3566L-327.132 50.3219ZM-307.17 45.3258C-303.856 44.5635 -300.502 43.8257 -297.114 43.1162L-297.319 42.1374C-300.714 42.8483 -304.074 43.5875 -307.394 44.3513L-307.17 45.3258ZM-287.015 41.1079C-283.665 40.4772 -280.287 39.8767 -276.884 39.31L-277.049 38.3236C-280.458 38.8915 -283.844 39.4932 -287.2 40.1251L-287.015 41.1079ZM-266.72 37.7309C-263.339 37.2438 -259.938 36.7925 -256.522 36.3805L-256.642 35.3877C-260.065 35.8007 -263.474 36.2529 -266.863 36.7412L-266.72 37.7309ZM-246.294 35.271C-242.886 34.9434 -239.467 34.6575 -236.041 34.4164L-236.112 33.4189C-239.546 33.6605 -242.973 33.9472 -246.39 34.2756L-246.294 35.271ZM-225.771 33.8321C-222.345 33.6843 -218.917 33.5842 -215.489 33.5352L-215.503 32.5353C-218.941 32.5845 -222.379 32.6848 -225.814 32.8331L-225.771 33.8321ZM-205.204 33.5445C-201.772 33.601 -198.345 33.712 -194.927 33.8807L-194.878 32.8819C-198.307 32.7126 -201.745 32.6013 -205.188 32.5447L-205.204 33.5445ZM-184.67 34.5661C-181.246 34.8562 -177.836 35.2082 -174.443 35.6254L-174.321 34.6329C-177.727 34.2141 -181.15 33.8608 -184.585 33.5697L-184.67 34.5661ZM-164.266 37.0846C-160.875 37.6422 -157.506 38.2698 -154.162 38.9707L-153.957 37.992C-157.315 37.288 -160.699 36.6577 -164.104 36.0978L-164.266 37.0846ZM-144.156 41.3116C-142.498 41.7414 -140.847 42.1906 -139.205 42.6599L-138.93 41.6983C-140.581 41.2268 -142.239 40.7754 -143.905 40.3436L-144.156 41.3116ZM-139.205 42.6599C-137.568 43.1275 -135.946 43.5959 -134.341 44.065L-134.06 43.1051C-135.668 42.6355 -137.291 42.1665 -138.93 41.6983L-139.205 42.6599ZM-124.747 46.9291C-121.498 47.9204 -118.312 48.9133 -115.189 49.9066L-114.886 48.9536C-118.013 47.9592 -121.202 46.9651 -124.456 45.9726L-124.747 46.9291ZM-105.663 52.9967C-102.434 54.065 -99.2717 55.1321 -96.171 56.1967L-95.8463 55.2509C-98.9503 54.1852 -102.116 53.1168 -105.349 52.0474L-105.663 52.9967ZM-86.7122 59.5007C-83.5061 60.6394 -80.3664 61.7732 -77.2872 62.9L-76.9436 61.9609C-80.0254 60.8331 -83.1682 59.6983 -86.3776 58.5584L-86.7122 59.5007ZM-67.8954 66.3818C-64.7143 67.5754 -61.5964 68.7586 -58.5346 69.9291L-58.1776 68.995C-61.2408 67.824 -64.3607 66.64 -67.5442 65.4456L-67.8954 66.3818ZM-49.1999 73.5199C-46.0255 74.7468 -42.9083 75.9559 -39.8381 77.1444L-39.4771 76.2119C-42.5464 75.0236 -45.6647 73.8142 -48.8394 72.5871L-49.1999 73.5199ZM-30.4809 80.7527C-27.3198 81.9643 -24.202 83.1491 -21.1174 84.3035L-20.7669 83.3669C-23.8484 82.2137 -26.9635 81.0299 -30.123 79.8189L-30.4809 80.7527ZM-11.6989 87.7626C-8.52151 88.9043 -5.36865 90.0083 -2.22827 91.0705L-1.9079 90.1232C-5.04147 89.0633 -8.18839 87.9614 -11.3607 86.8215L-11.6989 87.7626ZM7.30923 94.1713C10.5144 95.1683 13.7193 96.1168 16.9369 97.0123L17.205 96.0489C13.9979 95.1563 10.8027 94.2107 7.60626 93.2164L7.30923 94.1713ZM26.654 99.5382C29.8904 100.318 33.152 101.041 36.4517 101.703L36.6483 100.722C33.3618 100.063 30.1127 99.3431 26.8882 98.566L26.654 99.5382ZM46.3394 103.477C49.6037 103.994 52.9149 104.449 56.2842 104.84L56.3993 103.846C53.0439 103.458 49.7465 103.004 46.4957 102.489L46.3394 103.477ZM66.2727 105.789C69.5548 106.034 72.8979 106.217 76.3115 106.336L76.3464 105.337C72.9458 105.218 69.6158 105.035 66.347 104.792L66.2727 105.789ZM86.3528 106.5C89.6226 106.493 92.9597 106.43 96.3712 106.307L96.3352 105.308C92.9348 105.43 89.609 105.493 86.3508 105.5L86.3528 106.5ZM106.387 105.788C108.052 105.676 109.735 105.551 111.437 105.412L111.355 104.415C109.658 104.554 107.98 104.679 106.32 104.79L106.387 105.788ZM111.437 105.412C113.065 105.279 114.685 105.132 116.298 104.972L116.199 103.977C114.592 104.136 112.977 104.283 111.355 104.415L111.437 105.412ZM125.959 103.844C129.195 103.41 132.4 102.925 135.576 102.393L135.41 101.407C132.246 101.937 129.051 102.421 125.826 102.853L125.959 103.844ZM145.139 100.634C148.338 99.9944 151.505 99.3093 154.642 98.5841L154.416 97.6098C151.289 98.3329 148.132 99.0158 144.943 99.6539L145.139 100.634ZM164.085 96.2593C167.244 95.4351 170.371 94.5734 173.466 93.6796L173.189 92.7189C170.102 93.6104 166.983 94.4697 163.832 95.2917L164.085 96.2593ZM182.778 90.8687C185.892 89.889 188.972 88.8809 192.02 87.85L191.7 86.9027C188.658 87.9315 185.584 88.9374 182.478 89.9148L182.778 90.8687ZM201.196 84.6485C204.267 83.5455 207.304 82.4243 210.308 81.291L209.955 80.3553C206.956 81.487 203.923 82.6063 200.858 83.7074L201.196 84.6485ZM219.386 77.7969C222.431 76.6031 225.442 75.4029 228.419 74.2033L228.045 73.2758C225.071 74.4745 222.063 75.6734 219.021 76.8659L219.386 77.7969ZM237.414 70.5445C240.442 69.3035 243.435 68.0705 246.391 66.8534L246.011 65.9287C243.053 67.146 240.062 68.3786 237.034 69.6191L237.414 70.5445ZM255.386 63.1634C258.423 61.9247 261.421 60.7123 264.382 59.5349L264.013 58.6056C261.048 59.7844 258.047 60.9981 255.008 62.2374L255.386 63.1634ZM273.428 56.0129C276.505 54.8446 279.54 53.7268 282.535 52.6702L282.202 51.7271C279.199 52.7868 276.156 53.9074 273.073 55.078L273.428 56.0129ZM291.727 49.5914C294.872 48.6003 297.97 47.6937 301.024 46.8852L300.768 45.9185C297.697 46.7315 294.584 47.6425 291.427 48.6376L291.727 49.5914ZM310.459 44.6861C313.691 44.0437 316.872 43.5349 320.002 43.1771L319.889 42.1836C316.728 42.5448 313.52 43.0581 310.264 43.7052L310.459 44.6861ZM329.63 42.5699C331.25 42.5568 332.857 42.5921 334.45 42.6784L334.504 41.6798C332.889 41.5924 331.262 41.5567 329.622 41.5699L329.63 42.5699ZM334.45 42.6784C336.042 42.7646 337.669 42.9055 339.332 43.0972L339.447 42.1038C337.766 41.91 336.118 41.7672 334.504 41.6798L334.45 42.6784ZM349.012 44.6745C352.105 45.3067 355.301 46.0667 358.603 46.9334L358.857 45.9662C355.541 45.0958 352.326 44.3313 349.213 43.6948L349.012 44.6745ZM368.094 49.6138C371.157 50.5308 374.299 51.5141 377.522 52.5496L377.828 51.5975C374.601 50.5606 371.452 49.5752 368.381 48.6558L368.094 49.6138ZM386.891 55.6181C389.951 56.6346 393.076 57.6825 396.268 58.7511L396.585 57.8029C393.394 56.7344 390.267 55.6861 387.206 54.6691L386.891 55.6181ZM405.66 61.8826C408.73 62.8985 411.856 63.9232 415.038 64.9481L415.344 63.9963C412.165 62.9724 409.042 61.9485 405.975 60.9332L405.66 61.8826ZM424.455 67.9225C427.559 68.8817 430.713 69.8336 433.918 70.7712L434.199 69.8115C430.999 68.8754 427.85 67.9249 424.75 66.967L424.455 67.9225ZM443.43 73.4646C446.573 74.3234 449.761 75.1629 452.994 75.9768L453.238 75.0071C450.012 74.1949 446.83 73.3572 443.694 72.5L443.43 73.4646ZM462.61 78.2852C465.791 79.0108 469.013 79.7074 472.278 80.3696L472.477 79.3896C469.221 78.729 466.006 78.0341 462.833 77.3103L462.61 78.2852ZM481.995 82.2122C485.21 82.7787 488.464 83.3086 491.757 83.7971L491.904 82.8079C488.62 82.3208 485.375 81.7924 482.168 81.2274L481.995 82.2122ZM501.56 85.1105C504.803 85.498 508.082 85.8427 511.397 86.1404L511.487 85.1444C508.181 84.8476 504.912 84.5039 501.678 84.1175L501.56 85.1105ZM521.262 86.8769C524.524 87.0708 527.82 87.217 531.148 87.3119L531.177 86.3123C527.858 86.2177 524.573 86.0719 521.322 85.8787L521.262 86.8769ZM541.047 87.4391C544.318 87.4298 547.619 87.3692 550.952 87.2541L550.917 86.2547C547.595 86.3695 544.304 86.4298 541.044 86.4391L541.047 87.4391ZM560.823 86.7561C564.075 86.5402 567.357 86.271 570.667 85.9456L570.569 84.9504C567.27 85.2748 563.999 85.5431 560.756 85.7583L560.823 86.7561ZM580.487 84.8232C583.724 84.4014 586.988 83.9248 590.278 83.3908L590.118 82.4038C586.838 82.936 583.585 83.4111 580.358 83.8315L580.487 84.8232ZM600.036 81.6514C603.239 81.0294 606.465 80.3523 609.717 79.6177L609.496 78.6423C606.255 79.3746 603.038 80.0497 599.846 80.6697L600.036 81.6514ZM619.307 77.3002C620.909 76.8877 622.518 76.4612 624.132 76.0202L623.868 75.0556C622.259 75.4952 620.655 75.9205 619.057 76.3318L619.307 77.3002Z" fill="#241A59"/>
</svg>
