<svg width="27" height="27" viewBox="0 0 27 27" fill="none" xmlns="http://www.w3.org/2000/svg">
<circle cx="13.5" cy="13.5" r="13" stroke="white"/>
<path d="M17.2452 6.58617L15.6251 6.5835C13.805 6.5835 12.6288 7.82313 12.6288 9.7418V11.198H10.9999C10.8591 11.198 10.7451 11.3152 10.7451 11.4598V13.5696C10.7451 13.7142 10.8592 13.8313 10.9999 13.8313H12.6288V19.1552C12.6288 19.2997 12.7427 19.4168 12.8835 19.4168H15.0088C15.1495 19.4168 15.2635 19.2996 15.2635 19.1552V13.8313H17.1681C17.3088 13.8313 17.4228 13.7142 17.4228 13.5696L17.4236 11.4598C17.4236 11.3904 17.3967 11.3239 17.349 11.2748C17.3013 11.2256 17.2363 11.198 17.1687 11.198H15.2635V9.96356C15.2635 9.37024 15.4011 9.06904 16.1535 9.06904L17.2449 9.06864C17.3855 9.06864 17.4995 8.95142 17.4995 8.80696V6.84784C17.4995 6.70352 17.3856 6.58643 17.2452 6.58617Z" fill="white"/>
</svg>
