<svg width="27" height="27" viewBox="0 0 27 27" fill="none" xmlns="http://www.w3.org/2000/svg">
<path d="M20.6632 18.75V18.7495H20.6666V14.1651C20.6666 11.9224 20.1516 10.1948 17.3549 10.1948C16.0104 10.1948 15.1082 10.8865 14.7399 11.5422H14.701V10.4042H12.0493V18.7495H14.8104V14.6172C14.8104 13.5292 15.0304 12.4771 16.4677 12.4771C17.8838 12.4771 17.9049 13.7188 17.9049 14.687V18.75H20.6632Z" fill="white"/>
<path d="M7.55322 10.4048H10.3177V18.7501H7.55322V10.4048Z" fill="white"/>
<path d="M8.93436 6.25C8.05047 6.25 7.33325 6.9224 7.33325 7.75104C7.33325 8.57969 8.05047 9.26615 8.93436 9.26615C9.81825 9.26615 10.5355 8.57969 10.5355 7.75104C10.5349 6.9224 9.8177 6.25 8.93436 6.25V6.25Z" fill="white"/>
<circle cx="13.5" cy="13.5" r="13" stroke="white"/>
</svg>
