<svg viewBox="0 0 113 23" fill="none" xmlns="http://www.w3.org/2000/svg">
<g clip-path="url(#clip0)">
<path d="M13.7743 22.9359C13.7743 22.9359 13.7105 22.9359 13.7743 22.9359L1.91309 22.8722C0.892776 22.8722 0 21.9802 0 20.9608V1.97465C0 0.891548 0.829007 0.0632935 1.91309 0.0632935C2.99718 0.0632935 3.82618 0.891548 3.82618 1.97465V19.0494L13.7743 19.1132C14.8584 19.1132 15.6874 20.0051 15.6874 21.0245C15.6236 22.1076 14.7946 22.9359 13.7743 22.9359Z" fill="#241A59"/>
<path d="M24.6152 22.8726C19.7687 22.8726 16.3889 18.6039 16.3889 14.7812V2.0388C16.3889 0.955696 17.2179 0.127441 18.302 0.127441C19.3861 0.127441 20.2151 0.955696 20.2151 2.0388V14.7812C20.2151 16.5651 21.8731 19.0499 24.6152 19.0499C27.0385 19.0499 29.0153 17.0748 29.0153 14.6538C29.0153 13.5707 29.8443 12.7424 30.9284 12.7424C32.0125 12.7424 32.8415 13.5707 32.8415 14.6538C32.9053 19.1773 29.2066 22.8726 24.6152 22.8726Z" fill="#241A59"/>
<path fill-rule="evenodd" clip-rule="evenodd" d="M31.2471 0C32.5225 0 33.5428 1.01939 33.5428 2.29363C33.5428 3.56787 32.5225 4.58726 31.2471 4.58726C29.9717 4.58726 28.9514 3.56787 28.9514 2.29363C28.9514 1.01939 30.0355 0 31.2471 0Z" fill="#241A59"/>
<path d="M47.0621 23C46.5519 23 45.978 22.8089 45.6591 22.3629L37.8154 13.5706C37.3053 12.9972 37.1777 12.2327 37.4966 11.5318C37.8154 10.831 38.4531 10.385 39.2184 10.385C40.0474 10.385 40.8764 10.1302 41.6416 9.6842C42.7257 8.98337 43.4909 7.96398 43.8098 6.68974C44.1286 5.4155 43.8736 4.14126 43.2359 3.05816C42.6619 2.16619 42.9808 0.955668 43.8736 0.445973C44.7663 -0.127434 45.978 0.191125 46.4881 1.08309C47.6998 3.05816 48.0824 5.35179 47.5722 7.64542C47.0621 9.87534 45.6591 11.7867 43.6823 12.9972C43.4272 13.1884 43.1083 13.3158 42.8532 13.4432L48.5925 19.8781C49.294 20.6427 49.2302 21.8532 48.4012 22.554C47.9548 22.8726 47.5084 23 47.0621 23Z" fill="#241A59"/>
<path d="M68.4249 3.95016H54.0767C52.9926 3.95016 52.1636 3.1219 52.1636 2.0388C52.1636 0.955696 52.9926 0.127441 54.0767 0.127441H68.3611C69.4452 0.127441 70.2742 0.955696 70.2742 2.0388C70.2742 3.1219 69.4452 3.95016 68.4249 3.95016Z" fill="#241A59"/>
<path d="M61.6653 13.6344H54.0767C52.9926 13.6344 52.1636 12.8061 52.1636 11.723C52.1636 10.6399 52.9926 9.81165 54.0767 9.81165H61.6653C62.7494 9.81165 63.5784 10.6399 63.5784 11.723C63.5784 12.8061 62.7494 13.6344 61.6653 13.6344Z" fill="#241A59"/>
<path d="M68.4249 23H54.0129C52.9289 23 52.0999 22.1717 52.0999 21.0886C52.0999 20.0055 52.9289 19.1772 54.0129 19.1772H68.3611C69.4452 19.1772 70.2742 20.0055 70.2742 21.0886C70.338 22.1717 69.4452 23 68.4249 23Z" fill="#241A59"/>
<path d="M87.8748 23C86.7907 23 85.9617 22.1718 85.9617 21.0886V1.97508C85.9617 0.891975 86.7907 0.0637207 87.8748 0.0637207C88.9588 0.0637207 89.7879 0.891975 89.7879 1.97508V21.0886C89.7879 22.1718 88.8951 23 87.8748 23Z" fill="#40B5E7"/>
<path d="M104.009 23C102.924 23 102.095 22.1718 102.095 21.0886V1.97508C102.095 0.891975 102.924 0.0637207 104.009 0.0637207H111.087C112.171 0.0637207 113 0.891975 113 1.97508C113 3.05818 112.171 3.88644 111.087 3.88644H105.922V21.0886C105.922 22.1718 105.029 23 104.009 23Z" fill="#40B5E7"/>
<path fill-rule="evenodd" clip-rule="evenodd" d="M96.7386 0C98.014 0 99.0981 1.0831 99.0981 2.35734C99.0981 3.63158 98.014 4.71468 96.7386 4.71468C95.4632 4.71468 94.3792 3.63158 94.3792 2.35734C94.3792 1.0831 95.4632 0 96.7386 0Z" fill="#40B5E7"/>
<path d="M66.7669 14.0166C68.0348 14.0166 69.0626 12.9897 69.0626 11.723C69.0626 10.4563 68.0348 9.42938 66.7669 9.42938C65.499 9.42938 64.4712 10.4563 64.4712 11.723C64.4712 12.9897 65.499 14.0166 66.7669 14.0166Z" fill="#241A59"/>
</g>
<defs>
<clipPath id="clip0">
<rect width="113" height="23" fill="white"/>
</clipPath>
</defs>
</svg>
