<svg viewBox="0 0 159 33" fill="none" xmlns="http://www.w3.org/2000/svg">
<g clip-path="url(#clip0)">
<path d="M19.3815 32.386C19.3815 32.386 19.2918 32.386 19.3815 32.386L2.69187 32.2961C1.25621 32.2961 0 31.0366 0 29.5972V2.78824C0 1.25887 1.16648 0.0893555 2.69187 0.0893555C4.21727 0.0893555 5.38375 1.25887 5.38375 2.78824V26.8983L19.3815 26.9883C20.9069 26.9883 22.0734 28.2477 22.0734 29.6871C21.9836 31.2165 20.8172 32.386 19.3815 32.386Z" fill="white"/>
<path d="M34.6354 32.2967C27.8159 32.2967 23.0603 26.2692 23.0603 20.8714V2.87882C23.0603 1.34945 24.2268 0.179932 25.7522 0.179932C27.2776 0.179932 28.444 1.34945 28.444 2.87882V20.8714C28.444 23.3904 30.777 26.8989 34.6354 26.8989C38.0451 26.8989 40.8267 24.1101 40.8267 20.6915C40.8267 19.1621 41.9931 17.9926 43.5185 17.9926C45.0439 17.9926 46.2104 19.1621 46.2104 20.6915C46.3001 27.0788 41.0959 32.2967 34.6354 32.2967Z" fill="white"/>
<path fill-rule="evenodd" clip-rule="evenodd" d="M43.9673 0C45.7619 0 47.1976 1.43941 47.1976 3.23866C47.1976 5.03792 45.7619 6.47733 43.9673 6.47733C42.1727 6.47733 40.7371 5.03792 40.7371 3.23866C40.7371 1.43941 42.2625 0 43.9673 0Z" fill="white"/>
<path d="M66.2201 32.4766C65.5023 32.4766 64.6947 32.2067 64.246 31.577L53.2094 19.1621C52.4915 18.3524 52.3121 17.2729 52.7607 16.2833C53.2094 15.2937 54.1066 14.6639 55.1834 14.6639C56.3499 14.6639 57.5164 14.3041 58.5931 13.6743C60.1185 12.6848 61.1952 11.2453 61.6439 9.44609C62.0925 7.64683 61.7336 5.84758 60.8363 4.31821C60.0288 3.05873 60.4774 1.34943 61.7336 0.629731C62.9898 -0.179935 64.6947 0.269879 65.4125 1.52936C67.1174 4.31821 67.6557 7.55687 66.9379 10.7955C66.2201 13.9442 64.246 16.6431 61.4644 18.3524C61.1055 18.6223 60.6569 18.8022 60.298 18.9822L68.3736 28.0684C69.3606 29.148 69.2709 30.8573 68.1044 31.8468C67.4763 32.2967 66.8482 32.4766 66.2201 32.4766Z" fill="white"/>
<path d="M96.2794 5.5777H76.0903C74.5649 5.5777 73.3984 4.40819 73.3984 2.87882C73.3984 1.34945 74.5649 0.179932 76.0903 0.179932H96.1896C97.715 0.179932 98.8815 1.34945 98.8815 2.87882C98.8815 4.40819 97.715 5.5777 96.2794 5.5777Z" fill="white"/>
<path d="M86.7681 19.252H76.0903C74.5649 19.252 73.3984 18.0825 73.3984 16.5531C73.3984 15.0238 74.5649 13.8542 76.0903 13.8542H86.7681C88.2935 13.8542 89.4599 15.0238 89.4599 16.5531C89.4599 18.0825 88.2935 19.252 86.7681 19.252Z" fill="white"/>
<path d="M96.2792 32.4766H76.0005C74.4751 32.4766 73.3086 31.307 73.3086 29.7777C73.3086 28.2483 74.4751 27.0788 76.0005 27.0788H96.1895C97.7149 27.0788 98.8814 28.2483 98.8814 29.7777C98.9711 31.307 97.7149 32.4766 96.2792 32.4766Z" fill="white"/>
<path d="M123.647 32.4766C122.121 32.4766 120.955 31.3071 120.955 29.7777V2.78885C120.955 1.25948 122.121 0.0899658 123.647 0.0899658C125.172 0.0899658 126.339 1.25948 126.339 2.78885V29.7777C126.339 31.3071 125.082 32.4766 123.647 32.4766Z" fill="#40B5E7"/>
<path d="M146.348 32.4766C144.823 32.4766 143.656 31.3071 143.656 29.7777V2.78885C143.656 1.25948 144.823 0.0899658 146.348 0.0899658H156.308C157.833 0.0899658 159 1.25948 159 2.78885C159 4.31822 157.833 5.48774 156.308 5.48774H149.04V29.7777C149.04 31.3071 147.784 32.4766 146.348 32.4766Z" fill="#40B5E7"/>
<path fill-rule="evenodd" clip-rule="evenodd" d="M136.119 0C137.914 0 139.439 1.52937 139.439 3.32863C139.439 5.12788 137.914 6.65725 136.119 6.65725C134.324 6.65725 132.799 5.12788 132.799 3.32863C132.799 1.52937 134.324 0 136.119 0Z" fill="#40B5E7"/>
<path d="M93.9466 19.7918C95.7306 19.7918 97.1768 18.3418 97.1768 16.5532C97.1768 14.7645 95.7306 13.3145 93.9466 13.3145C92.1625 13.3145 90.7163 14.7645 90.7163 16.5532C90.7163 18.3418 92.1625 19.7918 93.9466 19.7918Z" fill="white"/>
</g>
<defs>
<clipPath id="clip0">
<rect width="159" height="32.4766" fill="white"/>
</clipPath>
</defs>
</svg>
