<svg width="28" height="8" viewBox="0 0 28 8" fill="none" xmlns="http://www.w3.org/2000/svg">
<path d="M5.19531 3.5C4.91917 3.5 4.69531 3.72386 4.69531 4C4.69531 4.27614 4.91917 4.5 5.19531 4.5L5.19531 3.5ZM27.5489 4.35355C27.7441 4.15829 27.7441 3.8417 27.5489 3.64644L24.3669 0.464463C24.1716 0.269201 23.855 0.269201 23.6598 0.464463C23.4645 0.659725 23.4645 0.976308 23.6598 1.17157L26.4882 4L23.6598 6.82842C23.4645 7.02369 23.4645 7.34027 23.6598 7.53553C23.855 7.73079 24.1716 7.73079 24.3669 7.53553L27.5489 4.35355ZM5.19531 4.5L27.1953 4.5L27.1953 3.5L5.19531 3.5L5.19531 4.5Z" fill="white"/>
<circle cx="1.19531" cy="4" r="1" transform="rotate(90 1.19531 4)" fill="#40B5E7"/>
</svg>
