<svg width="27" height="28" viewBox="0 0 27 28" fill="none" xmlns="http://www.w3.org/2000/svg">
<circle cx="13.5" cy="14.189" r="13" stroke="#40B5E7"/>
<path d="M17.2452 7.27501L15.6251 7.27234C13.805 7.27234 12.6288 8.51197 12.6288 10.4306V11.8868H10.9999C10.8591 11.8868 10.7451 12.004 10.7451 12.1486V14.2585C10.7451 14.4031 10.8592 14.5202 10.9999 14.5202H12.6288V19.844C12.6288 19.9886 12.7427 20.1057 12.8835 20.1057H15.0088C15.1495 20.1057 15.2635 19.9885 15.2635 19.844V14.5202H17.1681C17.3088 14.5202 17.4228 14.4031 17.4228 14.2585L17.4236 12.1486C17.4236 12.0792 17.3967 12.0127 17.349 11.9636C17.3013 11.9145 17.2363 11.8868 17.1687 11.8868H15.2635V10.6524C15.2635 10.0591 15.4011 9.75789 16.1535 9.75789L17.2449 9.75748C17.3855 9.75748 17.4995 9.64026 17.4995 9.49581V7.53669C17.4995 7.39236 17.3856 7.27528 17.2452 7.27501Z" fill="#40B5E7"/>
</svg>
