<svg width="27" height="28" viewBox="0 0 27 28" fill="none" xmlns="http://www.w3.org/2000/svg">
<path d="M20.6637 19.439V19.4385H20.667V14.8541C20.667 12.6114 20.152 10.8838 17.3554 10.8838C16.0109 10.8838 15.1087 11.5755 14.7404 12.2312H14.7015V11.0932H12.0498V19.4385H14.8109V15.3062C14.8109 14.2182 15.0309 13.1661 16.4681 13.1661C17.8843 13.1661 17.9054 14.4078 17.9054 15.376V19.439H20.6637Z" fill="#40B5E7"/>
<path d="M7.55371 11.0937H10.3182V19.439H7.55371V11.0937Z" fill="#40B5E7"/>
<path d="M8.93412 6.939C8.05023 6.939 7.33301 7.61139 7.33301 8.44004C7.33301 9.26868 8.05023 9.95514 8.93412 9.95514C9.81801 9.95514 10.5352 9.26868 10.5352 8.44004C10.5347 7.61139 9.81745 6.939 8.93412 6.939V6.939Z" fill="#40B5E7"/>
<circle cx="13.5" cy="14.189" r="13" stroke="#40B5E7"/>
</svg>
