<svg width="12" height="13" viewBox="0 0 12 13" fill="none" xmlns="http://www.w3.org/2000/svg">
<path d="M8.05843 8.35602L7.74913 8.81997C7.68739 8.91257 7.60574 8.99159 7.49814 9.02002C7.14568 9.11316 6.20994 9.15522 4.7853 7.73058C3.36066 6.30594 3.40271 5.37019 3.49584 5.01773C3.52428 4.91013 3.60329 4.82848 3.6959 4.76674L4.15985 4.45744C4.50527 4.22716 4.59861 3.76046 4.36833 3.41504L3.49208 2.10067C3.29108 1.79918 2.9036 1.68399 2.57054 1.82673L2.17526 1.99613C1.87499 2.12482 1.63004 2.35578 1.48394 2.64798C1.36188 2.8921 1.26728 3.14918 1.25446 3.42182C1.21406 4.28101 1.40246 6.39779 3.76028 8.75561C6.11809 11.1134 8.23486 11.3018 9.09405 11.2614C9.36669 11.2486 9.62377 11.154 9.86789 11.0319C10.1601 10.8858 10.391 10.6409 10.5197 10.3406L10.6891 9.94533C10.8319 9.61227 10.7167 9.22478 10.4152 9.02379L9.10083 8.14754C8.75541 7.91726 8.28871 8.0106 8.05843 8.35602Z" fill="#40B5E7"/>
</svg>
