<svg width="34" height="28" viewBox="0 0 34 28" fill="none" xmlns="http://www.w3.org/2000/svg">
<circle cx="14" cy="14" r="13" transform="rotate(90 14 14)" stroke="#7C8A99" stroke-linecap="round" stroke-dasharray="0.1 15 15 0.1 15 15"/>
<path d="M32.9583 14.5C33.2344 14.5 33.4583 14.2761 33.4583 14C33.4583 13.7239 33.2344 13.5 32.9583 13.5V14.5ZM10.3964 13.6464C10.2011 13.8417 10.2011 14.1583 10.3964 14.3536L13.5783 17.5355C13.7736 17.7308 14.0902 17.7308 14.2855 17.5355C14.4807 17.3403 14.4807 17.0237 14.2855 16.8284L11.457 14L14.2855 11.1716C14.4807 10.9763 14.4807 10.6597 14.2855 10.4645C14.0902 10.2692 13.7736 10.2692 13.5783 10.4645L10.3964 13.6464ZM32.9583 13.5L10.7499 13.5L10.7499 14.5L32.9583 14.5V13.5Z" fill="#7C8A99"/>
</svg>
