<svg width="24" height="24" viewBox="0 0 24 24" fill="none" xmlns="http://www.w3.org/2000/svg">
<g clip-path="url(#clip0)">
<path d="M2.56583 7.70709C2.75882 7.72852 2.9324 7.58881 2.95346 7.39563L3.15396 5.55707C3.19168 5.21155 3.48227 4.95117 3.8298 4.95117H6.27243V6.12964C6.27243 6.32373 6.42972 6.4812 6.62399 6.4812C6.81808 6.4812 6.97555 6.32373 6.97555 6.12964V4.95117H13.0202V6.12964C13.0202 6.32373 13.1777 6.4812 13.372 6.4812C13.5661 6.4812 13.7235 6.32373 13.7235 6.12964V4.95117H16.166C16.5135 4.95117 16.8041 5.21173 16.8418 5.55725L17.3239 9.97614C17.3435 10.1563 17.4959 10.2896 17.6729 10.2896C17.6856 10.2896 17.6986 10.2889 17.7114 10.2876C17.9046 10.2665 18.0439 10.093 18.0229 9.89996L17.5407 5.4809C17.464 4.77795 16.873 4.24786 16.166 4.24786H13.7234V3.72546C13.7235 1.6712 12.0522 0 9.99789 0C7.94363 0 6.27243 1.6712 6.27243 3.72546V4.24786H3.8298C3.12283 4.24786 2.53177 4.77795 2.45505 5.4809L2.25455 7.31946C2.23349 7.51245 2.37283 7.68604 2.56583 7.70709ZM6.97555 3.72546C6.97555 2.05902 8.33145 0.703125 9.99789 0.703125C11.6645 0.703125 13.0202 2.05902 13.0202 3.72546V4.24786H6.97555V3.72546Z" fill="#8F9FAE"/>
<path d="M19.4332 12.9536C19.0027 13.3841 19.0027 14.0846 19.4332 14.5151C19.6484 14.7305 19.9311 14.8381 20.214 14.8381C20.4967 14.8381 20.7794 14.7305 20.9947 14.5151C21.4252 14.0846 21.4252 13.3841 20.9947 12.9536C20.5643 12.5231 19.8637 12.5231 19.4332 12.9536ZM20.4976 14.018C20.3412 14.1744 20.0867 14.1744 19.9303 14.018C19.774 13.8616 19.774 13.6071 19.9303 13.4509C20.0867 13.2945 20.3412 13.2945 20.4976 13.4509C20.654 13.6073 20.654 13.8616 20.4976 14.018Z" fill="#8F9FAE"/>
<path d="M22.9605 16.5826L22.7968 12.5422C22.7664 11.7927 22.1556 11.1821 21.4063 11.1517L17.3657 10.9878C16.9621 10.9713 16.567 11.1259 16.2814 11.4115L10.4011 17.2918C10.1063 17.5866 9.95562 17.9716 9.94866 18.3587H1.75744L2.80132 8.78815C2.82238 8.59497 2.68304 8.42157 2.49005 8.40051C2.29669 8.37927 2.12347 8.5188 2.10241 8.71179L1.04809 18.3768C0.959834 19.1874 1.22131 20.0004 1.76586 20.6076C2.31024 21.2146 3.09027 21.5627 3.90545 21.5627H12.4825L14.467 23.5472C14.7689 23.8491 15.1653 24 15.5618 24C15.9582 24 16.3548 23.8491 16.6565 23.5472L22.5368 17.6669C22.8224 17.3813 22.977 16.9861 22.9605 16.5826ZM3.90545 20.8596C3.28967 20.8596 2.70062 20.5966 2.28936 20.1381C2.01544 19.8329 1.83636 19.4586 1.76696 19.0618H10.1027C10.1759 19.2136 10.2755 19.3557 10.4011 19.4813L11.7793 20.8596H3.90545ZM22.0397 17.1698L16.1594 23.0501C15.8298 23.3795 15.2937 23.3796 14.9641 23.0501L10.8982 18.9842C10.5688 18.6546 10.5688 18.1185 10.8982 17.7889L16.7787 11.9086C16.9188 11.7686 17.1099 11.6898 17.3073 11.6898C17.3172 11.6898 17.3273 11.69 17.3373 11.6904L21.3777 11.8542C21.7639 11.8698 22.0785 12.1846 22.0942 12.5706L22.2579 16.611C22.2663 16.819 22.1869 17.0226 22.0397 17.1698Z" fill="#8F9FAE"/>
<path d="M15.3641 17.005C16.0376 17.005 16.5856 16.457 16.5856 15.7837C16.5856 15.1102 16.0376 14.5622 15.3641 14.5622C14.6907 14.5622 14.1428 15.1102 14.1428 15.7837C14.1428 16.457 14.6907 17.005 15.3641 17.005ZM15.3641 15.2655C15.65 15.2655 15.8825 15.4979 15.8825 15.7837C15.8825 16.0693 15.65 16.3019 15.3641 16.3019C15.0785 16.3019 14.8459 16.0693 14.8459 15.7837C14.8459 15.4979 15.0785 15.2655 15.3641 15.2655Z" fill="#8F9FAE"/>
<path d="M17.5453 17.9824C16.8718 17.9824 16.324 18.5303 16.324 19.2037C16.324 19.8772 16.8718 20.4252 17.5453 20.4252C18.2188 20.4252 18.7666 19.8772 18.7666 19.2037C18.7666 18.5303 18.2188 17.9824 17.5453 17.9824ZM17.5453 19.7219C17.2595 19.7219 17.0271 19.4896 17.0271 19.2037C17.0271 18.9181 17.2595 18.6855 17.5453 18.6855C17.8311 18.6855 18.0635 18.9181 18.0635 19.2037C18.0635 19.4896 17.8309 19.7219 17.5453 19.7219Z" fill="#8F9FAE"/>
<path d="M18.4961 15.4525C18.3587 15.3152 18.1361 15.3152 17.9989 15.4525L14.4135 19.0379C14.2762 19.1752 14.2762 19.3979 14.4135 19.535C14.482 19.6037 14.5721 19.6381 14.662 19.6381C14.7519 19.6381 14.842 19.6037 14.9107 19.535L18.4961 15.9496C18.6334 15.8123 18.6334 15.5896 18.4961 15.4525Z" fill="#8F9FAE"/>
</g>
<defs>
<clipPath id="clip0">
<rect width="24" height="24" fill="white"/>
</clipPath>
</defs>
</svg>
