<svg width="24" height="24" viewBox="0 0 24 24" fill="none" xmlns="http://www.w3.org/2000/svg">
<g clip-path="url(#clip0)">
<path d="M19.1387 21.7733H19.8486V22.522H19.1387V21.7733Z" fill="#8F9FAE"/>
<path d="M17.6414 21.7733H18.3513V22.522H17.6414V21.7733Z" fill="#8F9FAE"/>
<path d="M16.1438 21.7733H16.8537V22.522H16.1438V21.7733Z" fill="#8F9FAE"/>
<path d="M20.223 5.83008V2.32654H15.2832L12.0069 0L8.73041 2.32654H6.76587V3.03644H19.5131V10.8926L17.6161 12.1163L18.001 12.7128L23.2567 9.32263V22.788L16.7501 16.2814L16.248 16.7834L22.7546 23.2899H9.38629V24H23.9666V8.48767L20.223 5.83008ZM12.0069 0.870667L14.0569 2.32635H9.95667L12.0069 0.870667ZM20.223 6.70074L22.9786 8.65704L20.223 10.4344V6.70074Z" fill="#8F9FAE"/>
<path d="M7.7655 16.7834L7.26343 16.2814L0.756775 22.788V9.32263L12.0068 16.5806L17.0656 13.3163L16.6807 12.7196L12.0066 15.7355L4.50037 10.8922V3.03644H5.64276V2.32654H3.79028V5.8299L0.046875 8.48767V24H8.26318V23.2901H1.25885L7.7655 16.7834ZM3.79028 10.4343L1.03491 8.65704L3.79028 6.70056V10.4343Z" fill="#8F9FAE"/>
<path d="M9.03125 10.9171C9.03125 11.5578 9.34015 12.7696 10.5093 12.7696H13.504C14.6731 12.7696 14.9822 11.5578 14.9822 10.9171C14.9822 9.70734 14.2558 8.66455 13.2169 8.19983C13.6098 7.85999 13.859 7.35828 13.859 6.79926C13.859 5.77789 13.0281 4.94678 12.0067 4.94678C10.9852 4.94678 10.1542 5.77789 10.1542 6.79926C10.1542 7.35846 10.4034 7.85999 10.7964 8.20001C9.75745 8.66455 9.03125 9.70734 9.03125 10.9171ZM12.0067 8.65173C12.2028 8.65173 12.3931 8.67682 12.5749 8.72388L12.0067 9.29205L11.4385 8.72388C11.62 8.67682 11.8104 8.65173 12.0067 8.65173ZM10.8641 6.79926C10.8641 6.16937 11.3766 5.65686 12.0067 5.65686C12.6366 5.65686 13.1491 6.16937 13.1491 6.79926C13.1491 7.42932 12.6366 7.94165 12.0067 7.94165C11.3766 7.94165 10.8641 7.42914 10.8641 6.79926ZM10.7462 9.03571L12.0065 10.2962L13.267 9.03571C13.8727 9.44275 14.2721 10.1342 14.2721 10.9171C14.2721 10.9202 14.2688 11.2357 14.1544 11.5413C13.98 12.0059 13.6997 12.0595 13.504 12.0595H10.5093C10.3161 12.0595 10.0392 12.0073 9.86438 11.5552C9.74445 11.2456 9.74115 10.9193 9.74115 10.9173C9.74115 10.1342 10.1405 9.44275 10.7462 9.03571Z" fill="#8F9FAE"/>
<path d="M18.0156 3.80457H18.7257V4.5531H18.0156V3.80457Z" fill="#8F9FAE"/>
<path d="M16.5183 3.80457H17.2282V4.5531H16.5183V3.80457Z" fill="#8F9FAE"/>
<path d="M5.99768 7.17371H5.2876V3.82397H7.14008V4.53387H5.99768V7.17371Z" fill="#8F9FAE"/>
</g>
<defs>
<clipPath id="clip0">
<rect width="24" height="24" fill="white"/>
</clipPath>
</defs>
</svg>
