<svg width="24" height="24" viewBox="0 0 24 24" fill="none" xmlns="http://www.w3.org/2000/svg">
<path d="M6.85984 16.7652L7.39019 16.2348L3.15536 12L13.6554 1.5H19.875V3H19.0605C18.9721 2.74979 18.798 2.53892 18.5691 2.40464C18.3402 2.27036 18.0712 2.22132 17.8096 2.2662C17.5481 2.31108 17.3108 2.44698 17.1397 2.64988C16.9687 2.85278 16.8749 3.10962 16.8749 3.375C16.8749 3.64038 16.9687 3.89722 17.1397 4.10012C17.3108 4.30302 17.5481 4.43892 17.8096 4.4838C18.0712 4.52868 18.3402 4.47964 18.5691 4.34536C18.798 4.21108 18.9721 4.00021 19.0605 3.75H19.875V7.71966L12.4848 15.1098L13.0152 15.6402L20.5152 8.14017C20.55 8.10535 20.5776 8.06401 20.5965 8.01851C20.6153 7.97301 20.625 7.92425 20.625 7.875V6H21.75C22.1478 6 22.5294 5.84196 22.8107 5.56066C23.092 5.27936 23.25 4.89782 23.25 4.5C23.25 4.10218 23.092 3.72064 22.8107 3.43934C22.5294 3.15804 22.1478 3 21.75 3H20.625V1.125C20.625 1.02554 20.5855 0.930161 20.5152 0.859835C20.4449 0.789509 20.3495 0.75 20.25 0.75H13.5C13.4508 0.749998 13.402 0.759696 13.3565 0.778541C13.311 0.797385 13.2697 0.825007 13.2348 0.859828L2.35984 11.7348C2.32502 11.7697 2.29739 11.811 2.27855 11.8565C2.2597 11.902 2.25 11.9508 2.25 12C2.25 12.0492 2.2597 12.098 2.27855 12.1435C2.29739 12.189 2.32502 12.2304 2.35984 12.2652L6.85984 16.7652ZM17.625 3.375C17.6251 3.27558 17.6647 3.18026 17.735 3.10996C17.8053 3.03966 17.9006 3.00011 18 3V3.75C17.9006 3.74989 17.8053 3.71034 17.735 3.64004C17.6647 3.56974 17.6251 3.47442 17.625 3.375ZM21.75 3.75C21.9489 3.75 22.1397 3.82902 22.2804 3.96967C22.421 4.11032 22.5 4.30109 22.5 4.5C22.5 4.69891 22.421 4.88968 22.2804 5.03033C22.1397 5.17098 21.9489 5.25 21.75 5.25H20.625V3.75H21.75Z" fill="#8F9FAE"/>
<path d="M10.9307 8.14939C10.9873 8.33042 11.0863 8.49537 11.2193 8.6306C11.3523 8.76583 11.5156 8.86747 11.6957 8.9271C11.7007 9.10524 11.7466 9.27984 11.8298 9.43743C11.913 9.59502 12.0313 9.73139 12.1756 9.836C12.3305 9.95319 12.5109 10.0322 12.7021 10.0666C12.8933 10.1009 13.0899 10.0897 13.2759 10.0338C13.3932 10.1793 13.5415 10.2968 13.7101 10.3774C13.8787 10.4581 14.0632 10.5 14.2501 10.5C14.437 10.5 14.6215 10.4581 14.7901 10.3774C14.9586 10.2968 15.107 10.1793 15.2242 10.0338C15.4103 10.0897 15.6069 10.1009 15.7981 10.0665C15.9893 10.0322 16.1697 9.95319 16.3246 9.836C16.4689 9.73139 16.5872 9.59502 16.6704 9.43743C16.7536 9.27984 16.7995 9.10524 16.8045 8.9271C16.9846 8.86747 17.1479 8.76583 17.2809 8.6306C17.4139 8.49537 17.5128 8.33042 17.5695 8.14939C17.6257 7.97839 17.6409 7.79655 17.6138 7.61859C17.5868 7.44062 17.5182 7.27153 17.4136 7.12499C17.5182 6.97844 17.5868 6.80935 17.6138 6.63139C17.6409 6.45342 17.6257 6.27158 17.5695 6.10058C17.5128 5.91955 17.4139 5.7546 17.2809 5.61937C17.1479 5.48414 16.9846 5.38251 16.8045 5.32288C16.7995 5.14474 16.7536 4.97013 16.6704 4.81254C16.5872 4.65495 16.4689 4.51859 16.3246 4.41397C16.1697 4.29677 15.9893 4.21778 15.7981 4.1834C15.6069 4.14903 15.4103 4.16025 15.2242 4.21616C15.107 4.07062 14.9586 3.95321 14.7901 3.87254C14.6215 3.79187 14.437 3.75 14.2501 3.75C14.0632 3.75 13.8787 3.79187 13.7101 3.87254C13.5415 3.95321 13.3932 4.07062 13.2759 4.21616C13.0899 4.16027 12.8933 4.14906 12.7021 4.18343C12.5109 4.2178 12.3305 4.29678 12.1756 4.41397C12.0313 4.51859 11.913 4.65495 11.8298 4.81254C11.7466 4.97014 11.7007 5.14474 11.6957 5.32288C11.5156 5.38251 11.3523 5.48414 11.2193 5.61937C11.0863 5.7546 10.9873 5.91955 10.9307 6.10058C10.8745 6.27158 10.8593 6.45342 10.8863 6.63139C10.9134 6.80935 10.982 6.97844 11.0865 7.12499C10.982 7.27153 10.9134 7.44062 10.8863 7.61859C10.8593 7.79655 10.8745 7.97839 10.9307 8.14939ZM11.8271 6.81219C11.746 6.76395 11.6839 6.68946 11.6509 6.60106C11.618 6.51267 11.6162 6.41567 11.646 6.32614C11.6765 6.2283 11.7392 6.14366 11.8239 6.08594C11.9086 6.02823 12.0103 6.00085 12.1125 6.00824C12.1737 6.00988 12.2345 5.99648 12.2893 5.96923C12.3442 5.94198 12.3916 5.9017 12.4273 5.85191C12.463 5.80212 12.4859 5.74434 12.4942 5.68363C12.5024 5.62291 12.4956 5.56111 12.4744 5.50363C12.4413 5.41695 12.4382 5.3217 12.4655 5.23304C12.4928 5.14438 12.549 5.0674 12.6251 5.01435C12.709 4.94845 12.8125 4.91248 12.9191 4.91215C13.0258 4.91182 13.1295 4.94715 13.2138 5.01252C13.2621 5.04834 13.3182 5.07204 13.3775 5.08164C13.4368 5.09124 13.4975 5.08645 13.5546 5.06768C13.6117 5.04891 13.6634 5.0167 13.7054 4.97377C13.7474 4.93084 13.7785 4.87844 13.7961 4.82099C13.8683 4.58436 14.078 4.49999 14.2501 4.49999C14.4222 4.49999 14.6318 4.58436 14.7041 4.82099C14.7217 4.87844 14.7528 4.93084 14.7948 4.97377C14.8368 5.0167 14.8885 5.04891 14.9456 5.06768C15.0027 5.08645 15.0634 5.09124 15.1227 5.08164C15.182 5.07204 15.2381 5.04834 15.2864 5.01252C15.3706 4.94709 15.4744 4.91173 15.581 4.91206C15.6877 4.9124 15.7912 4.9484 15.8751 5.01435C15.9512 5.0674 16.0074 5.14438 16.0347 5.23304C16.062 5.3217 16.0589 5.41695 16.0258 5.50363C16.0046 5.56111 15.9978 5.62291 16.006 5.68363C16.0142 5.74434 16.0372 5.80212 16.0729 5.85191C16.1086 5.9017 16.156 5.94198 16.2108 5.96923C16.2657 5.99648 16.3264 6.00988 16.3877 6.00824C16.4899 6.00103 16.5915 6.02848 16.6762 6.08617C16.7608 6.14385 16.8236 6.2284 16.8542 6.32614C16.884 6.41567 16.8822 6.51267 16.8493 6.60106C16.8163 6.68946 16.7542 6.76395 16.6731 6.81219C16.6214 6.84637 16.579 6.89283 16.5497 6.94742C16.5203 7.00201 16.5049 7.06301 16.5049 7.12499C16.5049 7.18696 16.5203 7.24797 16.5497 7.30255C16.579 7.35714 16.6214 7.4036 16.6731 7.43778C16.7542 7.48603 16.8163 7.56052 16.8493 7.64891C16.8822 7.73731 16.884 7.8343 16.8542 7.92383C16.8237 8.02164 16.761 8.10626 16.6763 8.16396C16.5916 8.22167 16.4899 8.24907 16.3877 8.24174C16.3264 8.2401 16.2657 8.25349 16.2108 8.28074C16.156 8.30799 16.1086 8.34827 16.0729 8.39806C16.0372 8.44785 16.0142 8.50563 16.006 8.56634C15.9978 8.62706 16.0046 8.68886 16.0258 8.74635C16.0589 8.83302 16.062 8.92827 16.0347 9.01693C16.0074 9.10559 15.9512 9.18257 15.8751 9.23563C15.7912 9.30152 15.6877 9.33749 15.581 9.33782C15.4744 9.33815 15.3707 9.30282 15.2864 9.23745C15.2381 9.20164 15.182 9.17793 15.1227 9.16833C15.0634 9.15873 15.0027 9.16352 14.9456 9.18229C14.8885 9.20106 14.8368 9.23327 14.7948 9.2762C14.7528 9.31913 14.7217 9.37153 14.7041 9.42899C14.6318 9.66561 14.4222 9.74999 14.2501 9.74999C14.078 9.74999 13.8683 9.66561 13.7961 9.42899C13.7785 9.37153 13.7474 9.31913 13.7054 9.2762C13.6634 9.23327 13.6117 9.20106 13.5546 9.18229C13.4975 9.16352 13.4368 9.15873 13.3775 9.16833C13.3182 9.17793 13.2621 9.20164 13.2138 9.23745C13.1295 9.30281 13.0258 9.33813 12.9191 9.33779C12.8125 9.33746 12.709 9.3015 12.6251 9.23563C12.549 9.18257 12.4928 9.10559 12.4655 9.01693C12.4382 8.92827 12.4413 8.83302 12.4744 8.74635C12.4956 8.68886 12.5024 8.62706 12.4942 8.56634C12.4859 8.50563 12.463 8.44785 12.4273 8.39806C12.3916 8.34827 12.3442 8.30799 12.2893 8.28074C12.2345 8.25349 12.1737 8.2401 12.1125 8.24174C12.0103 8.24921 11.9085 8.22186 11.8238 8.16413C11.7391 8.10641 11.6764 8.02171 11.646 7.92383C11.6162 7.8343 11.618 7.73731 11.6509 7.64891C11.6839 7.56052 11.746 7.48603 11.8271 7.43778C11.8788 7.4036 11.9212 7.35714 11.9505 7.30255C11.9799 7.24797 11.9952 7.18696 11.9952 7.12499C11.9952 7.06301 11.9799 7.00201 11.9505 6.94742C11.9212 6.89283 11.8788 6.84637 11.8271 6.81219Z" fill="#8F9FAE"/>
<path d="M6.48486 9.85982L4.23486 12.1098L4.76519 12.6401L7.01519 10.3901L6.48486 9.85982Z" fill="#8F9FAE"/>
<path d="M7.60985 10.9848L5.35986 13.2348L5.89019 13.7651L8.14018 11.5151L7.60985 10.9848Z" fill="#8F9FAE"/>
<path d="M8.73485 12.1098L6.48486 14.3598L7.01519 14.8901L9.26518 12.6401L8.73485 12.1098Z" fill="#8F9FAE"/>
<path d="M9.85985 13.2348L7.60986 15.4848L8.14019 16.0151L10.3902 13.7651L9.85985 13.2348Z" fill="#8F9FAE"/>
<path d="M10.9849 14.3599L9.85986 15.4849L10.3902 16.0152L11.5152 14.8902L10.9849 14.3599Z" fill="#8F9FAE"/>
<path d="M9.26519 7.98481L8.73486 8.51514L9.64892 9.4292L10.1792 8.89886L9.26519 7.98481Z" fill="#8F9FAE"/>
<path d="M10.6714 9.39112L10.1411 9.92145L12.4849 12.2652L13.0152 11.7349L10.6714 9.39112Z" fill="#8F9FAE"/>
<path d="M4.78402 3.36382C5.17138 3.46022 5.52518 3.66028 5.80744 3.94254C6.0897 4.2248 6.28976 4.5786 6.38616 4.96596C6.40645 5.04709 6.45328 5.11911 6.51919 5.17057C6.58511 5.22203 6.66633 5.24998 6.74996 5.24998C6.83359 5.24998 6.91481 5.22203 6.98073 5.17057C7.04665 5.11911 7.09347 5.04709 7.11376 4.96596C7.21016 4.5786 7.41022 4.2248 7.69248 3.94254C7.97474 3.66028 8.32854 3.46022 8.7159 3.36382C8.79703 3.34353 8.86904 3.29671 8.92051 3.23079C8.97197 3.16487 8.99992 3.08365 8.99992 3.00002C8.99992 2.9164 8.97197 2.83517 8.92051 2.76925C8.86904 2.70334 8.79703 2.65651 8.7159 2.63622C8.32854 2.53982 7.97474 2.33976 7.69248 2.0575C7.41022 1.77524 7.21016 1.42144 7.11376 1.03408C7.09347 0.952956 7.04665 0.880938 6.98073 0.829476C6.91481 0.778014 6.83359 0.750061 6.74996 0.750061C6.66633 0.750061 6.58511 0.778014 6.51919 0.829476C6.45328 0.880938 6.40645 0.952956 6.38616 1.03408C6.28976 1.42144 6.0897 1.77524 5.80744 2.0575C5.52518 2.33976 5.17138 2.53982 4.78402 2.63622C4.7029 2.65651 4.63088 2.70334 4.57941 2.76925C4.52795 2.83517 4.5 2.9164 4.5 3.00002C4.5 3.08365 4.52795 3.16487 4.57941 3.23079C4.63088 3.29671 4.7029 3.34353 4.78402 3.36382ZM6.74996 2.07096C6.98568 2.4467 7.30328 2.7643 7.67902 3.00002C7.30328 3.23574 6.98568 3.55334 6.74996 3.92908C6.51424 3.55334 6.19664 3.23574 5.8209 3.00002C6.19664 2.7643 6.51424 2.4467 6.74996 2.07096Z" fill="#8F9FAE"/>
<path d="M18.688 11.1567L15.8599 13.9848L16.3902 14.5151L19.2183 11.687L18.688 11.1567Z" fill="#8F9FAE"/>
<path d="M19.9848 9.85988L19.2349 10.6099L19.7652 11.1402L20.5152 10.3902L19.9848 9.85988Z" fill="#8F9FAE"/>
<path d="M22.875 15.75H19.5C19.4006 15.75 19.3052 15.7895 19.2349 15.8598C19.1645 15.9302 19.125 16.0255 19.125 16.125V16.4804C18.2149 15.8264 17.1369 15.446 16.0179 15.384C14.8989 15.322 13.7854 15.581 12.8086 16.1305L12.1518 16.5H9.00004C8.65881 16.4999 8.32401 16.5929 8.03176 16.769C7.73951 16.9452 7.5009 17.1978 7.34165 17.4995C7.18241 17.8013 7.10857 18.1409 7.12812 18.4816C7.14766 18.8222 7.25984 19.1511 7.45255 19.4327L3.4528 17.4456C3.21356 17.3271 2.95062 17.2643 2.68368 17.2619L2.52247 17.2607C2.12508 17.2576 1.73836 17.3893 1.42533 17.6341C1.11229 17.8789 0.891389 18.2225 0.798609 18.609C0.70583 18.9954 0.74664 19.4018 0.914393 19.7621C1.08214 20.1224 1.36695 20.4152 1.72241 20.5929L6.3239 22.8937C6.79275 23.1275 7.30939 23.2494 7.83327 23.25H22.875C22.9745 23.25 23.0699 23.2105 23.1402 23.1402C23.2105 23.0698 23.25 22.9745 23.25 22.875V16.125C23.25 16.0255 23.2105 15.9302 23.1402 15.8598C23.0699 15.7895 22.9745 15.75 22.875 15.75ZM6.65929 22.2229L2.05785 19.9221C1.85456 19.8205 1.69153 19.6532 1.59519 19.4473C1.49884 19.2415 1.47483 19.0091 1.52702 18.7879C1.57922 18.5667 1.70457 18.3696 1.88278 18.2285C2.06098 18.0875 2.2816 18.0107 2.50888 18.0106H2.5168L2.67791 18.0119C2.83103 18.0133 2.98186 18.0493 3.1191 18.1172L7.33316 20.2108C7.38502 20.2366 7.44214 20.25 7.50004 20.25H12.375C12.4745 20.25 12.5699 20.2105 12.6402 20.1402C12.7105 20.0698 12.75 19.9745 12.75 19.875C12.75 19.7755 12.7105 19.6802 12.6402 19.6098C12.5699 19.5395 12.4745 19.5 12.375 19.5H9.00004C8.70167 19.5 8.41552 19.3815 8.20454 19.1705C7.99356 18.9595 7.87504 18.6734 7.87504 18.375C7.87504 18.0766 7.99356 17.7905 8.20454 17.5795C8.41552 17.3685 8.70167 17.25 9.00004 17.25H12.25C12.3144 17.25 12.3777 17.2334 12.4339 17.2019L13.1763 16.7842C14.0681 16.2826 15.0894 16.059 16.1091 16.142C17.1289 16.225 18.1006 16.6108 18.8995 17.25L19.125 17.4302V22.5H7.83323C7.42576 22.4995 7.02395 22.4047 6.65929 22.2229ZM22.5 22.5H19.875V16.5H22.5V22.5Z" fill="#8F9FAE"/>
<path d="M21.1875 21.375C21.2987 21.375 21.4075 21.342 21.5 21.2802C21.5925 21.2184 21.6646 21.1305 21.7072 21.0278C21.7498 20.925 21.7609 20.8119 21.7392 20.7028C21.7175 20.5936 21.6639 20.4934 21.5852 20.4148C21.5066 20.3361 21.4063 20.2825 21.2972 20.2608C21.1881 20.2391 21.075 20.2502 20.9722 20.2928C20.8695 20.3354 20.7816 20.4075 20.7198 20.5C20.658 20.5925 20.625 20.7012 20.625 20.8125C20.6252 20.9616 20.6845 21.1046 20.7899 21.2101C20.8954 21.3155 21.0384 21.3748 21.1875 21.375Z" fill="#8F9FAE"/>
<path d="M8.51519 9.48481L7.98486 10.0151L10.9849 13.0151L11.5152 12.4848L8.51519 9.48481Z" fill="#8F9FAE"/>
</svg>
