<svg width="24" height="24" viewBox="0 0 24 24" fill="none" xmlns="http://www.w3.org/2000/svg">
<path d="M10.125 21.0469C9.86625 21.0469 9.65625 21.2569 9.65625 21.5156C9.65625 21.7744 9.86625 21.9844 10.125 21.9844C10.3838 21.9844 10.5938 21.7744 10.5938 21.5156C10.5938 21.2569 10.3838 21.0469 10.125 21.0469Z" fill="#8F9FAE"/>
<path d="M12.9375 16.3594H12.4688V13.0781C12.4688 12.8192 12.2589 12.6094 12 12.6094H11.0625C10.8036 12.6094 10.5938 12.8192 10.5938 13.0781C10.5938 13.337 10.8036 13.5469 11.0625 13.5469H11.5312V16.3594H11.0625C10.8036 16.3594 10.5938 16.5692 10.5938 16.8281C10.5938 17.087 10.8036 17.2969 11.0625 17.2969H12.9375C13.1964 17.2969 13.4062 17.087 13.4062 16.8281C13.4062 16.5692 13.1964 16.3594 12.9375 16.3594Z" fill="#8F9FAE"/>
<path d="M5.29688 19.1719C5.55577 19.1719 5.76562 18.962 5.76562 18.7031V16.8281C5.76562 16.5692 5.55577 16.3594 5.29688 16.3594H3.42188C3.16298 16.3594 2.95312 16.5692 2.95312 16.8281C2.95312 17.087 3.16298 17.2969 3.42188 17.2969H4.82812V18.2344H3.42188C3.16298 18.2344 2.95312 18.4442 2.95312 18.7031V20.5781C2.95312 20.837 3.16298 21.0469 3.42188 21.0469H5.29688C5.55577 21.0469 5.76562 20.837 5.76562 20.5781C5.76562 20.3192 5.55577 20.1094 5.29688 20.1094H3.89062V19.1719H5.29688Z" fill="#8F9FAE"/>
<path d="M20.5781 17.2969H18.7031C18.4442 17.2969 18.2344 17.5067 18.2344 17.7656C18.2344 18.0245 18.4442 18.2344 18.7031 18.2344H20.1094V19.1719H18.7031C18.4442 19.1719 18.2344 19.3817 18.2344 19.6406C18.2344 19.8995 18.4442 20.1094 18.7031 20.1094H20.1094V21.0469H18.7031C18.4442 21.0469 18.2344 21.2567 18.2344 21.5156C18.2344 21.7745 18.4442 21.9844 18.7031 21.9844H20.5781C20.837 21.9844 21.0469 21.7745 21.0469 21.5156V17.7656C21.0469 17.5067 20.837 17.2969 20.5781 17.2969Z" fill="#8F9FAE"/>
<path d="M23.5312 15.4219H16.2188V11.0625C16.2188 10.8036 16.0089 10.5938 15.75 10.5938H8.25C7.99111 10.5938 7.78125 10.8036 7.78125 11.0625V13.5469H0.46875C0.209859 13.5469 0 13.7567 0 14.0156V23.5312C0 23.7901 0.209859 24 0.46875 24H8.25H15.75H23.5312C23.7901 24 24 23.7901 24 23.5312V15.8906C24 15.6317 23.7901 15.4219 23.5312 15.4219ZM7.78125 23.0625H0.9375V14.4844H7.78125V23.0625ZM15.2812 23.0625H8.71875V11.5312H15.2812V23.0625ZM23.0625 23.0625H16.2188V16.3594H23.0625V23.0625Z" fill="#8F9FAE"/>
<path d="M16.6535 3.5723C16.5983 3.40261 16.4517 3.27891 16.2751 3.25327L13.6063 2.86556L12.4074 0.272063C12.3307 0.106219 12.1647 0 11.9819 0C11.7992 0 11.6331 0.106172 11.5564 0.272016L10.3571 2.86566L7.68824 3.25336C7.51166 3.279 7.36499 3.4027 7.30981 3.57239C7.25469 3.74208 7.30067 3.92836 7.42845 4.05291L9.36674 5.9422L8.90741 8.75049C8.87872 8.92594 8.95171 9.10252 9.09594 9.20648C9.24022 9.31041 9.43086 9.32381 9.58813 9.24108L11.9818 7.98234L14.375 9.24103C14.4436 9.27713 14.5185 9.29489 14.5932 9.29489C14.6897 9.29489 14.7859 9.26508 14.8672 9.20644C15.0115 9.10252 15.0845 8.92594 15.0558 8.75044L14.5965 5.94216L16.5348 4.05286C16.6627 3.92831 16.7086 3.74203 16.6535 3.5723ZM13.7674 5.4412C13.6578 5.54799 13.6072 5.70155 13.6319 5.85253L13.9788 7.97325L12.2001 7.03777C12.0635 6.96595 11.9003 6.96595 11.7637 7.03777L9.98446 7.97334L10.3313 5.85253C10.356 5.70155 10.3055 5.54799 10.1959 5.4412L8.76299 4.04452L10.7433 3.75684C10.9002 3.73406 11.0349 3.63356 11.1014 3.4897L11.9818 1.58573L12.8618 3.48961C12.9283 3.63352 13.0631 3.73402 13.22 3.7568L15.2003 4.04447L13.7674 5.4412Z" fill="#8F9FAE"/>
<path d="M13.875 21.0469H12C11.7411 21.0469 11.5312 21.2567 11.5312 21.5156C11.5312 21.7745 11.7411 21.9844 12 21.9844H13.875C14.1339 21.9844 14.3438 21.7745 14.3438 21.5156C14.3438 21.2567 14.1339 21.0469 13.875 21.0469Z" fill="#8F9FAE"/>
</svg>
