<svg width="24" height="24" viewBox="0 0 24 24" fill="none" xmlns="http://www.w3.org/2000/svg">
<g clip-path="url(#clip0)">
<path d="M3.13815 7.96582C2.9119 7.96582 2.72852 8.14925 2.72852 8.3755C2.72852 8.60175 2.91194 8.78513 3.13815 8.78513C3.36435 8.78513 3.54777 8.6017 3.54777 8.3755C3.54782 8.14925 3.3644 7.96582 3.13815 7.96582Z" fill="#8F9FAE"/>
<path d="M5.51319 7.96582C5.28694 7.96582 5.10352 8.14925 5.10352 8.3755C5.10352 8.60175 5.28694 8.78513 5.51319 8.78513C5.73944 8.78513 5.92282 8.6017 5.92282 8.3755C5.92282 8.14925 5.73944 7.96582 5.51319 7.96582Z" fill="#8F9FAE"/>
<path d="M7.88814 7.96582C7.66189 7.96582 7.47852 8.14925 7.47852 8.3755C7.47852 8.60175 7.66194 8.78513 7.88814 8.78513C8.11439 8.78513 8.29782 8.6017 8.29782 8.3755C8.29782 8.14925 8.11439 7.96582 7.88814 7.96582Z" fill="#8F9FAE"/>
<path d="M16.1115 8.78513C16.3378 8.78513 16.5212 8.6017 16.5212 8.3755C16.5212 8.14925 16.3378 7.96582 16.1115 7.96582C15.8853 7.96582 15.7019 8.14925 15.7019 8.3755C15.7019 8.6017 15.8853 8.78513 16.1115 8.78513Z" fill="#8F9FAE"/>
<path d="M18.4866 8.78513C18.7128 8.78513 18.8963 8.6017 18.8963 8.3755C18.8963 8.14925 18.7128 7.96582 18.4866 7.96582C18.2603 7.96582 18.0769 8.14925 18.0769 8.3755C18.0769 8.6017 18.2603 8.78513 18.4866 8.78513Z" fill="#8F9FAE"/>
<path d="M20.8616 8.78513C21.0878 8.78513 21.2713 8.6017 21.2713 8.3755C21.2713 8.14925 21.0878 7.96582 20.8616 7.96582C20.6353 7.96582 20.4519 8.14925 20.4519 8.3755C20.452 8.6017 20.6353 8.78513 20.8616 8.78513Z" fill="#8F9FAE"/>
<path d="M3.64707 12.748H7.37967C7.57523 12.748 7.73378 12.5894 7.73378 12.3938C7.73378 12.1983 7.57523 12.0397 7.37967 12.0397H3.64707C3.45151 12.0397 3.29297 12.1983 3.29297 12.3938C3.29297 12.5895 3.45151 12.748 3.64707 12.748Z" fill="#8F9FAE"/>
<path d="M3.64707 14.6994H7.37967C7.57523 14.6994 7.73378 14.5408 7.73378 14.3453C7.73378 14.1497 7.57523 13.9911 7.37967 13.9911H3.64707C3.45151 13.9911 3.29297 14.1497 3.29297 14.3453C3.29297 14.5409 3.45151 14.6994 3.64707 14.6994Z" fill="#8F9FAE"/>
<path d="M3.64413 4.75046C3.88837 4.75046 4.12944 4.68729 4.3412 4.56783C4.3428 4.56694 4.34422 4.56585 4.34582 4.56491C4.65068 4.85338 5.06159 5.03086 5.51343 5.03086C5.96489 5.03086 6.37551 4.85367 6.68027 4.56561C6.8925 4.68549 7.13409 4.75046 7.37975 4.75046C8.16274 4.75046 8.7998 4.1134 8.7998 3.3304C8.7998 2.54741 8.16274 1.91035 7.37975 1.91035C7.13093 1.91035 6.89274 1.97446 6.68041 2.09529C6.37565 1.80719 5.96498 1.62994 5.51347 1.62994C5.06168 1.62994 4.65083 1.80737 4.34601 2.09576C4.1327 1.97423 3.89219 1.91035 3.64418 1.91035C2.86118 1.91035 2.22412 2.54741 2.22412 3.3304C2.22407 4.1134 2.86109 4.75046 3.64413 4.75046ZM8.09155 3.3304C8.09155 3.72289 7.77219 4.04225 7.3797 4.04225C7.27611 4.04225 7.17654 4.02053 7.08508 3.97879C7.1679 3.77884 7.21384 3.55991 7.21384 3.3304C7.21384 3.10104 7.16794 2.88225 7.08523 2.68239C7.17682 2.64065 7.2764 2.61856 7.3797 2.61856C7.77219 2.61851 8.09155 2.93787 8.09155 3.3304ZM5.51343 2.33811C6.06054 2.33811 6.50567 2.78324 6.50567 3.33036C6.50567 3.87747 6.06054 4.3226 5.51343 4.3226C4.96631 4.3226 4.52118 3.87747 4.52118 3.33036C4.52118 2.78324 4.96626 2.33811 5.51343 2.33811ZM3.64413 2.61851C3.74776 2.61851 3.84861 2.64094 3.94111 2.68348C3.85872 2.88305 3.81292 3.10142 3.81292 3.33036C3.81292 3.5593 3.85867 3.77766 3.94106 3.97723C3.84847 4.01973 3.74701 4.04225 3.64408 4.04225C3.25159 4.04225 2.93224 3.72289 2.93224 3.3304C2.93228 2.93787 3.25159 2.61851 3.64413 2.61851Z" fill="#8F9FAE"/>
<path d="M22.3803 0H14.5931C14.1715 0 13.8286 0.342915 13.8286 0.764442V2.34989C13.8286 2.54545 13.9872 2.70399 14.1827 2.70399C14.3783 2.70399 14.5368 2.54545 14.5368 2.34989V0.764442C14.5368 0.733422 14.5621 0.70821 14.5931 0.70821H22.3804C22.4114 0.70821 22.4366 0.733422 22.4366 0.764442V6.09169H14.5368V3.76631C14.5368 3.57075 14.3783 3.4122 14.1827 3.4122C13.9872 3.4122 13.8286 3.57075 13.8286 3.76631V17.015C13.8286 17.4365 14.1715 17.7794 14.5931 17.7794H18.4192V19.9049C18.4192 20.9365 17.5799 21.7758 16.5482 21.7758H13.5246C13.3586 20.9134 12.5986 20.2599 11.6886 20.2599C10.7785 20.2599 10.0185 20.9135 9.85251 21.7758H7.32869C6.29701 21.7758 5.45774 20.9365 5.45774 19.9049V17.7794H9.4069C9.82843 17.7794 10.1713 17.4365 10.1713 17.015V0.764442C10.1713 0.342915 9.82843 0 9.4069 0H1.61967C1.19814 0 0.855225 0.342915 0.855225 0.764442V13.183C0.855225 13.3786 1.01377 13.5371 1.20933 13.5371C1.40489 13.5371 1.56343 13.3786 1.56343 13.183V10.6593H9.46314V17.015C9.46314 17.046 9.43792 17.0712 9.4069 17.0712H1.61967C1.58865 17.0712 1.56343 17.046 1.56343 17.015V14.5995C1.56343 14.4039 1.40489 14.2454 1.20933 14.2454C1.01377 14.2454 0.855225 14.4039 0.855225 14.5995V17.015C0.855225 17.4365 1.19814 17.7794 1.61967 17.7794H4.74953V19.9049C4.74953 21.327 5.90655 22.4841 7.32869 22.4841H9.85251C10.0185 23.3464 10.7785 24.0001 11.6886 24.0001C12.5987 24.0001 13.3586 23.3464 13.5246 22.4841H16.5482C17.9704 22.4841 19.1274 21.327 19.1274 19.9049V17.7794H22.3803C22.8018 17.7794 23.1448 17.4365 23.1448 17.015V0.764442C23.1448 0.342915 22.8018 0 22.3803 0V0ZM1.61967 0.70821H9.4069C9.43792 0.70821 9.46314 0.733422 9.46314 0.764442V6.09169H1.56343V0.764442C1.56343 0.733422 1.58865 0.70821 1.61967 0.70821ZM1.56343 9.95101V6.79985H9.46314V9.95101H1.56343ZM11.6886 23.2918C11.0479 23.2918 10.5267 22.7706 10.5267 22.1299C10.5267 21.4892 11.0479 20.968 11.6886 20.968C12.3292 20.968 12.8505 21.4893 12.8505 22.1299C12.8505 22.7706 12.3292 23.2918 11.6886 23.2918ZM22.4365 6.7999V9.95106H14.5368V6.7999H22.4365ZM22.3803 17.0712H14.5931C14.5621 17.0712 14.5368 17.046 14.5368 17.015V10.6592H22.4365V17.015C22.4365 17.046 22.4113 17.0712 22.3803 17.0712Z" fill="#8F9FAE"/>
<path d="M20.3531 12.0397H16.6205C16.4249 12.0397 16.2664 12.1983 16.2664 12.3938C16.2664 12.5894 16.4249 12.748 16.6205 12.748H20.3531C20.5486 12.748 20.7072 12.5894 20.7072 12.3938C20.7072 12.1983 20.5486 12.0397 20.3531 12.0397Z" fill="#8F9FAE"/>
<path d="M20.3531 13.9911H16.6205C16.4249 13.9911 16.2664 14.1497 16.2664 14.3453C16.2664 14.5408 16.4249 14.6994 16.6205 14.6994H20.3531C20.5486 14.6994 20.7072 14.5408 20.7072 14.3453C20.7072 14.1497 20.5486 13.9911 20.3531 13.9911Z" fill="#8F9FAE"/>
<path d="M17.3185 4.56448C17.6235 4.8532 18.0345 5.03086 18.4866 5.03086C18.9378 5.03086 19.3482 4.85386 19.6529 4.56604C19.8658 4.68691 20.1055 4.75046 20.3528 4.75046C21.1358 4.75046 21.7729 4.1134 21.7729 3.3304C21.7729 2.54741 21.1358 1.91035 20.3528 1.91035C20.1066 1.91035 19.8652 1.97484 19.6531 2.09486C19.3484 1.807 18.9379 1.62994 18.4866 1.62994C18.0346 1.62994 17.6237 1.80752 17.3188 2.09609C17.1062 1.97546 16.864 1.91035 16.6173 1.91035C15.8343 1.91035 15.1973 2.54741 15.1973 3.3304C15.1973 4.1134 15.8343 4.75046 16.6173 4.75046C16.867 4.75046 17.1058 4.68601 17.3185 4.56448ZM21.0647 3.3304C21.0647 3.72289 20.7453 4.04225 20.3528 4.04225C20.2502 4.04225 20.1502 4.0202 20.0584 3.97837C20.1411 3.77851 20.187 3.55972 20.187 3.33036C20.187 3.1008 20.141 2.88187 20.0582 2.68192C20.1496 2.64023 20.2491 2.61851 20.3528 2.61851C20.7453 2.61851 21.0647 2.93787 21.0647 3.3304ZM18.4866 2.33811C19.0337 2.33811 19.4788 2.78324 19.4788 3.33036C19.4788 3.87747 19.0337 4.3226 18.4866 4.3226C17.9395 4.3226 17.4943 3.87747 17.4943 3.33036C17.4943 2.78324 17.9395 2.33811 18.4866 2.33811ZM15.9054 3.3304C15.9054 2.93791 16.2248 2.61856 16.6173 2.61856C16.7219 2.61856 16.8223 2.64065 16.9144 2.68315C16.832 2.88277 16.7861 3.10132 16.7861 3.3304C16.7861 3.55934 16.8319 3.77771 16.9142 3.97723C16.822 4.01977 16.7216 4.04225 16.6173 4.04225C16.2247 4.04225 15.9054 3.72289 15.9054 3.3304Z" fill="#8F9FAE"/>
</g>
<defs>
<clipPath id="clip0">
<rect width="24" height="24" fill="white"/>
</clipPath>
</defs>
</svg>
