<svg width="24" height="24" viewBox="0 0 24 24" fill="none" xmlns="http://www.w3.org/2000/svg">
<path d="M23.7897 10.0194L12.1449 4.81247C12.0526 4.77109 11.9473 4.77109 11.855 4.81247L7.1339 6.92347C6.95501 7.00349 6.87481 7.21333 6.95483 7.3924C7.03484 7.57148 7.24486 7.65168 7.42394 7.57166L11.9999 5.52548L16.1891 7.39863V10.0137C13.9659 9.20073 12.094 9.13903 12.0098 9.13665C12.0032 9.13646 11.9966 9.13646 11.99 9.13665C11.8997 9.13903 9.75265 9.20989 7.3214 10.2029C6.3515 10.5987 5.46546 11.0916 4.688 11.6677C4.62978 11.7109 4.5873 11.7702 4.56423 11.8369L1.22478 10.3435L5.90638 8.25006C6.08545 8.17004 6.16565 7.96021 6.08545 7.78113C6.00543 7.60205 5.79541 7.52186 5.61652 7.60187L0.21002 10.0194C0.0822136 10.0765 0 10.2036 0 10.3435C0 10.4836 0.0822136 10.6104 0.21002 10.6676L4.54427 12.6059V14.306C4.54427 14.5021 4.70338 14.6611 4.89931 14.6611C5.09541 14.6611 5.25434 14.5021 5.25434 14.306V12.3833C5.25434 12.3831 5.25434 12.3827 5.25434 12.3825V12.1337C5.94941 11.6375 6.73419 11.2094 7.58983 10.8602C9.81491 9.95146 11.8417 9.85313 12.0001 9.84672C12.1552 9.85277 14.0481 9.94322 16.1891 10.7723V14.3004C15.67 14.4538 15.2899 14.935 15.2899 15.5033C15.2899 16.0256 15.6107 16.4742 16.0657 16.6626L15.8174 17.3161C14.1973 17.5949 12.9145 17.9787 11.9999 18.4596C9.89328 17.3529 6.3656 17.0401 5.25453 16.9667V15.9708C5.25453 15.7747 5.09541 15.6158 4.89949 15.6158C4.70338 15.6158 4.54445 15.7747 4.54445 15.9708V17.3022C4.54445 17.492 4.69405 17.6484 4.88392 17.6568C4.93025 17.6588 9.54446 17.8744 11.8243 19.1727C11.8787 19.2037 11.9393 19.2193 12.0001 19.2193C12.0607 19.2193 12.1213 19.2037 12.1758 19.1726C12.9423 18.7357 14.0917 18.3651 15.523 18.0908L15.3131 18.6434C15.2716 18.7525 15.2864 18.875 15.3527 18.9711C15.419 19.0671 15.5283 19.1246 15.6449 19.1246H17.4437C17.5606 19.1246 17.6697 19.0671 17.736 18.9711C17.8023 18.875 17.8171 18.7525 17.7757 18.6434L17.4547 17.7987C18.4208 17.6881 19.1082 17.657 19.116 17.6566C19.3059 17.6484 19.4557 17.492 19.4557 17.302V15.9706C19.4557 15.7747 19.2966 15.6156 19.1006 15.6156C18.9045 15.6156 18.7456 15.7747 18.7456 15.9706V16.9671C18.4142 16.9894 17.8634 17.0335 17.1945 17.1143L17.023 16.6626C17.4778 16.4742 17.7988 16.0256 17.7988 15.5033C17.7988 14.9348 17.4187 14.4538 16.8994 14.3004V11.0732C17.5662 11.3791 18.1855 11.7338 18.7456 12.1337V12.3825V12.3833V14.306C18.7456 14.5021 18.9045 14.6611 19.1006 14.6611C19.2967 14.6611 19.4557 14.5021 19.4557 14.306V12.6059L23.7899 10.6676C23.9177 10.6104 24 10.4836 24 10.3435C24 10.2036 23.9176 10.0765 23.7897 10.0194ZM16.1595 18.4145L16.5442 17.4021L16.9289 18.4145H16.1595ZM17.0885 15.5033C17.0885 15.8035 16.8444 16.0475 16.5442 16.0475C16.244 16.0475 16 15.8035 16 15.5033C16 15.2031 16.244 14.959 16.5442 14.959C16.8444 14.959 17.0885 15.2031 17.0885 15.5033ZM19.4355 11.8369C19.4125 11.7702 19.37 11.7109 19.3118 11.6677C18.594 11.1358 17.7827 10.6758 16.8992 10.2966V7.71613L22.775 10.3435L19.4355 11.8369Z" fill="#8F9FAE"/>
</svg>
