<svg width="14" height="14" viewBox="0 0 14 14" fill="none" xmlns="http://www.w3.org/2000/svg">
<path d="M12.3219 5.23025C11.8263 4.78259 11.3382 4.31972 10.8501 3.86447C10.362 3.4168 9.88147 2.96152 9.39339 2.50627C8.7476 1.90684 8.10183 1.3074 7.45605 0.707975C7.26832 0.533457 7.08061 0.351352 6.87787 0.184422C6.73518 0.063018 6.52493 0.0706057 6.39728 0.184422C6.22458 0.336176 6.22458 0.571396 6.41229 0.745912C6.68262 0.996308 6.95295 1.2467 7.22328 1.4971C7.78645 2.02064 8.34212 2.54421 8.90529 3.06017C9.47598 3.5913 10.0467 4.11487 10.6173 4.646C10.9703 4.97228 11.3307 5.29855 11.6836 5.62482C11.9014 5.82968 12.1267 6.01938 12.3144 6.24701C13.1929 7.30929 13.4933 8.51574 13.1704 9.86636C12.9827 10.6555 12.5772 11.3232 11.9765 11.8543C11.0153 12.7042 9.89648 13.0304 8.63497 12.8104C7.92912 12.689 7.29836 12.3855 6.75772 11.9074C6.08189 11.3004 5.42862 10.6858 4.76031 10.0712C4.34732 9.68425 3.93432 9.29728 3.51381 8.9103C2.838 8.2957 2.16971 7.68109 1.50139 7.0589C1.34372 6.91473 1.19353 6.77056 1.02833 6.63398C0.893168 6.52016 0.750496 6.51257 0.607824 6.58845C0.472662 6.66433 0.427608 6.79333 0.435118 6.94508C0.442626 7.05131 0.495189 7.12719 0.56277 7.19548C0.990785 7.59763 1.41129 7.99977 1.83931 8.39434C2.25982 8.78889 2.68782 9.17587 3.11584 9.57043C3.59641 10.0105 4.06948 10.4582 4.55006 10.8983C5.05316 11.3611 5.55627 11.8164 6.05186 12.2868C6.96796 13.1594 8.04927 13.5995 9.38587 13.6223C9.48348 13.6147 9.6637 13.5995 9.84392 13.5843C10.4597 13.5236 11.0379 13.3339 11.5785 13.0304C12.5096 12.5069 13.1929 11.7405 13.621 10.7541C13.8312 10.2609 13.9514 9.74495 13.9889 9.20623C14.034 8.52333 13.9439 7.8632 13.7111 7.22584C13.4257 6.43671 12.9376 5.78415 12.3219 5.23025Z" fill="white"/>
<path d="M11.5107 8.1439C11.5558 8.31083 11.5708 8.49294 11.6008 8.65988C11.6308 8.83438 11.7135 8.92544 11.8561 8.95579C12.0814 9.00132 12.2766 8.84956 12.2616 8.61435C12.2466 8.40189 12.2241 8.18943 12.164 7.98457C11.9913 7.34719 11.6609 6.80846 11.1578 6.38356C10.3919 5.73102 9.51331 5.52614 8.54465 5.69308C7.81627 5.82206 7.20804 6.19386 6.73498 6.77053C6.2544 7.35478 6.0141 8.03767 6.00659 8.81921C6.0141 8.92544 6.0141 9.05443 6.02913 9.17584C6.05917 9.35795 6.0967 9.53247 6.14176 9.70697C6.5022 10.959 7.62855 11.8922 9.01021 11.9529C9.70103 11.9833 10.3393 11.8012 10.91 11.3915C11.4506 11.0121 11.8336 10.5113 12.0589 9.88908C12.0889 9.80562 12.0964 9.6918 12.0664 9.60833C12.0288 9.48694 11.9312 9.41106 11.7961 9.39589C11.6609 9.38071 11.5558 9.44141 11.4957 9.55522C11.4356 9.66145 11.3906 9.78285 11.3305 9.89667C11.0001 10.5568 10.482 10.9893 9.78364 11.1866C9.29555 11.3232 8.81496 11.3156 8.3344 11.1335C7.44082 10.7996 6.88516 10.1622 6.71244 9.22895C6.55476 8.37913 6.80255 7.63553 7.40327 7.01334C8.07908 6.32286 9.18291 6.06487 10.129 6.51255C10.8424 6.85399 11.308 7.38513 11.5107 8.1439Z" fill="white"/>
<path d="M2.22964 5.45008C2.74026 5.92051 3.24336 6.39096 3.75398 6.86139C4.03181 7.11938 4.30965 7.37735 4.59498 7.63534C4.66257 7.70363 4.73765 7.74157 4.82776 7.73398C5.0305 7.76434 5.22575 7.58223 5.21072 7.35459C5.19571 7.21802 5.12812 7.13456 5.03801 7.05109C4.54242 6.58823 4.04683 6.13297 3.55122 5.67772C2.58256 4.78236 1.62142 3.88701 0.660256 2.99165C0.600183 2.93854 0.532602 2.88542 0.457511 2.84748C0.262276 2.75643 0.0445154 2.87783 0.0069692 3.09029C-0.0155573 3.23446 0.0144791 3.36346 0.127115 3.46967C0.322349 3.65178 0.510074 3.83389 0.705308 4.016C1.20841 4.49402 1.71902 4.97204 2.22964 5.45008Z" fill="white"/>
<path d="M0.472467 0.7686C0.998098 1.26939 1.52373 1.76259 2.04937 2.26339C2.68763 2.8704 3.32589 3.47742 3.96417 4.08443C4.11435 4.2286 4.27203 4.37277 4.42972 4.50936C4.62495 4.68386 4.93283 4.57004 5.00041 4.35001C5.05297 4.18308 5.00041 4.05408 4.88027 3.94026C4.6625 3.72782 4.44475 3.52295 4.22698 3.31807C3.68633 2.80211 3.14567 2.29373 2.61253 1.78535C2.162 1.36803 1.71897 0.943118 1.26842 0.518206C1.11824 0.37404 0.975572 0.237459 0.817882 0.100881C0.705246 0.00224055 0.577594 -0.0356981 0.434922 0.0401791C0.307269 0.108469 0.239688 0.214697 0.232178 0.40439C0.247196 0.442329 0.269724 0.525794 0.314777 0.594084C0.352323 0.654785 0.412394 0.715487 0.472467 0.7686Z" fill="white"/>
<path d="M4.15965 1.31504C4.27228 1.42127 4.39243 1.5275 4.50506 1.63373C5.33105 2.40767 6.15704 3.18162 6.99054 3.95557C7.13321 4.08456 7.2759 4.21356 7.42606 4.33495C7.53871 4.426 7.67387 4.426 7.80153 4.35771C7.92917 4.28942 7.98924 4.17562 7.98924 4.02386C7.99675 3.84934 7.8691 3.75829 7.76398 3.65206C7.24586 3.17403 6.72773 2.69601 6.21711 2.21039C5.78159 1.80825 5.35357 1.40609 4.92557 1.00394C4.79041 0.874953 4.65524 0.745961 4.51257 0.624558C4.3699 0.503155 4.16716 0.518329 4.0395 0.647322C3.90433 0.7839 3.88932 0.966005 4.00195 1.12535C4.0395 1.20122 4.09958 1.26193 4.15965 1.31504Z" fill="white"/>
<path d="M10.2867 9.40356C10.0314 9.79812 9.66349 10.0333 9.19043 10.0865C8.89008 10.1244 8.60472 10.0865 8.3344 9.95747C8.16921 9.874 7.9965 9.92711 7.89888 10.0637C7.77873 10.2382 7.85383 10.4507 8.0791 10.5417C8.18422 10.5872 8.28935 10.6252 8.40198 10.6479C8.5822 10.6935 8.76993 10.7162 8.95765 10.7162C9.42322 10.7162 9.82119 10.61 10.1816 10.3748C10.3018 10.2989 10.4144 10.2079 10.527 10.094C10.6622 9.96505 10.7748 9.81329 10.8725 9.65395C11.0226 9.39598 10.8049 9.21387 10.6171 9.21387C10.4595 9.21387 10.3694 9.28216 10.2867 9.40356Z" fill="white"/>
<path d="M5.39858 5.26061C5.59351 5.26061 5.7515 5.10094 5.7515 4.90398C5.7515 4.70703 5.59351 4.54736 5.39858 4.54736C5.20366 4.54736 5.04565 4.70703 5.04565 4.90398C5.04565 5.10094 5.20366 5.26061 5.39858 5.26061Z" fill="white"/>
</svg>
