<svg viewBox="0 0 50 50" fill="none" xmlns="http://www.w3.org/2000/svg">
<circle cx="25" cy="25" r="24" stroke="white" stroke-linecap="round" stroke-dasharray="0.1 15 15 0.1 15 15"/>
<path d="M25.5 19C25.5 18.7239 25.2761 18.5 25 18.5C24.7239 18.5 24.5 18.7239 24.5 19L25.5 19ZM24.6464 31.3536C24.8417 31.5488 25.1583 31.5488 25.3536 31.3536L28.5355 28.1716C28.7308 27.9763 28.7308 27.6597 28.5355 27.4645C28.3403 27.2692 28.0237 27.2692 27.8284 27.4645L25 30.2929L22.1716 27.4645C21.9763 27.2692 21.6597 27.2692 21.4645 27.4645C21.2692 27.6597 21.2692 27.9763 21.4645 28.1716L24.6464 31.3536ZM24.5 19L24.5 31L25.5 31L25.5 19L24.5 19Z" fill="white"/>
</svg>
