<svg viewBox="0 0 110 110" fill="none" xmlns="http://www.w3.org/2000/svg">
<g filter="url(#filter0_d)">
<path fill-rule="evenodd" clip-rule="evenodd" d="M44.9679 20.5L45 20.5L45.0321 20.5C45.3083 20.5004 45.5318 20.7245 45.5315 21.0007C45.5311 21.2768 45.307 21.5004 45.0308 21.5L45 21.5L44.9692 21.5C44.693 21.5004 44.4689 21.2768 44.4685 21.0007C44.4682 20.7245 44.6917 20.5004 44.9679 20.5ZM53.725 22.6296C53.8308 22.3745 54.1234 22.2535 54.3784 22.3593C57.3632 23.597 60.0499 25.4075 62.3015 27.6533C62.3091 27.6609 62.3164 27.6686 62.3234 27.6766C62.3313 27.6836 62.3391 27.6909 62.3467 27.6985C64.5925 29.9501 66.403 32.6368 67.6407 35.6216C67.7465 35.8766 67.6255 36.1692 67.3704 36.275C67.1153 36.3807 66.8228 36.2597 66.717 36.0046C65.5301 33.1424 63.7935 30.5651 61.6387 28.4047C61.6314 28.3974 61.6244 28.3899 61.6177 28.3823C61.6101 28.3756 61.6026 28.3686 61.5953 28.3613C59.4349 26.2065 56.8576 24.4699 53.9954 23.283C53.7403 23.1772 53.6193 22.8847 53.725 22.6296ZM36.275 22.6296C36.3807 22.8847 36.2597 23.1772 36.0046 23.283C33.1424 24.4699 30.5651 26.2065 28.4047 28.3613C28.3974 28.3686 28.3899 28.3756 28.3823 28.3823C28.3756 28.3899 28.3686 28.3974 28.3613 28.4047C26.2065 30.5651 24.4699 33.1424 23.283 36.0046C23.1772 36.2597 22.8847 36.3807 22.6296 36.275C22.3745 36.1692 22.2535 35.8766 22.3593 35.6216C23.597 32.6368 25.4075 29.9501 27.6533 27.6985C27.6609 27.6909 27.6686 27.6836 27.6766 27.6766C27.6836 27.6686 27.6909 27.6609 27.6985 27.6533C29.9501 25.4075 32.6368 23.597 35.6216 22.3593C35.8766 22.2535 36.1692 22.3745 36.275 22.6296ZM21.0007 44.4685C21.2768 44.4689 21.5004 44.693 21.5 44.9692L21.5 45L21.5 45.0308C21.5004 45.307 21.2768 45.5311 21.0007 45.5315C20.7245 45.5318 20.5004 45.3083 20.5 45.0321L20.5 45L20.5 44.9679C20.5004 44.6917 20.7245 44.4682 21.0007 44.4685ZM68.9993 44.4685C69.2755 44.4682 69.4996 44.6917 69.5 44.9679L69.5 45L69.5 45.0321C69.4996 45.3083 69.2755 45.5318 68.9993 45.5315C68.7232 45.5311 68.4996 45.307 68.5 45.0308L68.5 45L68.5 44.9692C68.4996 44.693 68.7232 44.4689 68.9993 44.4685ZM67.3704 53.725C67.6255 53.8308 67.7465 54.1234 67.6407 54.3784C66.403 57.3632 64.5925 60.0499 62.3467 62.3015C62.3391 62.3091 62.3314 62.3164 62.3234 62.3234C62.3164 62.3313 62.3091 62.3391 62.3015 62.3467C60.0499 64.5925 57.3632 66.403 54.3784 67.6407C54.1234 67.7465 53.8308 67.6255 53.725 67.3704C53.6193 67.1153 53.7403 66.8228 53.9954 66.717C56.8576 65.5301 59.4349 63.7935 61.5953 61.6387C61.6026 61.6314 61.6101 61.6244 61.6177 61.6177C61.6244 61.6101 61.6314 61.6026 61.6387 61.5953C63.7935 59.4349 65.5301 56.8576 66.717 53.9954C66.8228 53.7403 67.1153 53.6193 67.3704 53.725ZM22.6296 53.725C22.8847 53.6193 23.1772 53.7403 23.283 53.9954C24.4699 56.8576 26.2065 59.4349 28.3613 61.5953C28.3686 61.6026 28.3756 61.6101 28.3823 61.6177C28.3899 61.6244 28.3974 61.6314 28.4047 61.6387C30.5651 63.7935 33.1424 65.5301 36.0046 66.717C36.2597 66.8228 36.3807 67.1153 36.275 67.3704C36.1692 67.6255 35.8766 67.7465 35.6216 67.6407C32.6368 66.403 29.9501 64.5925 27.6985 62.3467C27.6909 62.3391 27.6836 62.3314 27.6766 62.3234C27.6686 62.3164 27.6609 62.3091 27.6533 62.3015C25.4075 60.0499 23.597 57.3632 22.3593 54.3784C22.2535 54.1234 22.3745 53.8308 22.6296 53.725ZM44.4685 68.9993C44.4689 68.7232 44.693 68.4996 44.9692 68.5L45 68.5L45.0308 68.5C45.307 68.4996 45.5311 68.7232 45.5315 68.9993C45.5318 69.2755 45.3083 69.4996 45.0321 69.5L45 69.5L44.9679 69.5C44.6917 69.4996 44.4682 69.2755 44.4685 68.9993Z" fill="white"/>
<path fill-rule="evenodd" clip-rule="evenodd" d="M48.5354 48.1716L45.3535 51.3536C45.1582 51.5488 44.8416 51.5488 44.6464 51.3536L41.4644 48.1716C41.2691 47.9763 41.2691 47.6597 41.4644 47.4645C41.6596 47.2692 41.9762 47.2692 42.1715 47.4645L44.4999 49.7929L44.4999 39C44.4999 38.7239 44.7238 38.5 44.9999 38.5C45.276 38.5 45.4999 38.7239 45.4999 39L45.4999 49.7929L47.8283 47.4645C48.0236 47.2692 48.3402 47.2692 48.5354 47.4645C48.7307 47.6597 48.7307 47.9763 48.5354 48.1716Z" fill="white"/>
</g>
<defs>
<filter id="filter0_d" x="0.5" y="0.5" width="109" height="109" filterUnits="userSpaceOnUse" color-interpolation-filters="sRGB">
<feFlood flood-opacity="0" result="BackgroundImageFix"/>
<feColorMatrix in="SourceAlpha" type="matrix" values="0 0 0 0 0 0 0 0 0 0 0 0 0 0 0 0 0 0 127 0" result="hardAlpha"/>
<feOffset dx="10" dy="10"/>
<feGaussianBlur stdDeviation="15"/>
<feColorMatrix type="matrix" values="0 0 0 0 0 0 0 0 0 0 0 0 0 0 0 0 0 0 0.08 0"/>
<feBlend mode="normal" in2="BackgroundImageFix" result="effect1_dropShadow"/>
<feBlend mode="normal" in="SourceGraphic" in2="effect1_dropShadow" result="shape"/>
</filter>
</defs>
</svg>
