<svg viewBox="0 0 387 387" fill="none" xmlns="http://www.w3.org/2000/svg">
<path d="M276.886 366.953C251.628 379.105 223.318 385.912 193.419 385.912C86.9955 385.912 0.769287 299.76 0.769287 193.521C0.769287 87.2819 86.9955 1.08803 193.377 1.08803C299.759 1.08803 386.028 87.2401 386.028 193.479C386.028 238.33 370.639 279.589 344.88 312.33" stroke="#0386FF" stroke-miterlimit="10"/>
<path d="M276.886 366.953C251.628 379.105 223.318 385.912 193.419 385.912C86.9955 385.912 0.769287 299.76 0.769287 193.521C0.769287 87.2819 86.9955 1.08803 193.377 1.08803C299.759 1.08803 386.028 87.2401 386.028 193.479C386.028 238.33 370.639 279.589 344.88 312.33" stroke="url(#paint0_linear)" stroke-miterlimit="10"/>
<circle cx="309" cy="340" r="3.5" stroke="#8F9FAE"/>
<defs>
<linearGradient id="paint0_linear" x1="158.586" y1="1.088" x2="450.055" y2="122.917" gradientUnits="userSpaceOnUse">
<stop stop-color="#3FBAFF"/>
<stop offset="1" stop-color="#5140AB"/>
</linearGradient>
</defs>
</svg>
