<svg viewBox="0 0 387 387" fill="none" xmlns="http://www.w3.org/2000/svg">
<path d="M101.387 24.3069C128.693 9.48191 159.972 1.08803 193.216 1.08803C299.64 1.08803 385.867 87.2401 385.867 193.479C385.867 299.718 299.598 385.87 193.216 385.87C86.8345 385.87 0.566406 299.718 0.566406 193.479C0.566406 148.837 15.7878 107.786 41.296 75.1296" stroke="#0386FF" stroke-miterlimit="10"/>
<path d="M101.387 24.3069C128.693 9.48191 159.972 1.08803 193.216 1.08803C299.64 1.08803 385.867 87.2401 385.867 193.479C385.867 299.718 299.598 385.87 193.216 385.87C86.8345 385.87 0.566406 299.718 0.566406 193.479C0.566406 148.837 15.7878 107.786 41.296 75.1296" stroke="url(#paint0_linear)" stroke-miterlimit="10"/>
<circle cx="70" cy="48" r="3.5" stroke="#8F9FAE"/>
<defs>
<linearGradient id="paint0_linear" x1="158.4" y1="1.088" x2="449.882" y2="122.949" gradientUnits="userSpaceOnUse">
<stop stop-color="#3FBAFF"/>
<stop offset="1" stop-color="#5140AB"/>
</linearGradient>
</defs>
</svg>
