<svg width="24" height="24" viewBox="0 0 24 24" fill="none" xmlns="http://www.w3.org/2000/svg">
<path d="M22.0702 2.66673H8.11958C7.93586 2.66673 7.78688 2.81566 7.78688 2.99943C7.78688 3.18315 7.93586 3.33212 8.11958 3.33212H22.0702C22.3999 3.33212 22.6681 3.60036 22.6681 3.93005V15.682H1.3321V3.93C1.3321 3.60032 1.60033 3.33208 1.93002 3.33208H6.78884C6.97256 3.33208 7.12154 3.18311 7.12154 2.99938C7.12154 2.81566 6.97256 2.66669 6.78884 2.66669H1.93002C1.23346 2.66673 0.666748 3.23344 0.666748 3.93V19.4224C0.666748 20.1189 1.23346 20.6857 1.93002 20.6857H5.58449C5.76822 20.6857 5.91719 20.5367 5.91719 20.353C5.91719 20.1692 5.76822 20.0203 5.58449 20.0203H1.93002C1.60033 20.0203 1.3321 19.752 1.3321 19.4223V16.3473H22.6681V19.4223C22.6681 19.752 22.3998 20.0203 22.0701 20.0203H6.91519C6.73147 20.0203 6.58249 20.1692 6.58249 20.353C6.58249 20.5367 6.73147 20.6857 6.91519 20.6857H22.0701C22.7667 20.6857 23.3334 20.1189 23.3334 19.4224V3.93C23.3335 3.23344 22.7668 2.66673 22.0702 2.66673Z" fill="#8F9FAE"/>
<path d="M10.0424 19.5391C10.6749 19.5391 11.2075 19.1035 11.3562 18.5166H20.5203C20.704 18.5166 20.853 18.3676 20.853 18.1839C20.853 18.0002 20.704 17.8512 20.5203 17.8512H11.3562C11.2074 17.2642 10.6749 16.8286 10.0424 16.8286C9.40983 16.8286 8.87725 17.2642 8.72854 17.8512H3.4804C3.29668 17.8512 3.14771 18.0002 3.14771 18.1839C3.14771 18.3676 3.29668 18.5166 3.4804 18.5166H8.72854C8.87725 19.1035 9.40983 19.5391 10.0424 19.5391ZM10.0424 17.494C10.4227 17.494 10.7322 17.8035 10.7322 18.1839C10.7322 18.5643 10.4227 18.8738 10.0424 18.8738C9.66195 18.8738 9.35245 18.5643 9.35245 18.1839C9.35245 17.8035 9.66195 17.494 10.0424 17.494Z" fill="#8F9FAE"/>
<path d="M8.8697 7.86944C8.80595 7.71449 8.65663 7.61444 8.48911 7.61444C8.48897 7.61444 8.48884 7.61444 8.48871 7.61444C8.32105 7.61462 8.17168 7.71494 8.1082 7.87015C8.10718 7.87267 8.10621 7.8752 8.10523 7.87772L6.79866 11.3083C6.63978 11.7084 7.27019 11.952 7.42045 11.5451L7.66425 10.905H9.30427L9.5455 11.5441C9.69204 11.9503 10.3263 11.7108 10.168 11.3092L8.87333 7.87856C8.87218 7.87551 8.87094 7.87245 8.8697 7.86944ZM7.91766 10.2396L8.488 8.74207L9.05316 10.2396H7.91766Z" fill="#8F9FAE"/>
<path d="M10.8695 11.3718C10.8606 11.5687 11.0012 11.765 11.2103 11.7594C11.2392 11.7593 11.9205 11.7566 12.1923 11.7519C13.1556 11.735 13.8548 10.8883 13.8548 9.73837C13.8548 8.52956 13.1731 7.71741 12.1585 7.71741H11.2022C11.1138 7.71741 11.0291 7.75256 10.9668 7.81507C10.9043 7.87758 10.8694 7.96236 10.8695 8.05072V8.05347V8.0536V11.3718ZM12.1585 8.38275C12.9186 8.38275 13.1895 9.08303 13.1895 9.73837C13.1895 10.3792 12.8738 11.0745 12.1807 11.0866C12.0349 11.0892 11.7608 11.0911 11.5406 11.0924C11.5393 10.6949 11.5373 10.0453 11.5373 9.73466C11.5373 9.47403 11.5362 8.79492 11.5355 8.38275H12.1585Z" fill="#8F9FAE"/>
<path d="M15.8434 11.094C15.4691 11.094 15.108 10.942 14.8773 10.6875C14.7539 10.5513 14.5435 10.541 14.4074 10.6644C14.2712 10.7877 14.2609 10.9981 14.3842 11.1343C14.7389 11.5257 15.2844 11.7594 15.8433 11.7594C16.516 11.7594 17.1022 11.3173 17.2068 10.7311C17.2862 10.2867 17.0792 9.70422 16.2606 9.40225C15.8165 9.23844 15.4044 9.05972 15.2962 9.01218C15.1931 8.93559 15.1433 8.81402 15.1622 8.68254C15.1863 8.51422 15.3166 8.37879 15.5106 8.32035C16.0563 8.15598 16.5512 8.5514 16.5625 8.56061C16.7032 8.67766 16.9121 8.6592 17.03 8.51895C17.1482 8.37831 17.13 8.16846 16.9894 8.05021C16.9583 8.02409 16.217 7.41262 15.3187 7.6833C14.8769 7.81638 14.5645 8.16306 14.5035 8.58802C14.4466 8.98429 14.6183 9.36537 14.9515 9.58261C14.9662 9.59217 14.9816 9.60058 14.9976 9.60775C15.0176 9.6167 15.4937 9.82866 16.0303 10.0266C16.4038 10.1643 16.5939 10.3785 16.5518 10.6142C16.5098 10.85 16.2332 11.094 15.8434 11.094Z" fill="#8F9FAE"/>
<path d="M16.4263 13.349H18.3379C18.8883 13.349 19.336 12.9012 19.336 12.3509V7.02282C19.336 6.47249 18.8883 6.02478 18.3379 6.02478H5.66259C5.11226 6.02478 4.66455 6.47249 4.66455 7.02282V12.3509C4.66455 12.9012 5.11226 13.349 5.66259 13.349H15.0955C15.2793 13.349 15.4282 13.2 15.4282 13.0163C15.4282 12.8325 15.2793 12.6836 15.0955 12.6836H5.66259C5.47914 12.6836 5.3299 12.5343 5.3299 12.3509V7.02282C5.3299 6.83937 5.47914 6.69013 5.66259 6.69013H18.3379C18.5214 6.69013 18.6706 6.83937 18.6706 7.02282V12.3509C18.6706 12.5344 18.5214 12.6836 18.3379 12.6836H16.4263C16.2425 12.6836 16.0936 12.8326 16.0936 13.0163C16.0936 13.2 16.2425 13.349 16.4263 13.349Z" fill="#8F9FAE"/>
</svg>
