<svg width="24" height="24" viewBox="0 0 24 24" fill="none" xmlns="http://www.w3.org/2000/svg">
<path d="M12.3999 20H11.5999V20.8H12.3999V20Z" fill="#8F9FAE"/>
<path d="M23.6 20.8H23.2V6.4C23.2 5.51635 22.4837 4.8 21.6 4.8H19.2V1.6C19.2 0.71635 18.4837 0 17.6 0H6.4C5.51635 0 4.8 0.71635 4.8 1.6V4.8H2.4C1.51635 4.8 0.8 5.51635 0.8 6.4V20.8H0.4C0.1791 20.8 0 20.9791 0 21.2V22.4C0 23.2836 0.71635 24 1.6 24H22.4C23.2836 24 24 23.2836 24 22.4V21.2C24 20.9791 23.8209 20.8 23.6 20.8ZM5.6 1.6C5.6 1.15815 5.95815 0.8 6.4 0.8H17.6C18.0419 0.8 18.4 1.15815 18.4 1.6V3.2H5.6V1.6ZM5.6 4H18.4V15.6C18.4 16.0419 18.0419 16.4 17.6 16.4H6.4C5.95815 16.4 5.6 16.0419 5.6 15.6V4ZM6.4 17.2H17.6C18.4837 17.2 19.2 16.4837 19.2 15.6V7.2H20.8V18.4H3.2V7.2H4.8V15.6C4.8 16.4837 5.51635 17.2 6.4 17.2ZM1.6 6.4C1.6 5.95815 1.95815 5.6 2.4 5.6H4.8V6.4H2.8C2.5791 6.4 2.4 6.5791 2.4 6.8V18.8C2.4 19.0209 2.5791 19.2 2.8 19.2H21.2C21.4209 19.2 21.6 19.0209 21.6 18.8V6.8C21.6 6.5791 21.4209 6.4 21.2 6.4H19.2V5.6H21.6C22.0419 5.6 22.4 5.95815 22.4 6.4V20.8H15.6C15.494 20.7999 15.3923 20.8419 15.3172 20.9168L14.6344 21.6H9.3656L8.6828 20.9168C8.60775 20.8419 8.506 20.7999 8.4 20.8H1.6V6.4ZM23.2 22.4C23.2 22.8419 22.8419 23.2 22.4 23.2H1.6C1.15815 23.2 0.8 22.8419 0.8 22.4V21.6H8.2344L8.9172 22.2828C8.9922 22.3578 9.0939 22.4 9.2 22.4H14.8C14.9061 22.4 15.0078 22.3578 15.0828 22.2828L15.7656 21.6H23.2V22.4Z" fill="#8F9FAE"/>
<path d="M17.2 12.8H6.80005V13.6H17.2V12.8Z" fill="#8F9FAE"/>
<path d="M16.4 14.4H6.80005V15.2H16.4V14.4Z" fill="#8F9FAE"/>
<path d="M17.2 11.2H9.19995V12H17.2V11.2Z" fill="#8F9FAE"/>
<path d="M7.20015 1.59998H6.40015V2.39998H7.20015V1.59998Z" fill="#8F9FAE"/>
<path d="M8.8 1.59998H8V2.39998H8.8V1.59998Z" fill="#8F9FAE"/>
<path d="M10.3999 1.59998H9.59985V2.39998H10.3999V1.59998Z" fill="#8F9FAE"/>
<path d="M8.39985 11.2H7.59985V12H8.39985V11.2Z" fill="#8F9FAE"/>
<path d="M10.6399 6.71904L10.1599 6.07904L8.55993 7.27904C8.38318 7.41159 8.34738 7.66229 8.47993 7.83904C8.50268 7.86934 8.52963 7.89629 8.55993 7.91904L10.1599 9.11904L10.6399 8.47904L9.46673 7.59904L10.6399 6.71904Z" fill="#8F9FAE"/>
<path d="M15.5199 7.35904C15.4971 7.32874 15.4702 7.30179 15.4399 7.27904L13.8399 6.07904L13.3599 6.71904L14.5331 7.59904L13.3599 8.47904L13.8399 9.11904L15.4399 7.91904C15.6166 7.78649 15.6524 7.53579 15.5199 7.35904Z" fill="#8F9FAE"/>
<path d="M12.4288 5.45047L10.8284 9.45001L11.5711 9.74721L13.1715 5.74767L12.4288 5.45047Z" fill="#8F9FAE"/>
</svg>
