<svg viewBox="0 0 387 387" fill="none" xmlns="http://www.w3.org/2000/svg">
<path d="M277.249 20.0473C251.992 7.89501 223.682 1.08803 193.741 1.08803C87.3589 1.08803 1.09082 87.2401 1.09082 193.479C1.09082 299.718 87.3589 385.87 193.741 385.87C300.123 385.87 386.391 299.718 386.391 193.479C386.391 148.628 371.002 107.369 345.243 74.6284" stroke="#0386FF" stroke-miterlimit="10"/>
<path d="M277.249 20.0473C251.992 7.89501 223.682 1.08803 193.741 1.08803C87.3589 1.08803 1.09082 87.2401 1.09082 193.479C1.09082 299.718 87.3589 385.87 193.741 385.87C300.123 385.87 386.391 299.718 386.391 193.479C386.391 148.628 371.002 107.369 345.243 74.6284" stroke="url(#paint0_linear)" stroke-miterlimit="10"/>
<circle cx="310" cy="40" r="3.5" stroke="#8F9FAE"/>
<defs>
<linearGradient id="paint0_linear" x1="158.925" y1="1.088" x2="450.407" y2="122.949" gradientUnits="userSpaceOnUse">
<stop stop-color="#3FBAFF"/>
<stop offset="1" stop-color="#5140AB"/>
</linearGradient>
</defs>
</svg>
