<svg width="24" height="24" viewBox="0 0 24 24" fill="none" xmlns="http://www.w3.org/2000/svg">
<path fill-rule="evenodd" clip-rule="evenodd" d="M8.11958 1.33336H22.0702C22.7668 1.33336 23.3335 1.90007 23.3334 2.59663V18.089C23.3334 18.7856 22.7667 19.3523 22.0701 19.3523H6.91519C6.73147 19.3523 6.58249 19.2033 6.58249 19.0196C6.58249 18.8359 6.73147 18.6869 6.91519 18.6869H22.0701C22.3998 18.6869 22.6681 18.4187 22.6681 18.089V15.0139H22.6664V14.3487H22.6681V2.59667C22.6681 2.26699 22.3999 1.99875 22.0702 1.99875H8.11958C7.93586 1.99875 7.78688 1.84978 7.78688 1.66605C7.78688 1.48228 7.93586 1.33336 8.11958 1.33336ZM1.33309 14.3487H1.3321V2.59663C1.3321 2.26694 1.60033 1.99871 1.93002 1.99871H6.78884C6.97257 1.99871 7.12154 1.84973 7.12154 1.66601C7.12154 1.48228 6.97257 1.33331 6.78884 1.33331H1.93002C1.23346 1.33336 0.666748 1.90007 0.666748 2.59663V18.089C0.666748 18.7856 1.23346 19.3523 1.93002 19.3523H5.58449C5.76822 19.3523 5.91719 19.2033 5.91719 19.0196C5.91719 18.8359 5.76822 18.6869 5.58449 18.6869H1.93002C1.60033 18.6869 1.3321 18.4187 1.3321 18.089V15.0139H1.33309V14.3487Z" fill="#8F9FAE"/>
<path d="M23.3334 2.59663L23.1667 2.59662V2.59663H23.3334ZM22.6681 15.0139H22.8347V14.8472H22.6681V15.0139ZM22.6664 15.0139H22.4998V15.1806H22.6664V15.0139ZM22.6664 14.3487V14.182H22.4998V14.3487H22.6664ZM22.6681 14.3487V14.5153H22.8348V14.3487H22.6681ZM1.33309 14.3487H1.49976V14.182H1.33309V14.3487ZM1.3321 14.3487H1.16543V14.5153H1.3321V14.3487ZM1.93002 1.33331V1.16665H1.93001L1.93002 1.33331ZM1.3321 15.0139V14.8472H1.16543V15.0139H1.3321ZM1.33309 15.0139V15.1806H1.49976V15.0139H1.33309ZM22.0702 1.16669H8.11958V1.50002H22.0702V1.16669ZM23.5001 2.59664C23.5001 1.80803 22.8588 1.16669 22.0702 1.16669V1.50002C22.6747 1.50002 23.1668 1.99211 23.1667 2.59662L23.5001 2.59664ZM23.5001 18.089V2.59663H23.1667V18.089H23.5001ZM22.0701 19.519C22.8588 19.519 23.5001 18.8776 23.5001 18.089H23.1667C23.1667 18.6935 22.6747 19.1856 22.0701 19.1856V19.519ZM6.91519 19.519H22.0701V19.1856H6.91519V19.519ZM6.41583 19.0196C6.41583 19.2954 6.63942 19.519 6.91519 19.519V19.1856C6.82351 19.1856 6.74916 19.1113 6.74916 19.0196H6.41583ZM6.91519 18.5202C6.63942 18.5202 6.41583 18.7438 6.41583 19.0196H6.74916C6.74916 18.9279 6.82351 18.8536 6.91519 18.8536V18.5202ZM22.0701 18.5202H6.91519V18.8536H22.0701V18.5202ZM22.5014 18.089C22.5014 18.3266 22.3078 18.5202 22.0701 18.5202V18.8536C22.4919 18.8536 22.8347 18.5107 22.8347 18.089H22.5014ZM22.5014 15.0139V18.089H22.8347V15.0139H22.5014ZM22.6664 15.1806H22.6681V14.8472H22.6664V15.1806ZM22.4998 14.3487V15.0139H22.8331V14.3487H22.4998ZM22.6681 14.182H22.6664V14.5153H22.6681V14.182ZM22.5014 2.59667V14.3487H22.8348V2.59667H22.5014ZM22.0702 2.16542C22.3078 2.16542 22.5014 2.35903 22.5014 2.59667H22.8348C22.8348 2.17494 22.4919 1.83208 22.0702 1.83208V2.16542ZM8.11958 2.16542H22.0702V1.83208H8.11958V2.16542ZM7.62022 1.66605C7.62022 1.94183 7.84381 2.16542 8.11958 2.16542V1.83208C8.0279 1.83208 7.95355 1.75773 7.95355 1.66605H7.62022ZM8.11958 1.16669C7.84382 1.16669 7.62022 1.39022 7.62022 1.66605H7.95355C7.95355 1.57435 8.02789 1.50002 8.11958 1.50002V1.16669ZM1.33309 14.182H1.3321V14.5153H1.33309V14.182ZM1.49876 14.3487V2.59663H1.16543V14.3487H1.49876ZM1.49876 2.59663C1.49876 2.35899 1.69238 2.16537 1.93002 2.16537V1.83204C1.50829 1.83204 1.16543 2.17489 1.16543 2.59663H1.49876ZM1.93002 2.16537H6.78884V1.83204H1.93002V2.16537ZM6.78884 2.16537C7.06461 2.16537 7.2882 1.94178 7.2882 1.66601H6.95487C6.95487 1.75769 6.88052 1.83204 6.78884 1.83204V2.16537ZM7.2882 1.66601C7.2882 1.39024 7.06461 1.16665 6.78884 1.16665V1.49998C6.88052 1.49998 6.95487 1.57433 6.95487 1.66601H7.2882ZM6.78884 1.16665H1.93002V1.49998H6.78884V1.16665ZM1.93001 1.16665C1.14141 1.1667 0.500081 1.80802 0.500081 2.59663H0.833415C0.833415 1.99212 1.32551 1.50002 1.93003 1.49998L1.93001 1.16665ZM0.500081 2.59663V18.089H0.833415V2.59663H0.500081ZM0.500081 18.089C0.500081 18.8776 1.14141 19.519 1.93002 19.519V19.1856C1.32551 19.1856 0.833415 18.6935 0.833415 18.089H0.500081ZM1.93002 19.519H5.58449V19.1856H1.93002V19.519ZM5.58449 19.519C5.86027 19.519 6.08386 19.2954 6.08386 19.0196H5.75052C5.75052 19.1113 5.67617 19.1856 5.58449 19.1856V19.519ZM6.08386 19.0196C6.08386 18.7438 5.86027 18.5202 5.58449 18.5202V18.8536C5.67617 18.8536 5.75052 18.9279 5.75052 19.0196H6.08386ZM5.58449 18.5202H1.93002V18.8536H5.58449V18.5202ZM1.93002 18.5202C1.69238 18.5202 1.49876 18.3266 1.49876 18.089H1.16543C1.16543 18.5107 1.50829 18.8536 1.93002 18.8536V18.5202ZM1.49876 18.089V15.0139H1.16543V18.089H1.49876ZM1.3321 15.1806H1.33309V14.8472H1.3321V15.1806ZM1.49976 15.0139V14.3487H1.16642V15.0139H1.49976Z" fill="#8F9FAE"/>
<path d="M17.4165 10.1889C17.5276 10.2531 17.5276 10.4135 17.4165 10.4776L9.9165 14.8077C9.80539 14.8719 9.6665 14.7917 9.6665 14.6634L9.6665 6.00314C9.6665 5.87485 9.80539 5.79466 9.9165 5.85881L17.4165 10.1889Z" stroke="#8F9FAE"/>
<line x1="9.1665" y1="21.4999" x2="14.8332" y2="21.4999" stroke="#8F9FAE" stroke-linecap="round"/>
<line x1="10.1665" y1="21.3333" x2="10.1665" y2="19.3333" stroke="#8F9FAE"/>
<line x1="13.4998" y1="21.3333" x2="13.4998" y2="19.3333" stroke="#8F9FAE"/>
</svg>
