<svg width="24" height="24" viewBox="0 0 24 24" fill="none" xmlns="http://www.w3.org/2000/svg">
<g clip-path="url(#clip0)">
<path d="M19.1164 0H4.88371C3.88153 0 2.92734 0.314391 2.12418 0.909094C1.96757 1.02506 1.93462 1.24603 2.05059 1.40264C2.16656 1.55925 2.38753 1.59211 2.54414 1.47623C3.22485 0.972141 4.03387 0.705656 4.88371 0.705656H19.1163C21.2865 0.705656 23.052 2.4712 23.052 4.64128V13.9762C23.052 16.1463 21.2864 17.9118 19.1163 17.9118H13.1007C12.9553 17.9118 12.8149 17.9725 12.7155 18.0783L7.88418 23.2154C7.77989 23.3262 7.65895 23.2947 7.61184 23.2761C7.56468 23.2575 7.45504 23.1975 7.45504 23.0453V18.4406C7.45504 18.1491 7.21786 17.9119 6.92629 17.9119H4.88371C2.71359 17.9119 0.948041 16.1463 0.948041 13.9762V4.64128C0.948041 3.84291 1.18565 3.0743 1.63523 2.41861C1.74539 2.25787 1.70446 2.03831 1.54378 1.92811C1.38314 1.81791 1.16343 1.85892 1.05328 2.01956C0.522838 2.79328 0.242432 3.69984 0.242432 4.64128V13.9762C0.242432 16.5353 2.32453 18.6174 4.88376 18.6174H6.74943V23.0453C6.74943 23.439 6.98587 23.787 7.35182 23.9321C7.46718 23.9778 7.587 24 7.7054 24C7.9627 24 8.21353 23.8951 8.39822 23.6988L13.1771 18.6175H19.1164C21.6756 18.6175 23.7577 16.5354 23.7577 13.9762V4.64128C23.7577 2.08209 21.6756 0 19.1164 0Z" fill="#8F9FAE" stroke="#8F9FAE" stroke-width="0.5"/>
<path d="M17.068 5.66903C15.8434 4.44442 13.8507 4.44452 12.6261 5.66903L12.0111 6.28403C12.0095 6.28567 12.0044 6.29074 11.995 6.29074C11.9856 6.29074 11.9806 6.28577 11.979 6.28403L11.3738 5.67888C10.1492 4.45427 8.15649 4.45431 6.93188 5.67888C5.70728 6.90349 5.70728 8.89619 6.93188 10.1208L11.4804 14.6693C11.618 14.8069 11.8009 14.8826 11.9954 14.8826C12.1899 14.8826 12.3729 14.8068 12.5104 14.6693L15.01 12.1692C15.1479 12.0314 15.1479 11.808 15.01 11.6703C14.8722 11.5325 14.6487 11.5325 14.5111 11.6703L12.0114 14.1704C12.0098 14.172 12.0047 14.177 11.9954 14.177C11.986 14.177 11.981 14.172 11.9793 14.1703L7.43082 9.62177C6.48132 8.67222 6.48132 7.12731 7.43082 6.17777C8.38032 5.22822 9.92528 5.22831 10.8748 6.17777L11.4799 6.78292C11.6175 6.9205 11.8004 6.9963 11.9949 6.9963C12.1895 6.9963 12.3724 6.92055 12.51 6.78297L13.125 6.16797C14.0747 5.21852 15.6195 5.21852 16.569 6.16797C17.5185 7.11747 17.5185 8.66238 16.569 9.61197L15.5156 10.6656C15.3778 10.8034 15.3778 11.0268 15.5157 11.1645C15.6535 11.3023 15.8769 11.3023 16.0146 11.1645L17.068 10.1109C18.2926 8.8863 18.2926 6.89364 17.068 5.66903Z" fill="#8F9FAE" stroke="#8F9FAE" stroke-width="0.5"/>
</g>
<defs>
<clipPath id="clip0">
<rect width="24" height="24" fill="white"/>
</clipPath>
</defs>
</svg>
