<svg id="Icons" height="512" viewBox="0 0 74 74" width="512" xmlns="http://www.w3.org/2000/svg"><path d="m61.81 64.49h-49.62a3.56 3.56 0 0 1 -3.19-1.95 3.59 3.59 0 0 1 .31-3.77 47.39 47.39 0 0 0 9.23-28.2v-2a18.45 18.45 0 0 1 18.46-18.43c10 0 18.41 8.71 18.41 19v1.46a47.39 47.39 0 0 0 9.23 28.2 3.59 3.59 0 0 1 .36 3.74 3.56 3.56 0 0 1 -3.19 1.95zm-24.81-52.35a16.46 16.46 0 0 0 -16.46 16.46v2a49.43 49.43 0 0 1 -9.62 29.4 1.58 1.58 0 0 0 1.27 2.53h49.62a1.58 1.58 0 0 0 1.27-2.53 49.43 49.43 0 0 1 -9.62-29.39v-1.5c0-9.17-7.52-16.95-16.41-17z"/><path d="m60.56 55.15h-47.12a1 1 0 0 1 0-2h47.12a1 1 0 0 1 0 2z"/><path d="m37 72a8.57 8.57 0 0 1 -8.56-8.56 1 1 0 0 1 2 0 6.56 6.56 0 0 0 13.12 0 1 1 0 0 1 2 0 8.57 8.57 0 0 1 -8.56 8.56z"/><path d="m41.65 12.81a1 1 0 0 1 -1-1v-4.16a3.65 3.65 0 1 0 -7.3 0v4.11a1 1 0 0 1 -2 0v-4.11a5.65 5.65 0 0 1 11.3 0v4.16a1 1 0 0 1 -1 1z"/></svg>