<svg width="24" height="24" viewBox="0 0 24 24" fill="none" xmlns="http://www.w3.org/2000/svg">
<path fill-rule="evenodd" clip-rule="evenodd" d="M8.11885 1.33598H22.0695C22.7661 1.33598 23.3327 1.90269 23.3327 2.59925V18.0916C23.3327 18.7882 22.766 19.3549 22.0694 19.3549H6.91446C6.73073 19.3549 6.58176 19.2059 6.58176 19.0222C6.58176 18.8385 6.73073 18.6895 6.91446 18.6895H22.0694C22.3991 18.6895 22.6673 18.4213 22.6673 18.0916V15.0165H22.6663V14.3513H22.6674V2.5993C22.6674 2.26961 22.3991 2.00137 22.0695 2.00137H8.11885C7.93512 2.00137 7.78615 1.8524 7.78615 1.66868C7.78615 1.48491 7.93512 1.33598 8.11885 1.33598ZM1.33301 14.3513H1.33136V2.59925C1.33136 2.26957 1.5996 2.00133 1.92929 2.00133H6.78811C6.97183 2.00133 7.1208 1.85236 7.1208 1.66863C7.1208 1.48491 6.97183 1.33594 6.78811 1.33594H1.92929C1.23273 1.33598 0.666016 1.90269 0.666016 2.59925V18.0916C0.666016 18.7882 1.23273 19.3549 1.92929 19.3549H5.58376C5.76749 19.3549 5.91646 19.2059 5.91646 19.0222C5.91646 18.8385 5.76749 18.6895 5.58376 18.6895H1.92929C1.5996 18.6895 1.33136 18.4213 1.33136 18.0916V15.0165H1.33301V14.3513Z" fill="#8F9FAE"/>
<path d="M23.3327 2.59925L23.166 2.59924V2.59925H23.3327ZM22.6673 15.0165H22.834V14.8499H22.6673V15.0165ZM22.6663 15.0165H22.4997V15.1832H22.6663V15.0165ZM22.6663 14.3513V14.1846H22.4997V14.3513H22.6663ZM22.6674 14.3513V14.5179H22.834V14.3513H22.6674ZM1.33301 14.3513H1.49967V14.1846H1.33301V14.3513ZM1.33136 14.3513H1.1647V14.5179H1.33136V14.3513ZM1.92929 1.33594V1.16927H1.92928L1.92929 1.33594ZM1.33136 15.0165V14.8499H1.1647V15.0165H1.33136ZM1.33301 15.0165V15.1832H1.49967V15.0165H1.33301ZM22.0695 1.16932H8.11885V1.50265H22.0695V1.16932ZM23.4993 2.59926C23.4994 1.81065 22.8581 1.16932 22.0695 1.16932V1.50265C22.674 1.50265 23.1661 1.99474 23.166 2.59924L23.4993 2.59926ZM23.4993 18.0916V2.59925H23.166V18.0916H23.4993ZM22.0694 19.5216C22.8581 19.5216 23.4993 18.8802 23.4993 18.0916H23.166C23.166 18.6962 22.674 19.1882 22.0694 19.1882V19.5216ZM6.91446 19.5216H22.0694V19.1882H6.91446V19.5216ZM6.4151 19.0222C6.4151 19.298 6.63869 19.5216 6.91446 19.5216V19.1882C6.82278 19.1882 6.74843 19.1139 6.74843 19.0222H6.4151ZM6.91446 18.5229C6.63869 18.5229 6.4151 18.7464 6.4151 19.0222H6.74843C6.74843 18.9305 6.82278 18.8562 6.91446 18.8562V18.5229ZM22.0694 18.5229H6.91446V18.8562H22.0694V18.5229ZM22.5007 18.0916C22.5007 18.3292 22.307 18.5229 22.0694 18.5229V18.8562C22.4911 18.8562 22.834 18.5133 22.834 18.0916H22.5007ZM22.5007 15.0165V18.0916H22.834V15.0165H22.5007ZM22.6663 15.1832H22.6673V14.8499H22.6663V15.1832ZM22.4997 14.3513V15.0165H22.833V14.3513H22.4997ZM22.6674 14.1846H22.6663V14.5179H22.6674V14.1846ZM22.5007 2.5993V14.3513H22.834V2.5993H22.5007ZM22.0695 2.16804C22.3071 2.16804 22.5007 2.36166 22.5007 2.5993H22.834C22.834 2.17756 22.4912 1.83471 22.0695 1.83471V2.16804ZM8.11885 2.16804H22.0695V1.83471H8.11885V2.16804ZM7.61948 1.66868C7.61948 1.94445 7.84308 2.16804 8.11885 2.16804V1.83471C8.02717 1.83471 7.95282 1.76035 7.95282 1.66868H7.61948ZM8.11885 1.16932C7.84309 1.16932 7.61948 1.39285 7.61948 1.66868H7.95282C7.95282 1.57697 8.02716 1.50265 8.11885 1.50265V1.16932ZM1.33301 14.1846H1.33136V14.5179H1.33301V14.1846ZM1.49803 14.3513V2.59925H1.1647V14.3513H1.49803ZM1.49803 2.59925C1.49803 2.36161 1.69165 2.168 1.92929 2.168V1.83466C1.50755 1.83466 1.1647 2.17752 1.1647 2.59925H1.49803ZM1.92929 2.168H6.78811V1.83466H1.92929V2.168ZM6.78811 2.168C7.06388 2.168 7.28747 1.94441 7.28747 1.66863H6.95414C6.95414 1.76031 6.87979 1.83466 6.78811 1.83466V2.168ZM7.28747 1.66863C7.28747 1.39286 7.06388 1.16927 6.78811 1.16927V1.5026C6.87979 1.5026 6.95414 1.57696 6.95414 1.66863H7.28747ZM6.78811 1.16927H1.92929V1.5026H6.78811V1.16927ZM1.92928 1.16927C1.14068 1.16932 0.499349 1.81064 0.499349 2.59925H0.832682C0.832682 1.99474 1.32478 1.50264 1.9293 1.5026L1.92928 1.16927ZM0.499349 2.59925V18.0916H0.832682V2.59925H0.499349ZM0.499349 18.0916C0.499349 18.8802 1.14068 19.5216 1.92929 19.5216V19.1882C1.32478 19.1882 0.832682 18.6961 0.832682 18.0916H0.499349ZM1.92929 19.5216H5.58376V19.1882H1.92929V19.5216ZM5.58376 19.5216C5.85953 19.5216 6.08312 19.298 6.08312 19.0222H5.74979C5.74979 19.1139 5.67544 19.1882 5.58376 19.1882V19.5216ZM6.08312 19.0222C6.08312 18.7464 5.85953 18.5229 5.58376 18.5229V18.8562C5.67544 18.8562 5.74979 18.9305 5.74979 19.0222H6.08312ZM5.58376 18.5229H1.92929V18.8562H5.58376V18.5229ZM1.92929 18.5229C1.69165 18.5229 1.49803 18.3292 1.49803 18.0916H1.1647C1.1647 18.5133 1.50755 18.8562 1.92929 18.8562V18.5229ZM1.49803 18.0916V15.0165H1.1647V18.0916H1.49803ZM1.33136 15.1832H1.33301V14.8499H1.33136V15.1832ZM1.49967 15.0165V14.3513H1.16634V15.0165H1.49967Z" fill="#8F9FAE"/>
<path d="M17.4167 10.189C17.5279 10.2531 17.5279 10.4135 17.4167 10.4777L9.91675 14.8078C9.80564 14.8719 9.66675 14.7918 9.66675 14.6635L9.66675 6.0032C9.66675 5.87491 9.80564 5.79472 9.91675 5.85887L17.4167 10.189Z" stroke="#8F9FAE"/>
<line x1="9.16675" y1="21.5" x2="14.8334" y2="21.5" stroke="#8F9FAE" stroke-linecap="round"/>
<line x1="10.1667" y1="21.3333" x2="10.1667" y2="19.3333" stroke="#8F9FAE"/>
<line x1="13.5" y1="21.3333" x2="13.5" y2="19.3333" stroke="#8F9FAE"/>
</svg>
