<svg width="24" height="24" viewBox="0 0 24 24" fill="none" xmlns="http://www.w3.org/2000/svg">
<path d="M14.5584 0.527161H2.77475C1.97986 0.527161 1.33325 1.17382 1.33325 1.96871V21.8551C1.33325 22.6499 1.97991 23.2966 2.7748 23.2966H14.5584C15.3533 23.2966 15.9999 22.65 15.9999 21.8551V1.96871C15.9999 1.17382 15.3533 0.527161 14.5584 0.527161ZM2.05562 4.15034H15.2776V19.2086H2.05562V4.15034ZM2.77475 1.24952H14.5584C14.9549 1.24952 15.2776 1.57213 15.2776 1.96871V3.66877H2.05562V1.96871C2.05562 1.57213 2.37822 1.24952 2.77475 1.24952ZM14.5584 22.5742H2.77475C2.37822 22.5742 2.05557 22.2516 2.05557 21.855V19.6901H15.2775V21.855C15.2775 22.2516 14.9549 22.5742 14.5584 22.5742Z" fill="#8F9FAE"/>
<path d="M8.66658 20.0096C8.01429 20.0096 7.48364 20.5403 7.48364 21.1926C7.48364 21.8449 8.01434 22.3756 8.66658 22.3756C9.31883 22.3756 9.84953 21.8449 9.84953 21.1926C9.84953 20.5404 9.31888 20.0096 8.66658 20.0096ZM8.66658 21.894C8.27983 21.894 7.96522 21.5793 7.96522 21.1926C7.96522 20.8059 8.27983 20.4912 8.66658 20.4912C9.05334 20.4912 9.36795 20.8059 9.36795 21.1926C9.36795 21.5793 9.05334 21.894 8.66658 21.894Z" fill="#8F9FAE"/>
<path d="M7.02936 2.82185H10.3041C10.4371 2.82185 10.5449 2.71402 10.5449 2.58106C10.5449 2.4481 10.4371 2.34027 10.3041 2.34027H7.02936C6.89635 2.34027 6.78857 2.4481 6.78857 2.58106C6.78857 2.71402 6.89635 2.82185 7.02936 2.82185Z" fill="#8F9FAE"/>
<path d="M6.16242 2.82185C6.22551 2.82185 6.28763 2.79632 6.33242 2.75154C6.3772 2.70627 6.40321 2.64463 6.40321 2.58106C6.40321 2.51749 6.3772 2.45585 6.33242 2.41058C6.28758 2.36579 6.22546 2.34027 6.16242 2.34027C6.09885 2.34027 6.03716 2.36579 5.99194 2.41058C5.94715 2.45537 5.92163 2.51749 5.92163 2.58106C5.92163 2.64463 5.94715 2.70627 5.99194 2.75154C6.03673 2.79632 6.09885 2.82185 6.16242 2.82185Z" fill="#8F9FAE"/>
</svg>
