<svg width="24" height="24" viewBox="0 0 24 24" fill="none" xmlns="http://www.w3.org/2000/svg">
<path d="M22.0702 2.66673H8.11958C7.93586 2.66673 7.78688 2.81566 7.78688 2.99943C7.78688 3.18315 7.93586 3.33212 8.11958 3.33212H22.0702C22.3999 3.33212 22.6681 3.60036 22.6681 3.93005V15.682H1.3321V3.93C1.3321 3.60032 1.60033 3.33208 1.93002 3.33208H6.78884C6.97256 3.33208 7.12154 3.18311 7.12154 2.99938C7.12154 2.81566 6.97256 2.66669 6.78884 2.66669H1.93002C1.23346 2.66673 0.666748 3.23344 0.666748 3.93V19.4224C0.666748 20.1189 1.23346 20.6857 1.93002 20.6857H5.58449C5.76822 20.6857 5.91719 20.5367 5.91719 20.353C5.91719 20.1692 5.76822 20.0203 5.58449 20.0203H1.93002C1.60033 20.0203 1.3321 19.752 1.3321 19.4223V16.3473H22.6681V19.4223C22.6681 19.752 22.3998 20.0203 22.0701 20.0203H6.91519C6.73147 20.0203 6.58249 20.1692 6.58249 20.353C6.58249 20.5367 6.73147 20.6857 6.91519 20.6857H22.0701C22.7667 20.6857 23.3334 20.1189 23.3334 19.4224V3.93C23.3335 3.23344 22.7668 2.66673 22.0702 2.66673Z" fill="#8F9FAE"/>
<path d="M10.0424 19.5393C10.6749 19.5393 11.2075 19.1036 11.3562 18.5167H20.5203C20.704 18.5167 20.853 18.3677 20.853 18.184C20.853 18.0003 20.704 17.8513 20.5203 17.8513H11.3562C11.2074 17.2644 10.6749 16.8287 10.0424 16.8287C9.40983 16.8287 8.87725 17.2644 8.72854 17.8513H3.4804C3.29668 17.8513 3.14771 18.0003 3.14771 18.184C3.14771 18.3677 3.29668 18.5167 3.4804 18.5167H8.72854C8.87725 19.1036 9.40983 19.5393 10.0424 19.5393ZM10.0424 17.4941C10.4227 17.4941 10.7322 17.8036 10.7322 18.184C10.7322 18.5644 10.4227 18.8739 10.0424 18.8739C9.66195 18.8739 9.35245 18.5644 9.35245 18.184C9.35245 17.8036 9.66195 17.4941 10.0424 17.4941Z" fill="#8F9FAE"/>
<path d="M8.8697 7.86944C8.80595 7.71449 8.65663 7.61444 8.48911 7.61444C8.48897 7.61444 8.48884 7.61444 8.48871 7.61444C8.32105 7.61462 8.17168 7.71494 8.1082 7.87015C8.10718 7.87267 8.10621 7.8752 8.10523 7.87772L6.79866 11.3083C6.63978 11.7083 7.27019 11.952 7.42045 11.5451L7.66425 10.905H9.30427L9.5455 11.5441C9.69203 11.9503 10.3263 11.7108 10.168 11.3092L8.87333 7.87856C8.87218 7.87551 8.87094 7.87245 8.8697 7.86944ZM7.91766 10.2396L8.488 8.74207L9.05316 10.2396H7.91766Z" fill="#8F9FAE"/>
<path d="M10.8695 11.3724C10.8606 11.5692 11.0012 11.7656 11.2103 11.7599C11.2392 11.7598 11.9205 11.7572 12.1923 11.7525C13.1556 11.7356 13.8548 10.8888 13.8548 9.73892C13.8548 8.53011 13.1731 7.71796 12.1585 7.71796H11.2022C11.1138 7.71796 11.0291 7.75311 10.9668 7.81562C10.9043 7.87813 10.8694 7.96291 10.8695 8.05127V8.05402V8.05415V11.3724ZM12.1585 8.3833C12.9186 8.3833 13.1895 9.08358 13.1895 9.73892C13.1895 10.3798 12.8738 11.0751 12.1807 11.0872C12.0349 11.0897 11.7608 11.0917 11.5406 11.093C11.5393 10.6955 11.5373 10.0459 11.5373 9.73521C11.5373 9.47458 11.5362 8.79547 11.5355 8.3833H12.1585Z" fill="#8F9FAE"/>
<path d="M15.8436 11.094C15.4694 11.094 15.1082 10.942 14.8776 10.6874C14.7541 10.5512 14.5438 10.541 14.4076 10.6643C14.2715 10.7877 14.2611 10.9981 14.3845 11.1342C14.7392 11.5256 15.2846 11.7593 15.8436 11.7593C16.5162 11.7593 17.1024 11.3173 17.2071 10.731C17.2864 10.2866 17.0795 9.70416 16.2608 9.40219C15.8168 9.23838 15.4046 9.05966 15.2964 9.01212C15.1934 8.93553 15.1435 8.81396 15.1624 8.68247C15.1866 8.51416 15.3168 8.37873 15.5109 8.32029C16.0565 8.15592 16.5514 8.55134 16.5627 8.56055C16.7034 8.6776 16.9123 8.65914 17.0302 8.51889C17.1484 8.37824 17.1303 8.1684 16.9896 8.05015C16.9585 8.02403 16.2172 7.41256 15.3189 7.68324C14.8771 7.81631 14.5648 8.163 14.5038 8.58796C14.4469 8.98422 14.6185 9.36531 14.9517 9.58255C14.9664 9.59211 14.9818 9.60052 14.9978 9.60769C15.0179 9.61663 15.494 9.8286 16.0305 10.0265C16.404 10.1643 16.5941 10.3784 16.552 10.6141C16.51 10.85 16.2334 11.094 15.8436 11.094Z" fill="#8F9FAE"/>
<path d="M16.4263 13.3485H18.3379C18.8883 13.3485 19.336 12.9008 19.336 12.3504V7.02234C19.336 6.472 18.8883 6.02429 18.3379 6.02429H5.66259C5.11226 6.02429 4.66455 6.472 4.66455 7.02234V12.3504C4.66455 12.9008 5.11226 13.3485 5.66259 13.3485H15.0955C15.2793 13.3485 15.4282 13.1995 15.4282 13.0158C15.4282 12.8321 15.2793 12.6831 15.0955 12.6831H5.66259C5.47914 12.6831 5.3299 12.5338 5.3299 12.3504V7.02234C5.3299 6.83888 5.47914 6.68964 5.66259 6.68964H18.3379C18.5214 6.68964 18.6706 6.83888 18.6706 7.02234V12.3504C18.6706 12.5339 18.5214 12.6831 18.3379 12.6831H16.4263C16.2425 12.6831 16.0936 12.8321 16.0936 13.0158C16.0936 13.1995 16.2425 13.3485 16.4263 13.3485Z" fill="#8F9FAE"/>
</svg>
