<svg width="24" height="24" viewBox="0 0 24 24" fill="none" xmlns="http://www.w3.org/2000/svg">
<path d="M15.1979 1.33856H12.9817C12.8126 1.33856 12.6755 1.4756 12.6755 1.64472C12.6755 1.81384 12.8126 1.95087 12.9817 1.95087H15.1979C15.351 1.95087 15.4756 2.07545 15.4756 2.22861V3.95508H5.05709V1.95087H11.5938C11.7629 1.95087 11.9 1.81384 11.9 1.64472C11.9 1.4756 11.7629 1.33856 11.5938 1.33856H2.13879C1.64805 1.33856 1.24878 1.73783 1.24878 2.22861V21.3563C1.24878 21.8466 1.64764 22.2455 2.13789 22.2455H15.1987C15.689 22.2455 16.0879 21.8466 16.0879 21.3563V2.22861C16.0879 1.73783 15.6886 1.33856 15.1979 1.33856V1.33856ZM1.86109 2.22861C1.86109 2.07545 1.98567 1.95087 2.13879 1.95087H4.44478V3.95508H1.86109V2.22861ZM15.4756 21.3563C15.4756 21.509 15.3514 21.6331 15.1987 21.6331H2.13789C1.98526 21.6331 1.86109 21.509 1.86109 21.3563V4.56938H15.4756V21.3563Z" fill="#8F9FAE" stroke="#8F9FAE" stroke-width="0.166667"/>
<path d="M3.40161 16.6819L13.9349 16.6817C14.2163 16.6817 14.4452 16.4528 14.4452 16.1714V14.4999C14.4452 14.2185 14.2163 13.9896 13.9349 13.9896H3.40161C3.12024 13.9896 2.89136 14.2185 2.89136 14.4999V16.1716C2.89136 16.453 3.12028 16.6819 3.40161 16.6819ZM12.4728 14.6019H13.8329V16.0693H12.4728V14.6019ZM3.50367 14.6019H11.8604V16.0696H3.50367V14.6019Z" fill="#8F9FAE" stroke="#8F9FAE" stroke-width="0.166667"/>
<path d="M11.2907 17.2709H6.04615C5.76477 17.2709 5.53589 17.4998 5.53589 17.7811V19.4525C5.53589 19.7339 5.76477 19.9628 6.04615 19.9628H11.2907C11.5721 19.9628 11.801 19.7339 11.801 19.4525V17.7811C11.801 17.4998 11.5721 17.2709 11.2907 17.2709ZM11.1887 19.3505H6.1482V17.8832H11.1887V19.3505Z" fill="#8F9FAE" stroke="#8F9FAE" stroke-width="0.166667"/>
<path d="M4.1866 12.3663C4.60077 12.6309 5.06641 12.7654 5.57442 12.7661C6.00401 12.7661 6.40911 12.6718 6.77834 12.4859C7.69157 12.026 8.19452 11.258 8.19452 10.3233V7.31386C8.19452 6.72151 7.7126 6.23962 7.12025 6.23962C6.5279 6.23962 6.04597 6.72155 6.04597 7.31386V10.3233C6.04597 10.3793 6.04598 10.4491 5.81203 10.5669C5.74337 10.6015 5.66785 10.6176 5.57331 10.6176C5.48224 10.6175 5.40917 10.5979 5.34333 10.5557C5.15245 10.4338 5.15245 10.3911 5.15245 10.3265V9.83852C5.15245 9.66941 5.01538 9.53237 4.8463 9.53237C4.67722 9.53237 4.54015 9.66941 4.54015 9.83852V10.3265C4.54015 10.641 4.67734 10.8569 5.01362 11.0717C5.17744 11.1764 5.36558 11.2296 5.5745 11.2299C5.76444 11.2299 5.93221 11.1919 6.08741 11.1138C6.59913 10.8561 6.65828 10.5392 6.65828 10.3233V7.31386C6.65828 7.05914 6.86553 6.85193 7.12025 6.85193C7.37497 6.85193 7.58221 7.05914 7.58221 7.31386V10.3233C7.58221 11.0247 7.20899 11.5834 6.50296 11.939C6.21991 12.0815 5.90751 12.1538 5.5714 12.1538C5.18564 12.1533 4.83067 12.0512 4.51627 11.8503C3.91065 11.4634 3.61621 10.965 3.61621 10.3265V7.31386C3.61621 7.05914 3.82346 6.85193 4.07818 6.85193C4.3329 6.85193 4.54015 7.05914 4.54015 7.31386V8.42336C4.54015 8.59248 4.67722 8.72951 4.8463 8.72951C5.01538 8.72951 5.15245 8.59248 5.15245 8.42336V7.31386C5.15245 6.72151 4.67053 6.23962 4.07818 6.23962C3.48583 6.23962 3.00391 6.72155 3.00391 7.31386V10.3265C3.00391 11.1666 3.41289 11.872 4.1866 12.3663Z" fill="#8F9FAE" stroke="#8F9FAE" stroke-width="0.166667"/>
<path d="M8.65904 11.7942C8.69889 12.0784 8.84702 12.33 9.07611 12.5027C9.264 12.6444 9.48746 12.7193 9.72234 12.7193C10.0629 12.7193 10.3758 12.5635 10.5807 12.2918L11.4582 11.128L12.4022 12.3719C12.6072 12.6419 12.9193 12.7967 13.2585 12.7967C13.4946 12.7967 13.7189 12.7211 13.9074 12.5782C14.136 12.4047 14.2833 12.1526 14.3223 11.8683C14.3613 11.584 14.2872 11.3016 14.1137 11.073L12.8025 9.34525L13.8699 7.92963C14.0426 7.70051 14.1158 7.41782 14.076 7.13367C14.0361 6.84948 13.888 6.59786 13.6589 6.42515C13.4297 6.25232 13.1471 6.17917 12.8629 6.21897C12.5787 6.25885 12.3271 6.40699 12.1544 6.63611L11.4527 7.56674L10.7444 6.63346C10.3862 6.16165 9.71103 6.06903 9.23919 6.42715C8.76734 6.78523 8.6748 7.46044 9.03288 7.93233L10.1084 9.34949L8.86519 10.9983C8.69239 11.2274 8.6192 11.51 8.65904 11.7942ZM9.35406 11.3669L10.7367 9.53318C10.8192 9.42379 10.819 9.27291 10.7362 9.16376L9.52064 7.56212C9.36667 7.35921 9.40647 7.06885 9.60931 6.91487C9.81222 6.76094 10.1026 6.8007 10.2566 7.00362L11.2096 8.2593C11.2674 8.33555 11.3576 8.38037 11.4534 8.38037H11.4539C11.5498 8.38021 11.6401 8.33514 11.6979 8.25856L12.6433 7.00476C12.7176 6.90622 12.8258 6.8425 12.9479 6.82535C13.07 6.80846 13.1917 6.83976 13.2903 6.91406C13.3888 6.98835 13.4525 7.09657 13.4696 7.21874C13.4867 7.34092 13.4553 7.46252 13.381 7.56102L12.1741 9.16156C12.0916 9.27095 12.0918 9.42183 12.1747 9.53098L13.6259 11.4433C13.7005 11.5416 13.7323 11.663 13.7156 11.7853C13.6988 11.9075 13.6355 12.0159 13.5372 12.0905C13.4561 12.152 13.3597 12.1846 13.2585 12.1846C13.1124 12.1846 12.9781 12.1179 12.8899 12.0018L11.7012 10.4356C11.6434 10.3593 11.5531 10.3145 11.4574 10.3145C11.4572 10.3145 11.457 10.3145 11.4569 10.3145C11.361 10.3147 11.2707 10.3597 11.2129 10.4363L10.0918 11.9232C10.0036 12.0401 9.86896 12.1071 9.72234 12.1071C9.62159 12.1071 9.52562 12.0749 9.44476 12.0139C9.34622 11.9396 9.28254 11.8314 9.26539 11.7092C9.24829 11.587 9.27976 11.4654 9.35406 11.3669Z" fill="#8F9FAE" stroke="#8F9FAE" stroke-width="0.166667"/>
</svg>
