<svg width="24" height="24" viewBox="0 0 24 24" fill="none" xmlns="http://www.w3.org/2000/svg">
<g clip-path="url(#clip0)">
<path d="M9.6066 10.2453C10.0955 10.2449 10.5368 9.95263 10.7281 9.5029C10.9195 9.05297 10.8238 8.53235 10.485 8.17991L9.92231 7.59556C9.84745 7.51812 9.7452 7.47344 9.63758 7.47126C9.53016 7.47066 9.42651 7.51117 9.34808 7.58464L8.17361 8.71304L7.00213 9.84144C6.89312 9.94131 6.84666 10.0922 6.88101 10.2358C6.91516 10.3795 7.02476 10.4933 7.16693 10.5332C7.3091 10.5729 7.46179 10.5326 7.56563 10.4276L8.44445 9.58133L8.55226 9.69312L8.02887 11.17C7.97843 11.3074 8.00563 11.4615 8.10015 11.5733C8.19486 11.6848 8.34219 11.7371 8.48614 11.7099C8.6299 11.6827 8.74804 11.5802 8.7953 11.4416L9.24026 10.1851C9.3586 10.2237 9.48211 10.2441 9.6066 10.2453ZM9.61733 8.45114L9.89948 8.74401C10.0557 8.90623 10.051 9.16436 9.88895 9.32062C9.72673 9.47689 9.46861 9.47212 9.31234 9.3101L9.03039 9.01683L9.61733 8.45114Z" fill="#8F9FAE"/>
<path d="M7.67186 8.19306C7.97308 8.18511 8.26059 8.06479 8.47781 7.85591C8.96308 7.3885 8.97778 6.61631 8.51037 6.13084L7.94587 5.5449C7.79001 5.38347 7.53307 5.3787 7.37125 5.53437L5.02827 7.79118C4.86645 7.94704 4.86188 8.20457 5.01775 8.3662L5.58165 8.95174C5.80523 9.18525 6.11259 9.31967 6.43565 9.32523H6.45927C7.09863 9.32662 7.62898 8.83062 7.67028 8.19266L7.67186 8.19306ZM7.64248 6.40386L7.92443 6.69653C8.0801 6.85835 8.07513 7.11588 7.91331 7.27155C7.83885 7.35117 7.73262 7.39307 7.62381 7.38552C7.5162 7.38354 7.41374 7.33886 7.33928 7.26103L7.05733 6.96776L7.64248 6.40386ZM6.74182 8.39995C6.66677 8.47858 6.56094 8.52028 6.45233 8.51392C6.34451 8.51194 6.24205 8.46687 6.16759 8.38903L5.88584 8.09616L6.47139 7.53226L6.75314 7.82493C6.90782 7.98675 6.90265 8.24289 6.74182 8.39836V8.39995Z" fill="#8F9FAE"/>
<path d="M12.7424 10.5237C12.6249 10.4016 12.4438 10.3652 12.2883 10.4325L9.09848 11.8107C8.89416 11.9009 8.80084 12.1389 8.8894 12.344C8.97796 12.549 9.21523 12.6443 9.42094 12.5573L9.95982 12.3244L10.8382 13.2368L10.5857 13.7655C10.489 13.968 10.575 14.2109 10.7775 14.3076C10.8321 14.3342 10.8918 14.3481 10.9524 14.3481C11.1087 14.3479 11.251 14.2579 11.3183 14.1168L12.8153 10.9811C12.8887 10.8285 12.8597 10.6462 12.7424 10.5237ZM10.7572 11.9799L11.6152 11.609L11.2127 12.4529L10.7572 11.9799Z" fill="#8F9FAE"/>
<path d="M15.8455 13.7467C15.6896 13.5849 15.4323 13.5801 15.2705 13.7358L13.9481 15.009L14.5356 12.663C14.5795 12.4873 14.5017 12.3036 14.3448 12.2129C14.1879 12.1221 13.99 12.146 13.8593 12.2714L11.5164 14.5285C11.3615 14.6853 11.3599 14.9373 11.513 15.0959C11.6659 15.2548 11.9176 15.2627 12.0803 15.114L13.4023 13.8406L12.8147 16.1866C12.7706 16.3625 12.8483 16.5464 13.0051 16.6373C13.1622 16.7283 13.3602 16.7042 13.491 16.5788L15.8336 14.3218C15.9956 14.1663 16.001 13.9088 15.8455 13.7467Z" fill="#8F9FAE"/>
<path d="M16.6919 14.625C16.6173 14.5473 16.5148 14.5024 16.4072 14.5001C16.3002 14.5026 16.1977 14.5429 16.1177 14.614L13.7745 16.8708C13.6131 17.0265 13.6081 17.2836 13.7636 17.4455L14.0457 17.7387C14.5459 18.2784 15.2986 18.5058 16.0141 18.3332C16.7293 18.1607 17.2955 17.6152 17.4947 16.9068C17.6937 16.1983 17.4945 15.4376 16.9737 14.9178L16.6919 14.625ZM16.356 17.2068C15.8707 17.6742 15.0985 17.6599 14.6309 17.1746L16.3881 15.4817C16.8555 15.967 16.8412 16.7394 16.356 17.2068Z" fill="#8F9FAE"/>
<path d="M20.9422 11.6409C20.2352 11.6401 19.55 11.8863 19.0051 12.337L8.59693 1.53133C8.51394 1.44476 8.39699 1.39949 8.27726 1.40723L1.55549 1.84108L0.839692 1.09808C0.683824 0.936253 0.426295 0.931487 0.26467 1.08735C0.102845 1.24322 0.0978814 1.50075 0.253749 1.66258L0.961408 2.39704L0.00455947 8.79476C-0.0143035 8.91965 0.0260037 9.04613 0.113567 9.13707L13.3726 22.9025C13.5283 23.0643 13.7858 23.0693 13.9477 22.9134L19.63 17.4399C20.7614 17.9832 22.1098 17.7781 23.0283 16.9229C23.9466 16.0679 24.2478 14.7376 23.7868 13.5705C23.3259 12.4033 22.1971 11.6377 20.9422 11.6409ZM1.67343 3.13627L2.27963 3.7657C2.09179 4.13958 2.10887 4.58355 2.3253 4.94175C2.54173 5.29975 2.92673 5.52154 3.34509 5.52889H3.36832C4.04203 5.53524 4.59322 4.99397 4.59938 4.32027C4.60553 3.64636 4.06446 3.09537 3.39076 3.08901C3.20947 3.08524 3.02978 3.12356 2.86577 3.201L2.29432 2.6085L8.14144 2.23105L8.29314 2.3885L1.26381 9.15911L0.838501 8.71712L1.67343 3.13627ZM3.08617 4.01628C3.16142 3.94301 3.26249 3.9021 3.36753 3.9023H3.37567C3.54007 3.90568 3.68621 4.00754 3.74618 4.16063C3.80614 4.31371 3.76802 4.48785 3.64968 4.60182C3.57363 4.67886 3.46839 4.72016 3.36018 4.7152C3.19577 4.71222 3.04944 4.61036 2.98927 4.45727C2.92911 4.30418 2.96723 4.12985 3.08577 4.01588L3.08617 4.01628ZM13.6764 22.0453L11.8803 20.1804H15.6124L13.6764 22.0453ZM16.4439 19.3797V19.3671H11.0966L1.8299 9.74466L8.85724 2.97405L18.4541 12.9369C17.5517 14.2088 17.7604 15.9577 18.9368 16.9817L16.4439 19.3797ZM20.9422 16.9273C19.707 16.9273 18.7057 15.9259 18.7057 14.6907C18.7057 13.4555 19.707 12.4542 20.9422 12.4542C22.1775 12.4542 23.1788 13.4555 23.1788 14.6907C23.1776 15.9254 22.1769 16.9259 20.9422 16.9273Z" fill="#8F9FAE"/>
</g>
<defs>
<clipPath id="clip0">
<rect width="24" height="24" fill="white"/>
</clipPath>
</defs>
</svg>
