<svg width="24" height="24" viewBox="0 0 24 24" fill="none" xmlns="http://www.w3.org/2000/svg">
<path fill-rule="evenodd" clip-rule="evenodd" d="M16.9234 7.55269C16.9234 4.30715 14.283 1.66669 11.0374 1.66669C7.79183 1.66669 5.15137 4.30715 5.15137 7.55269C5.15137 10.7982 7.79183 13.4387 11.0374 13.4387C14.283 13.4387 16.9234 10.7982 16.9234 7.55269ZM5.9847 7.55269C5.9847 4.76665 8.25133 2.50002 11.0374 2.50002C13.8234 2.50002 16.09 4.76661 16.09 7.55269C16.09 10.3387 13.8235 12.6053 11.0374 12.6053C8.25137 12.6053 5.9847 10.3387 5.9847 7.55269Z" fill="#8F9FAE"/>
<path fill-rule="evenodd" clip-rule="evenodd" d="M14.3421 16.8851C14.8091 16.3799 15.2584 15.8366 15.6552 15.3048C17.614 12.6795 18.7374 9.92858 18.7374 7.75738C18.7374 5.72413 17.8928 3.71663 16.4203 2.24967C14.9632 0.798167 13.0626 0 11.0681 0C11.0492 0 11.03 0 11.011 0C9.01354 0 7.11262 0.79825 5.65575 2.24963C4.18316 3.71658 3.33862 5.72408 3.33862 7.75738C3.33862 9.92858 4.46204 12.6795 6.42083 15.3048C6.81762 15.8365 7.26692 16.3799 7.73392 16.885C6.7875 17.3604 6.25562 18.0276 6.25562 18.7641C6.25562 19.5062 6.79229 20.1795 7.76675 20.6599C8.64754 21.0942 9.80929 21.3333 11.0381 21.3333C12.2669 21.3333 13.4287 21.0942 14.3095 20.6599C15.2839 20.1795 15.8206 19.5062 15.8206 18.7641C15.8204 18.028 15.2884 17.3605 14.3421 16.8851ZM4.17191 7.75738C4.17191 5.94404 4.92708 4.15175 6.24383 2.84C7.54346 1.54529 9.23546 0.833333 11.0142 0.833333H11.0649C12.8403 0.833333 14.5326 1.54542 15.8322 2.84004C17.1489 4.15175 17.9041 5.94408 17.9041 7.75738C17.9041 9.75279 16.841 12.322 14.9873 14.8064C13.1849 17.2221 11.5652 18.3475 11.038 18.3475C10.5108 18.3475 8.89108 17.222 7.08871 14.8064C5.23504 12.322 4.17191 9.75275 4.17191 7.75738ZM11.038 20.5C8.71071 20.5 7.08887 19.5851 7.08887 18.7641C7.08887 18.3197 7.56692 17.8519 8.34983 17.5179C9.33767 18.4782 10.337 19.1808 11.038 19.1808C11.7389 19.1808 12.7383 18.4781 13.7262 17.5179C14.5088 17.8518 14.9871 18.32 14.9871 18.7641C14.9871 19.5851 13.3652 20.5 11.038 20.5Z" fill="#8F9FAE"/>
<path fill-rule="evenodd" clip-rule="evenodd" d="M12.9689 10.6371C13.2441 10.5891 13.4282 10.3271 13.3802 10.0519L13.0668 8.25849L14.3569 7.0087C14.4436 6.93199 14.5044 6.82532 14.522 6.70182C14.5613 6.42557 14.3692 6.16974 14.093 6.13045L12.29 5.87415L11.4917 4.24382C11.4443 4.14528 11.3648 4.0614 11.259 4.00965C11.0089 3.8874 10.7071 3.99094 10.5848 4.24099L9.78512 5.87415L7.98212 6.13045L7.9822 6.13099C7.87537 6.14611 7.77258 6.1954 7.69149 6.27874C7.49716 6.47853 7.50158 6.79807 7.70137 6.99245L9.00828 8.25849L8.69495 10.0519L8.69574 10.052C8.67712 10.1583 8.6922 10.2713 8.74637 10.3742C8.87628 10.6209 9.1817 10.7156 9.42845 10.5857L11.0376 9.73332L12.6209 10.572C12.7216 10.6328 12.8439 10.6589 12.9689 10.6371Z" fill="#8F9FAE"/>
</svg>
