<svg width="24" height="24" viewBox="0 0 24 24" fill="none" xmlns="http://www.w3.org/2000/svg">
<path d="M12.8443 11.8215C12.6864 11.6637 12.4309 11.6637 12.2731 11.8215C12.1157 11.9789 12.1157 12.2344 12.2731 12.3923C12.4309 12.5497 12.6864 12.5497 12.8443 12.3923C13.0017 12.2344 13.0017 11.9789 12.8443 11.8215Z" fill="#8F9FAE"/>
<path d="M17.9814 6.68528C17.1927 5.89659 15.9159 5.89655 15.1271 6.68528C14.3404 7.47196 14.3404 8.75234 15.1272 9.53966C15.9142 10.3261 17.1946 10.3265 17.9814 9.53958C18.7701 8.75093 18.7703 7.47406 17.9814 6.68528ZM17.4106 8.9687C16.9386 9.44073 16.1703 9.44073 15.6981 8.96878C15.226 8.49642 15.226 7.72812 15.698 7.25613C16.1712 6.78293 16.9373 6.78285 17.4106 7.25613C17.8838 7.72929 17.8839 8.49546 17.4106 8.9687Z" fill="#8F9FAE"/>
<path d="M22.5486 2.11823C22.4693 2.039 22.3611 1.99605 22.2487 2.00029C22.1574 2.00356 19.9844 2.09091 17.4012 3.00392C15.3313 3.73477 13.606 4.78116 12.2731 6.11401C11.9745 6.41267 11.6839 6.72938 11.4058 7.05839C10.0879 6.28266 9.03192 6.5259 8.36432 6.88317C6.82718 7.70581 5.87573 9.93945 5.87573 11.5371C5.87585 11.7003 5.97422 11.8475 6.12503 11.91C6.17496 11.9307 6.22743 11.9407 6.27942 11.9407C6.38449 11.9407 6.48771 11.8997 6.56493 11.8225C7.37558 11.0119 8.37546 11.0626 8.70209 11.1055L8.84345 11.2469C8.56526 11.9089 8.34115 12.5671 8.17678 13.2074C8.11745 13.4391 8.13747 13.6842 8.22566 13.9085C7.83703 14.0876 7.46208 14.3506 7.13561 14.6771C6.09657 15.7161 5.88558 18.2484 5.87711 18.3557C5.86782 18.4734 5.91053 18.5894 5.99404 18.6729C6.07005 18.7488 6.17286 18.7911 6.27942 18.7911C6.29 18.7911 6.30062 18.7907 6.31123 18.7898C6.41852 18.7814 8.95086 18.5704 9.9899 17.5314C10.3163 17.205 10.5792 16.8301 10.7583 16.4416C10.9957 16.5349 11.2401 16.5464 11.4598 16.4901C12.0998 16.3258 12.758 16.1018 13.42 15.8235L13.5614 15.9649C13.6043 16.2916 13.655 17.2915 12.8444 18.102C12.729 18.2175 12.6944 18.3911 12.7569 18.5419C12.8194 18.6927 12.9665 18.7911 13.1298 18.7911C14.7275 18.7911 16.9611 17.8396 17.7837 16.3025C18.141 15.635 18.3842 14.5789 17.6085 13.261C17.9373 12.9831 18.2541 12.6925 18.5529 12.3937C19.8857 11.0608 20.9321 9.3355 21.6629 7.26575C22.576 4.68246 22.6633 2.50937 22.6665 2.41815C22.6706 2.30613 22.6278 2.19751 22.5486 2.11823ZM6.77821 10.6689C7.02896 9.45539 7.75727 8.12379 8.7454 7.59492C9.40574 7.24157 10.1275 7.2762 10.8949 7.69628C10.2411 8.55614 9.67275 9.48251 9.19899 10.4608C9.19297 10.457 9.12032 10.3657 8.98533 10.3353C8.92983 10.3227 7.86181 10.093 6.77821 10.6689ZM9.41906 16.9605C8.86404 17.5155 7.56206 17.8082 6.73914 17.9278C6.8587 17.1048 7.15147 15.8029 7.70645 15.2479C8.01726 14.9371 8.37764 14.7014 8.73988 14.5687L10.0982 15.9271C9.96552 16.2893 9.72991 16.6497 9.41906 16.9605ZM11.2593 15.7081C11.1425 15.738 11.0072 15.6941 10.9066 15.5937C10.3844 15.0715 10.1801 14.8672 10.116 14.8031C9.99846 14.6856 9.71021 14.3973 9.07353 13.7606C8.97286 13.6597 8.92895 13.5245 8.95877 13.4079C9.08806 12.9043 9.25715 12.3877 9.46277 11.8662L12.8008 15.2042C12.2791 15.4098 11.7626 15.5789 11.2593 15.7081ZM17.072 15.9215C16.5432 16.9096 15.2116 17.638 13.9981 17.8887C14.385 17.1606 14.4703 16.2338 14.329 15.6718C14.2962 15.5413 14.211 15.4756 14.2062 15.4679C15.1844 14.9942 16.1107 14.4258 16.9707 13.772C17.3908 14.5395 17.4253 15.2613 17.072 15.9215ZM17.9821 11.8228C17.6184 12.1865 17.2267 12.5379 16.818 12.8672C15.8354 13.6583 14.7539 14.3285 13.6001 14.8619L9.80503 11.0669C10.3385 9.91301 11.0086 8.83155 11.7997 7.8491C12.1292 7.44008 12.4806 7.04838 12.8442 6.68485C14.04 5.489 15.5833 4.53727 17.4325 3.85219L20.8148 7.23446C20.1298 9.08363 19.178 10.6269 17.9821 11.8228ZM21.1052 6.38312L18.2838 3.56177C19.821 3.08433 21.1582 2.90555 21.8257 2.84129C21.7614 3.50889 21.5826 4.84614 21.1052 6.38312Z" fill="#8F9FAE"/>
<path d="M11.7024 18.6729C11.5447 18.5152 11.2891 18.5153 11.1315 18.6729L9.98999 19.8149C9.8324 19.9725 9.83244 20.2281 9.99007 20.3857C10.1478 20.5433 10.4034 20.5433 10.561 20.3856L11.7025 19.2437C11.8601 19.086 11.86 18.8305 11.7024 18.6729Z" fill="#8F9FAE"/>
<path d="M5.99316 12.962C5.83558 12.8043 5.58002 12.8043 5.42232 12.9619L4.28039 14.1034C4.12272 14.261 4.12268 14.5166 4.28027 14.6743C4.43781 14.8319 4.69336 14.832 4.85111 14.6744L5.99304 13.5329C6.15071 13.3753 6.15075 13.1197 5.99316 12.962Z" fill="#8F9FAE"/>
<path d="M8.84847 19.2432C8.69093 19.0856 8.4353 19.0856 8.27763 19.2432L5.5433 21.9771C5.38564 22.1347 5.38564 22.3903 5.54326 22.548C5.70081 22.7056 5.95644 22.7057 6.1141 22.548L8.84843 19.8141C9.0061 19.6564 9.0061 19.4009 8.84847 19.2432Z" fill="#8F9FAE"/>
<path d="M5.61947 19.2432C5.46189 19.0856 5.20626 19.0856 5.04863 19.2432L2.3143 21.9771C2.15663 22.1347 2.15663 22.3903 2.31426 22.548C2.4718 22.7056 2.72744 22.7057 2.8851 22.548L5.61943 19.8141C5.7771 19.6564 5.7771 19.4009 5.61947 19.2432Z" fill="#8F9FAE"/>
<path d="M5.42298 15.8213C5.2654 15.6637 5.00977 15.6637 4.85214 15.8213L2.11821 18.5557C1.96059 18.7133 1.96059 18.9689 2.11825 19.1266C2.27588 19.2842 2.53147 19.2842 2.6891 19.1265L5.42302 16.3922C5.58065 16.2345 5.58065 15.979 5.42298 15.8213Z" fill="#8F9FAE"/>
<path d="M14.5567 10.1104C14.3991 9.95278 14.1436 9.95278 13.9859 10.1104L13.4151 10.6812C13.2575 10.8388 13.2575 11.0944 13.4151 11.2521C13.5728 11.4097 13.8283 11.4097 13.986 11.2521L14.5567 10.6813C14.7144 10.5237 14.7144 10.2681 14.5567 10.1104Z" fill="#8F9FAE"/>
</svg>
