<svg width="112" height="112" viewBox="0 0 112 112" fill="none" xmlns="http://www.w3.org/2000/svg">
<path fill-rule="evenodd" clip-rule="evenodd" d="M55.7653 0.0778667L55.8383 0.0778198L55.9113 0.0778667C56.7359 0.0789256 57.4035 0.74824 57.4025 1.57282C57.4014 2.39741 56.7321 3.065 55.9075 3.06395L55.8383 3.0639L55.7691 3.06395C54.9446 3.065 54.2752 2.39741 54.2742 1.57282C54.2731 0.74824 54.9407 0.0789256 55.7653 0.0778667ZM36.4776 5.11024C36.7934 5.87193 36.432 6.74546 35.6703 7.06132C29.2534 9.7223 23.4749 13.6157 18.6308 18.4473C18.6145 18.4636 18.5979 18.4794 18.581 18.4948C18.5657 18.5116 18.5498 18.5282 18.5336 18.5446C13.702 23.3887 9.80855 29.1672 7.14756 35.5841C6.8317 36.3458 5.95818 36.7072 5.19649 36.3913C4.4348 36.0755 4.07338 35.2019 4.38924 34.4402C7.20202 27.6573 11.3162 21.5522 16.4194 16.4358C16.4365 16.4186 16.4541 16.4018 16.4719 16.3856C16.4881 16.3678 16.5048 16.3503 16.5221 16.3331C21.6385 11.23 27.7435 7.11578 34.5265 4.303C35.2882 3.98714 36.1617 4.34855 36.4776 5.11024ZM75.1991 5.11025C75.5149 4.34856 76.3885 3.98714 77.1501 4.303C83.9331 7.11578 90.0382 11.23 95.1546 16.3331C95.1718 16.3503 95.1886 16.3678 95.2048 16.3856C95.2226 16.4019 95.2401 16.4186 95.2573 16.4358C100.36 21.5522 104.475 27.6573 107.287 34.4403C107.603 35.2019 107.242 36.0755 106.48 36.3913C105.718 36.7072 104.845 36.3458 104.529 35.5841C101.868 29.1672 97.9747 23.3887 93.1431 18.5446C93.1268 18.5282 93.111 18.5116 93.0956 18.4948C93.0787 18.4794 93.0621 18.4636 93.0458 18.4473C88.2017 13.6157 82.4232 9.72231 76.0063 7.06132C75.2446 6.74546 74.8832 5.87194 75.1991 5.11025ZM1.65907 54.1879C2.48365 54.189 3.15125 54.8583 3.15019 55.6829L3.15014 55.7521L3.15019 55.8213C3.15125 56.6458 2.48365 57.3151 1.65907 57.3162C0.834483 57.3173 0.165168 56.6497 0.164109 55.8251L0.164062 55.7521L0.164109 55.6791C0.165168 54.8545 0.834483 54.1869 1.65907 54.1879ZM110.018 54.1879C110.842 54.1869 111.511 54.8545 111.513 55.6791L111.513 55.7521L111.513 55.8251C111.511 56.6497 110.842 57.3173 110.018 57.3162C109.193 57.3152 108.525 56.6458 108.526 55.8213L108.526 55.7521L108.526 55.6829C108.525 54.8583 109.193 54.189 110.018 54.1879ZM5.19649 75.1128C5.95818 74.797 6.8317 75.1584 7.14756 75.9201C9.80855 82.337 13.702 88.1155 18.5336 92.9596C18.5498 92.9759 18.5657 92.9925 18.581 93.0094C18.5979 93.0247 18.6145 93.0406 18.6308 93.0568C23.4749 97.8884 29.2534 101.782 35.6703 104.443C36.432 104.759 36.7934 105.632 36.4776 106.394C36.1617 107.156 35.2882 107.517 34.5265 107.201C27.7435 104.388 21.6385 100.274 16.5221 95.171C16.5048 95.1538 16.4881 95.1363 16.4719 95.1185C16.4541 95.1023 16.4365 95.0856 16.4194 95.0683C11.3162 89.9519 7.20202 83.8469 4.38924 77.0639C4.07338 76.3022 4.4348 75.4287 5.19649 75.1128ZM106.48 75.1128C107.242 75.4287 107.603 76.3022 107.287 77.0639C104.475 83.8469 100.36 89.9519 95.2573 95.0683C95.2401 95.0856 95.2226 95.1023 95.2047 95.1186C95.1885 95.1364 95.1718 95.1539 95.1546 95.171C90.0382 100.274 83.9331 104.388 77.1501 107.201C76.3885 107.517 75.5149 107.156 75.1991 106.394C74.8832 105.632 75.2446 104.759 76.0063 104.443C82.4232 101.782 88.2017 97.8884 93.0458 93.0568C93.0622 93.0405 93.0788 93.0247 93.0956 93.0094C93.111 92.9925 93.1268 92.9759 93.1431 92.9596C97.9747 88.1155 101.868 82.337 104.529 75.9201C104.845 75.1584 105.718 74.797 106.48 75.1128ZM54.2742 109.931C54.2752 109.107 54.9446 108.439 55.7691 108.44L55.8383 108.44L55.9075 108.44C56.7321 108.439 57.4014 109.107 57.4025 109.931C57.4035 110.756 56.7359 111.425 55.9113 111.426L55.8383 111.426L55.7653 111.426C54.9407 111.425 54.2731 110.756 54.2742 109.931Z" fill="#241A59"/>
</svg>
