<svg width="103" height="181" viewBox="0 0 103 181" fill="none" xmlns="http://www.w3.org/2000/svg">
<path fill-rule="evenodd" clip-rule="evenodd" d="M12.6779 0.612014L12.7962 0.611938L12.9144 0.612014C14.25 0.61373 15.3314 1.69786 15.3297 3.03349C15.328 4.36911 14.2438 5.45046 12.9082 5.44875L12.7962 5.44867L12.6841 5.44875C11.3485 5.45046 10.2644 4.36911 10.2626 3.03349C10.2609 1.69786 11.3423 0.61373 12.6779 0.612014ZM-18.5636 8.76326C-18.052 9.99702 -18.6374 11.4119 -19.8712 11.9235C-30.265 16.2337 -39.6248 22.5401 -47.4711 30.3661C-47.4975 30.3925 -47.5244 30.4181 -47.5518 30.443C-47.5766 30.4703 -47.6023 30.4972 -47.6286 30.5236C-55.4546 38.37 -61.7611 47.7297 -66.0712 58.1236C-66.5828 59.3573 -67.9977 59.9427 -69.2315 59.4311C-70.4652 58.9195 -71.0506 57.5046 -70.539 56.2708C-65.983 45.2841 -59.319 35.3953 -51.0531 27.108C-51.0253 27.0801 -50.9969 27.053 -50.9681 27.0267C-50.9418 26.9978 -50.9147 26.9695 -50.8868 26.9416C-42.5994 18.6757 -32.7107 12.0117 -21.7239 7.45572C-20.4901 6.9441 -19.0752 7.52951 -18.5636 8.76326ZM44.156 8.76327C44.6676 7.52951 46.0825 6.9441 47.3162 7.45572C58.303 12.0118 68.1918 18.6757 76.4791 26.9416C76.507 26.9695 76.5341 26.9979 76.5604 27.0267C76.5893 27.053 76.6176 27.0801 76.6455 27.108C84.9113 35.3953 91.5753 45.2841 96.1313 56.2709C96.643 57.5046 96.0576 58.9195 94.8238 59.4311C93.5901 59.9427 92.1752 59.3573 91.6635 58.1236C87.3534 47.7297 81.0469 38.37 73.2209 30.5236C73.1946 30.4972 73.1689 30.4703 73.1441 30.443C73.1167 30.4181 73.0899 30.3925 73.0634 30.3661C65.2171 22.5401 55.8573 16.2337 45.4635 11.9235C44.2297 11.4119 43.6443 9.99702 44.156 8.76327ZM-74.9613 88.2574C-73.6256 88.2591 -72.5443 89.3432 -72.546 90.6789L-72.5461 90.7909L-72.546 90.903C-72.5443 92.2386 -73.6256 93.3227 -74.9613 93.3244C-76.2969 93.3261 -77.381 92.2448 -77.3827 90.9092L-77.3828 90.7909L-77.3827 90.6727C-77.381 89.337 -76.2969 88.2557 -74.9613 88.2574ZM100.554 88.2574C101.889 88.2557 102.973 89.337 102.975 90.6727L102.975 90.7909L102.975 90.9092C102.973 92.2448 101.889 93.3261 100.554 93.3244C99.218 93.3227 98.1366 92.2386 98.1383 90.903L98.1384 90.7909L98.1383 90.6789C98.1366 89.3432 99.218 88.2591 100.554 88.2574ZM-69.2315 122.151C-67.9977 121.639 -66.5828 122.224 -66.0712 123.458C-61.7611 133.852 -55.4546 143.212 -47.6286 151.058C-47.6022 151.085 -47.5766 151.112 -47.5517 151.139C-47.5244 151.164 -47.4975 151.189 -47.4711 151.216C-39.6248 159.042 -30.265 165.348 -19.8712 169.658C-18.6374 170.17 -18.052 171.585 -18.5636 172.819C-19.0752 174.052 -20.4902 174.638 -21.7239 174.126C-32.7107 169.57 -42.5994 162.906 -50.8868 154.64C-50.9147 154.612 -50.9418 154.584 -50.9681 154.555C-50.9969 154.529 -51.0253 154.502 -51.0531 154.474C-59.319 146.186 -65.983 136.298 -70.539 125.311C-71.0507 124.077 -70.4652 122.662 -69.2315 122.151ZM94.8238 122.151C96.0576 122.662 96.643 124.077 96.1313 125.311C91.5753 136.298 84.9113 146.187 76.6455 154.474C76.6176 154.502 76.5892 154.529 76.5603 154.555C76.5341 154.584 76.507 154.612 76.4791 154.64C68.1917 162.906 58.303 169.57 47.3162 174.126C46.0825 174.638 44.6676 174.052 44.1559 172.819C43.6443 171.585 44.2297 170.17 45.4635 169.658C55.8573 165.348 65.2171 159.042 73.0634 151.216C73.0899 151.189 73.1168 151.164 73.1441 151.139C73.169 151.111 73.1946 151.085 73.2209 151.058C81.0469 143.212 87.3534 133.852 91.6635 123.458C92.1752 122.224 93.59 121.639 94.8238 122.151ZM10.2626 178.548C10.2644 177.213 11.3485 176.131 12.6841 176.133L12.7962 176.133L12.9082 176.133C14.2438 176.131 15.328 177.213 15.3297 178.548C15.3314 179.884 14.25 180.968 12.9144 180.97L12.7962 180.97L12.6779 180.97C11.3423 180.968 10.2609 179.884 10.2626 178.548Z" fill="#40B5E7"/>
</svg>
