<svg width="52" height="52" viewBox="0 0 52 52" fill="none" xmlns="http://www.w3.org/2000/svg">
<path d="M34.3182 15.131C34.3182 12.4508 29.6344 11.5004 25.6266 11.5004C21.6179 11.5004 16.9351 12.4508 16.9351 15.131C16.9351 18.2078 20.8443 23.9728 23.2422 26.2243C20.8443 28.4758 16.9351 34.2407 16.9351 37.3175C16.9351 39.9986 21.6179 40.9482 25.6266 40.9482C29.6344 40.9482 34.3182 39.9968 34.3182 37.3175C34.3182 34.2407 30.4089 28.4758 28.011 26.2243C30.4089 23.9728 34.3182 18.2078 34.3182 15.131ZM33.3524 37.3175C33.3524 39.1475 29.4895 40.0607 25.6266 40.0607C21.7637 40.0607 17.9008 39.1457 17.9008 37.3175C17.9008 34.081 22.8685 27.3087 24.7092 26.2243C22.8685 25.1407 17.9008 18.3684 17.9008 15.131C17.9008 13.3019 21.7637 12.3878 25.6266 12.3878C29.4895 12.3878 33.3524 13.3028 33.3524 15.131C33.3524 18.3684 28.3838 25.1407 26.5441 26.2243C28.3838 27.3079 33.3524 34.0801 33.3524 37.3175Z" fill="#8F9FAE"/>
<path d="M19.7723 38.0862C19.7723 38.2513 21.7858 38.7296 25.6285 38.7296C29.4711 38.7296 31.4847 38.2513 31.4847 38.0862C31.4847 35.6439 25.6285 33.9622 25.6285 29.5887C25.6285 33.9622 19.7723 35.5525 19.7723 38.0862Z" fill="#8F9FAE"/>
<path d="M25.515 25.1254L25.628 26.0714L25.741 25.1254C26.8883 24.5308 30.8352 19.8406 30.8352 17.8296C30.8352 17.5643 29.0448 16.7957 25.6261 16.7957C22.2074 16.7957 20.4169 17.5634 20.4169 17.8296C20.4189 19.8406 24.3677 24.5308 25.515 25.1254Z" fill="#8F9FAE"/>
<circle cx="25.6245" cy="26.2242" r="25" stroke="#8F9FAE" stroke-linecap="round" stroke-dasharray="0.1 15 15 0.1 15 15"/>
</svg>
