<svg width="52" height="52" viewBox="0 0 52 52" fill="none" xmlns="http://www.w3.org/2000/svg">
<path d="M22.9284 39.3055C19.0874 38.2896 15.9114 35.6161 14.1962 32.0882M38.5545 32.0882C36.8737 35.5455 33.7898 38.1823 30.0521 39.2425" stroke="#8F9FAE"/>
<path d="M23.2177 13.1429C18.4235 14.3055 14.6321 17.76 13.2939 22.1645" stroke="#8F9FAE"/>
<path d="M30.4349 13.1429C34.7933 14.3055 38.24 17.76 39.4565 22.1645" stroke="#8F9FAE"/>
<circle cx="26.3115" cy="26.5535" r="11.4639" stroke="#8F9FAE"/>
<path d="M24.0007 15.5126C20.8755 18.6126 16.5003 27.37 24.0007 37.5999" stroke="#8F9FAE"/>
<path d="M27.9568 37.5961C31.082 34.4961 35.4572 25.7387 27.9568 15.5088" stroke="#8F9FAE"/>
<path d="M15.2672 29.2769C18.3671 32.4021 27.1245 36.7773 37.3544 29.2769" stroke="#8F9FAE"/>
<path d="M37.3546 23.9709C34.2546 20.8458 25.4972 16.4705 15.2674 23.9709" stroke="#8F9FAE"/>
<circle cx="26.375" cy="26.2242" r="25" stroke="#8F9FAE" stroke-linecap="round" stroke-dasharray="0.1 15 15 0.1 15 15"/>
</svg>
