<svg width="52" height="52" viewBox="0 0 52 52" fill="none" xmlns="http://www.w3.org/2000/svg">
<path d="M28.2441 16.2552L18.0039 22.6225L15.1514 21.8835L11.9536 21.0535L22.0463 14.649L28.2441 16.2552Z" stroke="#8F9FAE" stroke-width="0.844297" stroke-miterlimit="10" stroke-linejoin="round"/>
<path d="M39.825 19.2554L33.0574 23.5475L33.0004 23.5846L29.7289 25.6598L21.9624 23.6488L31.8708 17.1937L39.825 19.2554Z" stroke="#8F9FAE" stroke-width="0.844297" stroke-miterlimit="10" stroke-linejoin="round"/>
<path d="M39.8251 25.3011V25.3484L29.729 31.7528V31.7056L33.0005 29.627L39.8251 25.3011Z" stroke="#8F9FAE" stroke-width="0.844297" stroke-miterlimit="10" stroke-linejoin="round"/>
<path d="M15.1514 21.8829L18.0039 22.6219V25.4766L15.5771 24.8489L15.5234 24.8354L11.9536 23.9109V21.0529L15.1514 21.8829Z" stroke="#8F9FAE" stroke-width="0.844297" stroke-miterlimit="10" stroke-linejoin="round"/>
<path d="M29.7289 25.6579V28.516L21.9624 26.5015V23.6469L29.7289 25.6579Z" stroke="#8F9FAE" stroke-width="0.844297" stroke-miterlimit="10" stroke-linejoin="round"/>
<path d="M15.5771 24.8498L18.0039 25.4774V28.6695L15.1514 27.9305L11.9536 27.1005V23.9117L15.5234 24.8363L15.5771 24.8498Z" stroke="#8F9FAE" stroke-width="0.844297" stroke-miterlimit="10" stroke-linejoin="round"/>
<path d="M29.7289 28.5153V31.704L21.9624 29.6929V26.5009L29.7289 28.5153Z" stroke="#8F9FAE" stroke-width="0.844297" stroke-miterlimit="10" stroke-linejoin="round"/>
<path d="M15.1514 27.9283L18.0039 28.6673V28.7146L11.9536 27.1489V27.0983L15.1514 27.9283Z" stroke="#8F9FAE" stroke-width="0.844297" stroke-miterlimit="10" stroke-linejoin="round"/>
<path d="M29.7289 31.706V31.7533L21.9624 29.7422V29.6949L29.7289 31.706Z" stroke="#8F9FAE" stroke-width="0.844297" stroke-miterlimit="10" stroke-linejoin="round"/>
<path d="M39.8247 25.3748V25.348" stroke="#8F9FAE" stroke-width="0.844297" stroke-miterlimit="10" stroke-linejoin="round"/>
<path d="M39.8251 19.2531V22.1111L36.2553 24.3752L36.2016 24.409L29.729 28.5155V25.6575L33.0005 23.5823L33.0575 23.5452L39.8251 19.2531Z" stroke="#8F9FAE" stroke-width="0.844297" stroke-miterlimit="10" stroke-linejoin="round"/>
<path d="M39.8251 22.1119V25.3007L33.0005 29.6265L29.729 31.7051V28.5164L36.2016 24.4098L36.2553 24.3761L39.8251 22.1119Z" stroke="#8F9FAE" stroke-width="0.844297" stroke-miterlimit="10" stroke-linejoin="round"/>
<path d="M39.8251 25.3011V28.1592L36.2016 30.4571L29.729 34.5636V31.7056L33.0005 29.627L39.8251 25.3011Z" stroke="#8F9FAE" stroke-width="0.844297" stroke-miterlimit="10" stroke-linejoin="round"/>
<path d="M39.8251 28.1554V31.3947L29.729 37.7991V34.5632L36.2016 30.4567L39.8251 28.1554Z" stroke="#8F9FAE" stroke-width="0.844297" stroke-miterlimit="10" stroke-linejoin="round"/>
<path d="M15.1514 27.9283L18.0039 28.6673V31.522L15.5771 30.8944L11.9536 29.9563V27.0983L15.1514 27.9283Z" stroke="#8F9FAE" stroke-width="0.844297" stroke-miterlimit="10" stroke-linejoin="round"/>
<path d="M29.7289 31.706V34.5641L21.9624 32.5496V29.6949L29.7289 31.706Z" stroke="#8F9FAE" stroke-width="0.844297" stroke-miterlimit="10" stroke-linejoin="round"/>
<path d="M15.5771 30.8952L18.0039 31.5228V34.7622L11.9536 33.1965V29.9572L15.5771 30.8952Z" stroke="#8F9FAE" stroke-width="0.844297" stroke-miterlimit="10" stroke-linejoin="round"/>
<path d="M29.7289 34.5637V37.7996L21.9624 35.7885V32.5492L29.7289 34.5637Z" stroke="#8F9FAE" stroke-width="0.844297" stroke-miterlimit="10" stroke-linejoin="round"/>
<path d="M39.8247 31.4202V31.3934" stroke="#8F9FAE" stroke-width="0.844297" stroke-miterlimit="10" stroke-linejoin="round"/>
<path d="M39.8247 28.1556V25.3246" stroke="#8F9FAE" stroke-width="0.844297" stroke-miterlimit="10" stroke-linejoin="round"/>
<path d="M31.8714 17.1921L21.9631 23.6471V35.7878L18.0044 34.7621V22.6213L28.2446 16.254L31.8714 17.1921Z" stroke="#8F9FAE" stroke-width="0.844297" stroke-miterlimit="10" stroke-linejoin="round"/>
<path d="M21.963 35.7891V35.7925L18.0044 34.7667V34.7633L21.963 35.7891Z" stroke="#8F9FAE" stroke-width="0.844297" stroke-miterlimit="10" stroke-linejoin="round"/>
<circle cx="25.8892" cy="26.2242" r="25" stroke="#8F9FAE" stroke-linecap="round" stroke-dasharray="0.1 15 15 0.1 15 15"/>
</svg>
