<svg width="158" height="83" viewBox="0 0 158 83" fill="none" xmlns="http://www.w3.org/2000/svg">
<circle cx="76.9341" cy="41.2351" r="40.357" stroke="#241A59" stroke-linecap="round" stroke-dasharray="0.1 15 15 0.1 15 15"/>
<rect x="0.00195312" y="31.9514" width="154.552" height="37.6957" rx="18.8479" transform="rotate(-7.0044 0.00195312 31.9514)" fill="#40B5E7"/>
<rect x="0.00195312" y="31.9514" width="154.552" height="37.6957" rx="18.8479" transform="rotate(-7.0044 0.00195312 31.9514)" fill="url(#paint0_linear)"/>
<path d="M26.7838 42.9951L27.8536 51.7024L29.6393 51.483L28.9404 45.7944L29.0126 45.7855L31.9597 51.1548L33.1757 51.0054L34.738 45.1036L34.8102 45.0947L35.5066 50.7622L37.2922 50.5428L36.2224 41.8354L33.9521 42.1144L32.2729 48.2592L32.1709 48.2718L29.0542 42.7161L26.7838 42.9951ZM41.7413 50.1256C43.7226 49.8822 44.7889 48.3745 44.5418 46.3634C44.2932 44.3397 42.8941 43.1391 40.9128 43.3825C38.9316 43.626 37.8647 45.1295 38.1133 47.1532C38.3604 49.1643 39.76 50.3691 41.7413 50.1256ZM41.5774 48.7215C40.6633 48.8339 40.0927 48.0537 39.9527 46.9143C39.8127 45.7749 40.177 44.8756 41.0911 44.7633C41.9882 44.6531 42.5593 45.4374 42.6993 46.5769C42.8393 47.7163 42.4745 48.6113 41.5774 48.7215ZM45.4469 49.5409L47.5599 49.2813L48.9344 46.5229L49.1895 46.4916L49.5029 49.0425L51.3141 48.82L51.0007 46.269L51.2558 46.2377L53.2486 48.5823L55.3617 48.3227L52.6654 45.2057L54.5466 41.7938L52.4803 42.0476L51.0978 44.8113L50.8257 44.8447L50.5118 42.2895L48.7006 42.512L49.0145 45.0673L48.7339 45.1017L46.7236 42.7549L44.6573 43.0088L47.3126 45.8633L45.4469 49.5409ZM59.1294 47.9893C60.745 47.7908 61.7368 46.8705 61.843 45.6274L60.1543 45.7227C60.0326 46.2426 59.5968 46.5594 58.9931 46.6336C58.0875 46.7449 57.4398 46.2159 57.3202 45.2423L57.3197 45.238L61.7669 44.6916L61.7058 44.1942C61.4331 41.9748 59.9548 41.043 58.2287 41.2551C56.3069 41.4912 55.2289 43.009 55.4765 45.0243C55.7309 47.0948 57.1184 48.2364 59.1294 47.9893ZM57.1818 44.1156C57.1286 43.3669 57.621 42.7022 58.4245 42.6034C59.2111 42.5068 59.8243 43.0011 59.9241 43.7787L57.1818 44.1156ZM62.1619 42.3039L64.2495 42.0475L64.8768 47.1537L66.603 46.9416L65.9756 41.8354L68.0802 41.5768L67.9052 40.1525L61.9869 40.8796L62.1619 42.3039ZM76.9089 36.6122C76.6177 36.8767 76.107 36.9351 75.4097 37.0208C75.2439 37.0412 75.0691 37.0583 74.8825 37.0856C72.5085 37.3988 71.4498 39.0394 71.8364 42.1856L71.9022 42.7213C72.1937 45.0937 73.5743 46.2145 75.5514 45.9716C77.5241 45.7293 78.5881 44.3081 78.3432 42.3141C78.1081 40.4009 76.8494 39.3945 75.1828 39.5993C74.1326 39.7283 73.4827 40.27 73.1898 41.1173L73.126 41.1252C73.0821 39.5035 73.6134 38.7693 75.1249 38.5663C76.4615 38.3805 77.1063 38.2538 77.6068 37.7262L76.9089 36.6122ZM75.3875 44.5676C74.5329 44.6726 73.9338 44.047 73.797 42.9331C73.6686 41.8181 74.1015 41.1262 74.9433 41.0227C75.7809 40.9198 76.3726 41.4859 76.5095 42.5998C76.6469 43.718 76.2165 44.4657 75.3875 44.5676ZM81.1054 40.5678L80.8589 38.561L79.1285 38.7736L79.9308 45.3041L83.0175 44.9249C84.7479 44.7123 85.6528 43.6818 85.4914 42.3335C85.3185 40.9608 84.1921 40.1885 82.4617 40.4011L81.1054 40.5678ZM86.4698 44.5007L88.281 44.2782L87.4787 37.7477L85.6675 37.9702L86.4698 44.5007ZM81.2804 41.992L82.6367 41.8254C83.2447 41.7507 83.718 42.0551 83.7881 42.5557C83.8381 43.033 83.4505 43.4259 82.8425 43.5006L81.4862 43.6672L81.2804 41.992ZM88.7612 39.0359L90.8488 38.7794L91.4761 43.8856L93.2023 43.6735L92.5749 38.5673L94.6795 38.3087L94.5045 36.8844L88.5862 37.6116L88.7612 39.0359ZM97.5794 38.5437L97.3329 36.5369L95.6025 36.7495L96.4048 43.2801L99.4915 42.9008C101.222 42.6882 102.127 41.6578 101.965 40.3095C101.792 38.9367 100.666 38.1645 98.9357 38.3771L97.5794 38.5437ZM97.7544 39.968L99.1107 39.8014C99.7187 39.7267 100.192 40.0311 100.262 40.5317C100.312 41.0089 99.9245 41.4018 99.3165 41.4765L97.9602 41.6432L97.7544 39.968ZM105.266 40.983L103.769 41.1668L103.806 41.6456C103.897 42.8083 103.711 44.0353 103.649 44.5479L104.823 44.4037C104.964 43.8642 105.3 42.5972 105.276 41.4564L105.266 40.983ZM108.462 36.6154L110.55 36.3589L111.177 41.4651L112.903 41.253L112.276 36.1468L114.38 35.8882L114.205 34.4639L108.287 35.1911L108.462 36.6154ZM117.28 36.1232L117.034 34.1164L115.303 34.329L116.106 40.8595L119.193 40.4803C120.923 40.2677 121.828 39.2373 121.666 37.889C121.493 36.5162 120.367 35.744 118.637 35.9566L117.28 36.1232ZM122.645 40.0561L124.456 39.8336L123.654 33.3031L121.842 33.5256L122.645 40.0561ZM117.455 37.5475L118.812 37.3809C119.42 37.3062 119.893 37.6105 119.963 38.1112C120.013 38.5884 119.626 38.9813 119.018 39.056L117.661 39.2226L117.455 37.5475ZM127.139 36.8541L128.75 36.6561L128.733 36.5115C128.639 35.6814 128.889 35.2579 129.512 34.7715C130.249 34.2019 130.691 33.5132 130.568 32.514C130.385 31.026 129.079 30.3059 127.392 30.5133C125.848 30.7029 124.689 31.6654 124.86 33.3707L126.594 33.1576C126.535 32.4614 127.004 32.0283 127.561 31.9599C128.135 31.8894 128.645 32.2151 128.718 32.8061C128.786 33.3631 128.428 33.7826 127.945 34.1784C127.287 34.7169 126.943 35.2209 127.121 36.7095L127.139 36.8541ZM128.311 39.4722C128.855 39.4053 129.271 38.8924 129.206 38.3264C129.133 37.77 128.605 37.373 128.061 37.4399C127.5 37.5089 127.093 38.0207 127.165 38.5772C127.23 39.1432 127.75 39.5411 128.311 39.4722Z" fill="white"/>
<defs>
<linearGradient id="paint0_linear" x1="-4.52154" y1="-4.61341" x2="129.847" y2="114.791" gradientUnits="userSpaceOnUse">
<stop stop-color="#00B3FF"/>
<stop offset="1" stop-color="#40B5E7" stop-opacity="0"/>
</linearGradient>
</defs>
</svg>
